<svg width="88" height="88" viewBox="0 0 88 88" fill="none" xmlns="http://www.w3.org/2000/svg">
<g filter="url(#filter0_d_142707_11)">
<rect x="23" y="18" width="41.7571" height="41.7571" rx="20.8785" fill="#E3B873"/>
<rect x="19" y="14" width="49.7571" height="49.7571" rx="24.8785" stroke="white" stroke-width="8"/>
</g>
<path d="M38.4708 44.7517C37.4988 44.7517 36.6168 44.4937 35.8248 43.9777C35.0328 43.4617 34.4028 42.7117 33.9348 41.7277C33.4788 40.7317 33.2508 39.5497 33.2508 38.1817C33.2508 36.8137 33.4788 35.6377 33.9348 34.6537C34.4028 33.6577 35.0328 32.9017 35.8248 32.3857C36.6168 31.8697 37.4988 31.6117 38.4708 31.6117C39.4428 31.6117 40.3248 31.8697 41.1168 32.3857C41.9088 32.9017 42.5328 33.6577 42.9888 34.6537C43.4568 35.6377 43.6908 36.8137 43.6908 38.1817C43.6908 39.5497 43.4568 40.7317 42.9888 41.7277C42.5328 42.7117 41.9088 43.4617 41.1168 43.9777C40.3248 44.4937 39.4428 44.7517 38.4708 44.7517ZM38.4708 44.3917C39.8508 44.3917 40.5408 42.3217 40.5408 38.1817C40.5408 34.0417 39.8508 31.9717 38.4708 31.9717C37.0908 31.9717 36.4008 34.0417 36.4008 38.1817C36.4008 42.3217 37.0908 44.3917 38.4708 44.3917ZM45.0394 43.6717C45.0394 42.9637 45.1774 42.3217 45.4534 41.7457C45.7414 41.1577 46.0894 40.6477 46.4974 40.2157C46.9054 39.7837 47.4394 39.2737 48.0994 38.6857C48.7114 38.1457 49.1914 37.6957 49.5394 37.3357C49.8874 36.9637 50.1814 36.5497 50.4214 36.0937C50.6614 35.6257 50.7814 35.1217 50.7814 34.5817C50.7814 33.7897 50.5894 33.1717 50.2054 32.7277C49.8214 32.2837 49.3234 32.0617 48.7114 32.0617C48.3634 32.0617 48.0094 32.1097 47.6494 32.2057L47.2714 32.3317V35.2117L47.0374 35.2657C46.8454 35.2897 46.6834 35.3017 46.5514 35.3017C46.1434 35.3017 45.8134 35.1817 45.5614 34.9417C45.3214 34.6897 45.2014 34.3597 45.2014 33.9517C45.2014 33.5677 45.3454 33.1957 45.6334 32.8357C45.9334 32.4757 46.3714 32.1817 46.9474 31.9537C47.5354 31.7257 48.2434 31.6117 49.0714 31.6117C50.6914 31.6117 51.8914 31.9357 52.6714 32.5837C53.4514 33.2317 53.8414 34.1377 53.8414 35.3017C53.8414 36.0337 53.6494 36.6637 53.2654 37.1917C52.8934 37.7197 52.4314 38.1577 51.8794 38.5057C51.3394 38.8537 50.6134 39.2497 49.7014 39.6937C48.9334 40.0657 48.3094 40.3957 47.8294 40.6837C47.3614 40.9597 46.9234 41.2957 46.5154 41.6917C46.1194 42.0877 45.8374 42.5377 45.6694 43.0417H52.3294C52.4134 42.3937 52.6174 41.8537 52.9414 41.4217C53.0734 41.2177 53.2294 41.0377 53.4094 40.8817H53.9494V44.4817H45.0394V43.6717Z" fill="white"/>
<defs>
<filter id="filter0_d_142707_11" x="0" y="0" width="87.757" height="87.7571" filterUnits="userSpaceOnUse" color-interpolation-filters="sRGB">
<feFlood flood-opacity="0" result="BackgroundImageFix"/>
<feColorMatrix in="SourceAlpha" type="matrix" values="0 0 0 0 0 0 0 0 0 0 0 0 0 0 0 0 0 0 127 0" result="hardAlpha"/>
<feOffset dy="5"/>
<feGaussianBlur stdDeviation="7.5"/>
<feColorMatrix type="matrix" values="0 0 0 0 0.890196 0 0 0 0 0.721569 0 0 0 0 0.45098 0 0 0 0.15 0"/>
<feBlend mode="normal" in2="BackgroundImageFix" result="effect1_dropShadow_142707_11"/>
<feBlend mode="normal" in="SourceGraphic" in2="effect1_dropShadow_142707_11" result="shape"/>
</filter>
</defs>
</svg>
