<svg width="88" height="88" viewBox="0 0 88 88" fill="none" xmlns="http://www.w3.org/2000/svg">
<g filter="url(#filter0_d_142707_10)">
<rect x="23" y="18.2163" width="41.7571" height="41.7571" rx="20.8785" fill="#E3B873"/>
<rect x="19" y="14.2163" width="49.7571" height="49.7571" rx="24.8785" stroke="white" stroke-width="8"/>
</g>
<path d="M40.5727 45.27C39.6007 45.27 38.7187 45.012 37.9267 44.496C37.1347 43.98 36.5047 43.23 36.0367 42.246C35.5807 41.25 35.3527 40.068 35.3527 38.7C35.3527 37.332 35.5807 36.156 36.0367 35.172C36.5047 34.176 37.1347 33.42 37.9267 32.904C38.7187 32.388 39.6007 32.13 40.5727 32.13C41.5447 32.13 42.4267 32.388 43.2187 32.904C44.0107 33.42 44.6347 34.176 45.0907 35.172C45.5587 36.156 45.7927 37.332 45.7927 38.7C45.7927 40.068 45.5587 41.25 45.0907 42.246C44.6347 43.23 44.0107 43.98 43.2187 44.496C42.4267 45.012 41.5447 45.27 40.5727 45.27ZM40.5727 44.91C41.9527 44.91 42.6427 42.84 42.6427 38.7C42.6427 34.56 41.9527 32.49 40.5727 32.49C39.1927 32.49 38.5027 34.56 38.5027 38.7C38.5027 42.84 39.1927 44.91 40.5727 44.91ZM47.8613 45V44.73L49.1213 44.37V34.488L47.2313 35.82L46.8713 35.37L50.1473 32.4H52.0913V44.37L53.3513 44.73V45H47.8613Z" fill="white"/>
<defs>
<filter id="filter0_d_142707_10" x="0" y="0.216309" width="87.757" height="87.7571" filterUnits="userSpaceOnUse" color-interpolation-filters="sRGB">
<feFlood flood-opacity="0" result="BackgroundImageFix"/>
<feColorMatrix in="SourceAlpha" type="matrix" values="0 0 0 0 0 0 0 0 0 0 0 0 0 0 0 0 0 0 127 0" result="hardAlpha"/>
<feOffset dy="5"/>
<feGaussianBlur stdDeviation="7.5"/>
<feColorMatrix type="matrix" values="0 0 0 0 0.890196 0 0 0 0 0.721569 0 0 0 0 0.45098 0 0 0 0.15 0"/>
<feBlend mode="normal" in2="BackgroundImageFix" result="effect1_dropShadow_142707_10"/>
<feBlend mode="normal" in="SourceGraphic" in2="effect1_dropShadow_142707_10" result="shape"/>
</filter>
</defs>
</svg>
