<svg width="88" height="88" viewBox="0 0 88 88" fill="none" xmlns="http://www.w3.org/2000/svg">
<g filter="url(#filter0_d_142707_12)">
<g filter="url(#filter1_d_142707_12)">
<rect x="23" y="18" width="41.7571" height="41.7571" rx="20.8785" fill="#E3B873"/>
<rect x="19" y="14" width="49.7571" height="49.7571" rx="24.8785" stroke="white" stroke-width="8"/>
</g>
<path d="M38.2361 44.1323C37.2641 44.1323 36.3821 43.8743 35.5901 43.3583C34.7981 42.8423 34.1681 42.0923 33.7001 41.1083C33.2441 40.1123 33.0161 38.9303 33.0161 37.5623C33.0161 36.1943 33.2441 35.0183 33.7001 34.0343C34.1681 33.0383 34.7981 32.2823 35.5901 31.7663C36.3821 31.2503 37.2641 30.9923 38.2361 30.9923C39.2081 30.9923 40.0901 31.2503 40.8821 31.7663C41.6741 32.2823 42.2981 33.0383 42.7541 34.0343C43.2221 35.0183 43.4561 36.1943 43.4561 37.5623C43.4561 38.9303 43.2221 40.1123 42.7541 41.1083C42.2981 42.0923 41.6741 42.8423 40.8821 43.3583C40.0901 43.8743 39.2081 44.1323 38.2361 44.1323ZM38.2361 43.7723C39.6161 43.7723 40.3061 41.7023 40.3061 37.5623C40.3061 33.4223 39.6161 31.3523 38.2361 31.3523C36.8561 31.3523 36.1661 33.4223 36.1661 37.5623C36.1661 41.7023 36.8561 43.7723 38.2361 43.7723ZM48.5846 44.1323C47.7566 44.1323 47.0486 44.0183 46.4606 43.7903C45.8846 43.5623 45.4466 43.2683 45.1466 42.9083C44.8586 42.5483 44.7146 42.1763 44.7146 41.7923C44.7146 41.3843 44.8346 41.0603 45.0746 40.8203C45.3266 40.5683 45.6566 40.4423 46.0646 40.4423C46.1606 40.4423 46.2566 40.4543 46.3526 40.4783C46.4486 40.4903 46.5146 40.4963 46.5506 40.4963L46.7846 40.5323V43.4123C46.7966 43.4123 46.9226 43.4603 47.1626 43.5563C47.4746 43.6403 47.8286 43.6823 48.2246 43.6823C49.0646 43.6823 49.7066 43.4303 50.1506 42.9263C50.6066 42.4103 50.8346 41.6423 50.8346 40.6223C50.8346 39.5783 50.6126 38.7923 50.1686 38.2643C49.7366 37.7363 49.1486 37.4723 48.4046 37.4723H47.5046V37.0223H48.4046C48.9446 37.0223 49.3946 36.7823 49.7546 36.3023C50.1146 35.8223 50.2946 35.1323 50.2946 34.2323C50.2946 33.3323 50.1086 32.6423 49.7366 32.1623C49.3646 31.6823 48.8906 31.4423 48.3146 31.4423C48.0026 31.4423 47.7026 31.4903 47.4146 31.5863C47.3786 31.5983 47.2586 31.6403 47.0546 31.7123V34.5923L46.8206 34.6463C46.6286 34.6703 46.4666 34.6823 46.3346 34.6823C45.9266 34.6823 45.5966 34.5623 45.3446 34.3223C45.1046 34.0703 44.9846 33.7403 44.9846 33.3323C44.9846 32.9603 45.1286 32.5943 45.4166 32.2343C45.7046 31.8743 46.1246 31.5803 46.6766 31.3523C47.2406 31.1123 47.9066 30.9923 48.6746 30.9923C49.6826 30.9923 50.5346 31.1423 51.2306 31.4423C51.9386 31.7303 52.4666 32.1203 52.8146 32.6123C53.1746 33.1043 53.3546 33.6443 53.3546 34.2323C53.3546 34.9163 53.1806 35.4623 52.8326 35.8703C52.4846 36.2663 52.0286 36.5843 51.4646 36.8243C50.9126 37.0403 50.2826 37.1663 49.5746 37.2023V37.2923C50.3666 37.3283 51.0866 37.4663 51.7346 37.7063C53.1746 38.2823 53.8946 39.2543 53.8946 40.6223C53.8946 41.6783 53.4566 42.5303 52.5806 43.1783C51.7166 43.8143 50.3846 44.1323 48.5846 44.1323Z" fill="white"/>
</g>
<defs>
<filter id="filter0_d_142707_12" x="11" y="10" width="65.757" height="65.7571" filterUnits="userSpaceOnUse" color-interpolation-filters="sRGB">
<feFlood flood-opacity="0" result="BackgroundImageFix"/>
<feColorMatrix in="SourceAlpha" type="matrix" values="0 0 0 0 0 0 0 0 0 0 0 0 0 0 0 0 0 0 127 0" result="hardAlpha"/>
<feOffset dy="4"/>
<feGaussianBlur stdDeviation="2"/>
<feComposite in2="hardAlpha" operator="out"/>
<feColorMatrix type="matrix" values="0 0 0 0 0 0 0 0 0 0 0 0 0 0 0 0 0 0 0.25 0"/>
<feBlend mode="normal" in2="BackgroundImageFix" result="effect1_dropShadow_142707_12"/>
<feBlend mode="normal" in="SourceGraphic" in2="effect1_dropShadow_142707_12" result="shape"/>
</filter>
<filter id="filter1_d_142707_12" x="0" y="0" width="87.757" height="87.7571" filterUnits="userSpaceOnUse" color-interpolation-filters="sRGB">
<feFlood flood-opacity="0" result="BackgroundImageFix"/>
<feColorMatrix in="SourceAlpha" type="matrix" values="0 0 0 0 0 0 0 0 0 0 0 0 0 0 0 0 0 0 127 0" result="hardAlpha"/>
<feOffset dy="5"/>
<feGaussianBlur stdDeviation="7.5"/>
<feColorMatrix type="matrix" values="0 0 0 0 0.890196 0 0 0 0 0.721569 0 0 0 0 0.45098 0 0 0 0.15 0"/>
<feBlend mode="normal" in2="BackgroundImageFix" result="effect1_dropShadow_142707_12"/>
<feBlend mode="normal" in="SourceGraphic" in2="effect1_dropShadow_142707_12" result="shape"/>
</filter>
</defs>
</svg>
