<svg width="206" height="14" viewBox="0 0 206 14" fill="none" xmlns="http://www.w3.org/2000/svg">
<g id="Group 2.18">
<g id="Group 8.4">
<g id="Group">
<path id="Vector (Stroke)" fill-rule="evenodd" clip-rule="evenodd" d="M199.045 0L205.683 6.63804L199.045 13.2761L198.098 12.3285L203.788 6.63804L198.098 0.947567L199.045 0Z" fill="white"/>
<path id="Vector (Stroke)_2" fill-rule="evenodd" clip-rule="evenodd" d="M204.736 7.30784L164.228 7.30784L164.228 5.96777L204.736 5.96778L204.736 7.30784Z" fill="white"/>
</g>
<g id="Group_2">
<path id="Vector (Stroke)_3" fill-rule="evenodd" clip-rule="evenodd" d="M6.63807 13.2761L2.29917e-05 6.63808L6.63807 3.80641e-05L7.58563 0.947606L1.89516 6.63808L7.58563 12.3286L6.63807 13.2761Z" fill="white"/>
<path id="Vector (Stroke)_4" fill-rule="evenodd" clip-rule="evenodd" d="M0.947579 5.96828L41.4556 5.96829L41.4556 7.30835L0.947578 7.30834L0.947579 5.96828Z" fill="white"/>
</g>
<g id="Group 7.1">
<rect id="Rectangle 7.2" x="125.164" y="1.45654" width="9.56667" height="9.56667" rx="4.78333" fill="white" fill-opacity="0.3"/>
<rect id="Rectangle 7.3" x="98.0583" y="1.45654" width="9.56667" height="9.56667" rx="4.78333" fill="white" fill-opacity="0.3"/>
<rect id="Rectangle 7.4" x="70.9528" y="1.4563" width="9.56667" height="9.56667" rx="4.78333" fill="white"/>
</g>
</g>
</g>
</svg>
