<svg width="113" height="113" viewBox="0 0 113 113" fill="none" xmlns="http://www.w3.org/2000/svg">
<g id="Group">
<g id="Group_2">
<g id="Ellipse" filter="url(#filter0_d_1_11114)">
<circle cx="56.5" cy="46.4424" r="36" fill="#E3B873"/>
</g>
<g id="Group_3">
<path id="Vector" d="M56.8396 53.7206C56.4614 53.7206 56.1526 54.0199 56.1526 54.3917V55.7163C56.1526 56.0881 56.4614 56.3873 56.8396 56.3873C57.2178 56.3873 57.5265 56.0881 57.5265 55.7163V54.3917C57.5265 54.0199 57.2178 53.7206 56.8396 53.7206Z" fill="white" stroke="white" stroke-width="0.1"/>
<path id="Vector_2" d="M73.5581 44.4428L73.5581 44.4427C73.1069 42.2849 72.0951 40.2508 70.6321 38.5602C69.2237 36.9326 67.4214 35.6513 65.4118 34.8437C65.0828 33.5077 64.3927 32.13 63.0386 31.0926C61.7205 30.0829 60.3931 29.8882 60.3338 29.8799L60.3338 29.8799C60.1374 29.8526 59.9377 29.9096 59.7872 30.0369C59.6366 30.1642 59.5498 30.3492 59.5498 30.5442V33.8478H57.3254C56.736 31.9337 54.9142 30.5357 52.7634 30.5357C50.5652 30.5357 48.7096 31.9956 48.1632 33.9747C45.0152 34.4005 42.1197 35.8912 39.9692 38.2047L40.0059 38.2387L39.9692 38.2047C37.7 40.6462 36.45 43.807 36.45 47.1048C36.45 54.4944 40.3839 60.5047 41.5891 62.1702C41.9705 62.6973 42.5945 63.0115 43.2582 63.0115H45.9692C47.0961 63.0115 48.015 62.1174 48.015 61.0156V60.214C48.6849 60.3117 49.3649 60.3618 50.0457 60.3618H56.1528V61.0156C56.1528 62.1174 57.0717 63.0115 58.1986 63.0115H61.1765C62.134 63.0115 62.9756 62.3491 63.1767 61.4341L63.4969 59.9776C67.673 58.976 71.0324 56.1195 72.6959 52.4129H75.1837C75.9359 52.4129 76.55 51.816 76.55 51.0795V45.78C76.55 45.4234 76.4075 45.0882 76.1493 44.8365C75.8912 44.5849 75.5483 44.4465 75.1838 44.4465H75.1837H75.1837H75.1837H75.1836H75.1836H75.1836H75.1835L73.5592 44.4467C73.5587 44.4454 73.5584 44.4441 73.5581 44.4428ZM75.1762 51.0293H75.1761V51.0708H73.2111C73.5469 50.0272 73.7538 48.9313 73.8138 47.802C73.8337 47.4307 73.5411 47.1162 73.1633 47.0971C72.7857 47.0784 72.4615 47.3611 72.4418 47.7324C72.1746 52.755 68.6861 57.0486 63.8218 58.4988L64.6936 54.5325C64.7736 54.1689 64.5358 53.8128 64.1656 53.7355C63.7961 53.658 63.4301 53.8876 63.3503 54.2508L61.8334 61.1523C61.7678 61.4509 61.4919 61.6694 61.1765 61.6694H58.1984C57.8268 61.6694 57.5266 61.3748 57.5266 61.0156V58.3658C57.5266 57.994 57.2178 57.6948 56.8396 57.6948C56.4614 57.6948 56.1527 57.994 56.1527 58.3658V59.0197H50.0455C49.3637 59.0197 48.6831 58.9637 48.0148 58.8549V54.3914C48.0148 54.0196 47.7061 53.7204 47.3279 53.7204C46.9497 53.7204 46.6409 54.0196 46.6409 54.3914V61.0156C46.6409 61.3749 46.3407 61.6695 45.9691 61.6695H43.2582C43.0355 61.6695 42.8366 61.5694 42.7111 61.3957L42.7111 61.3957C41.5641 59.8104 37.8239 54.0966 37.8239 47.1047C37.8239 44.1413 38.9469 41.301 40.9864 39.1068L40.9498 39.0728L40.9864 39.1068C42.8401 37.1124 45.3092 35.7982 48.0037 35.3561C48.0187 35.7441 48.0834 36.1276 48.195 36.4974H48.0074C47.6292 36.4974 47.3205 36.7966 47.3205 37.1684C47.3205 37.5402 47.6292 37.8395 48.0074 37.8395H57.5191C57.8974 37.8395 58.2061 37.5402 58.2061 37.1684C58.2061 36.7966 57.8974 36.4974 57.5191 36.4974H57.3315C57.4592 36.0749 57.5258 35.6344 57.5266 35.1897H59.5498V36.506C59.5498 36.8778 59.8585 37.177 60.2367 37.177C60.6149 37.177 60.9237 36.8778 60.9237 36.506V31.4319C61.5183 31.6611 62.343 32.1096 63.0288 32.9651C63.7404 33.8526 64.3056 35.182 64.3056 37.1685C64.3056 37.5403 64.6144 37.8395 64.9926 37.8395C65.3708 37.8395 65.6795 37.5403 65.6795 37.1685C65.6795 36.9306 65.6716 36.6808 65.6536 36.4229C67.1527 37.1478 68.4978 38.1728 69.5829 39.4267C70.8977 40.9462 71.8068 42.7736 72.212 44.7114C72.3426 45.3363 72.9049 45.7889 73.5487 45.7888L75.1762 45.7887V51.0293ZM52.7633 31.8778C54.6334 31.8778 56.1527 33.361 56.1527 35.1813C56.1527 35.6361 56.0552 36.0844 55.871 36.4975H49.6555C49.4714 36.0843 49.3737 35.6361 49.3737 35.1813C49.3737 33.3609 50.8931 31.8778 52.7633 31.8778Z" fill="white" stroke="white" stroke-width="0.1"/>
<path id="Vector_3" d="M64.4116 44.8828L64.4116 44.8828C64.815 43.8281 65.8808 43.1218 67.0621 43.1218C68.2433 43.1218 69.3093 43.8281 69.7125 44.8828C69.7125 44.8828 69.7125 44.8828 69.7125 44.8829L69.6658 44.9007C69.7887 45.222 69.6211 45.5797 69.2915 45.6995L64.4116 44.8828ZM64.4116 44.8828C64.2784 45.2312 64.4605 45.6175 64.8155 45.7465M64.4116 44.8828L64.8155 45.7465M64.8155 45.7465C65.17 45.8755 65.5657 45.7001 65.6986 45.3524L64.8155 45.7465ZM69.0691 45.7888C69.1488 45.7888 69.2297 45.7752 69.3086 45.7465L65.6986 45.3524C65.9011 44.8229 66.4479 44.4638 67.062 44.4638C67.6761 44.4638 68.223 44.8229 68.4255 45.3524C68.5289 45.6229 68.7913 45.7888 69.0691 45.7888Z" fill="white" stroke="white" stroke-width="0.1"/>
<path id="Vector_4" d="M55.7116 47.5181C55.0601 47.0763 54.2201 46.8056 53.4502 46.5933V43.5143C54.0451 43.5915 54.5484 43.7638 54.9047 43.9765C55.2758 44.1982 55.4733 44.4545 55.4733 44.683C55.4733 45.0548 55.7821 45.354 56.1603 45.354C56.5385 45.354 56.8472 45.0548 56.8472 44.683C56.8472 44.0274 56.4732 43.4413 55.8589 42.9981C55.254 42.5617 54.4127 42.2606 53.4502 42.1628V42.1368C53.4502 41.765 53.1414 41.4657 52.7632 41.4657C52.385 41.4657 52.0763 41.765 52.0763 42.1368V42.1628C51.1138 42.2606 50.2724 42.5617 49.6676 42.9981C49.0533 43.4413 48.6792 44.0274 48.6792 44.683C48.6792 45.6105 49.1508 46.2414 49.8149 46.6918C50.4663 47.1336 51.3064 47.4043 52.0763 47.6166V50.6955C51.4814 50.6184 50.9781 50.4461 50.6218 50.2333C50.2506 50.0117 50.0532 49.7554 50.0532 49.5269C50.0532 49.1551 49.7444 48.8559 49.3662 48.8559C48.988 48.8559 48.6792 49.1551 48.6792 49.5269C48.6792 50.1825 49.0533 50.7686 49.6676 51.2118C50.2724 51.6482 51.1138 51.9492 52.0763 52.0471V52.0731C52.0763 52.4449 52.385 52.7441 52.7632 52.7441C53.1414 52.7441 53.4502 52.4449 53.4502 52.0731V52.0471C54.4127 51.9492 55.254 51.6482 55.8589 51.2118C56.4732 50.7686 56.8472 50.1825 56.8472 49.5269C56.8472 48.5993 56.3757 47.9684 55.7116 47.5181ZM52.0763 43.5143V46.2105C51.3286 45.9782 50.8248 45.757 50.5067 45.5156C50.1827 45.2699 50.0532 45.0051 50.0532 44.683C50.0532 44.4545 50.2506 44.1982 50.6218 43.9765C50.9781 43.7638 51.4814 43.5915 52.0763 43.5143ZM54.9047 50.2334C54.5484 50.4462 54.045 50.6185 53.4502 50.6956V47.9994C54.1979 48.2317 54.7016 48.4529 55.0198 48.6943C55.3437 48.94 55.4733 49.2049 55.4733 49.527C55.4733 49.7554 55.2758 50.0117 54.9047 50.2334Z" fill="white" stroke="white" stroke-width="0.1"/>
</g>
</g>
</g>
<defs>
<filter id="filter0_d_1_11114" x="0.5" y="0.442383" width="112" height="112" filterUnits="userSpaceOnUse" color-interpolation-filters="sRGB">
<feFlood flood-opacity="0" result="BackgroundImageFix"/>
<feColorMatrix in="SourceAlpha" type="matrix" values="0 0 0 0 0 0 0 0 0 0 0 0 0 0 0 0 0 0 127 0" result="hardAlpha"/>
<feOffset dy="10"/>
<feGaussianBlur stdDeviation="10"/>
<feColorMatrix type="matrix" values="0 0 0 0 0.929412 0 0 0 0 0.752941 0 0 0 0 0.470588 0 0 0 0.2 0"/>
<feBlend mode="normal" in2="BackgroundImageFix" result="effect1_dropShadow_1_11114"/>
<feBlend mode="normal" in="SourceGraphic" in2="effect1_dropShadow_1_11114" result="shape"/>
</filter>
</defs>
</svg>
