<svg width="729" height="449" viewBox="0 0 729 449" fill="none" xmlns="http://www.w3.org/2000/svg">
<path d="M471.872 318.696H528.87V451.996H471.872V318.696Z" fill="#333333"/>
<path d="M502.962 311.971H528.87V319.559H502.962V311.971Z" fill="#333333"/>
<path d="M513.843 307.66H528.87V311.971H513.843V307.66Z" fill="#333333"/>
<path opacity="0.06" d="M495.707 328.008H505.034V334.906H495.707V328.008Z" fill="white"/>
<path opacity="0.12" d="M495.707 345.08H505.034V351.978H495.707V345.08Z" fill="white"/>
<path opacity="0.19" d="M495.707 379.224H505.034V386.122H495.707V379.224Z" fill="white"/>
<path opacity="0.14" d="M495.707 413.368H505.034V420.266H495.707V413.368Z" fill="white"/>
<path opacity="0.1" d="M495.707 430.44H505.034V437.338H495.707V430.44Z" fill="white"/>
<path d="M614.884 333.181H692.954V404.573H614.884V333.181Z" fill="#333333"/>
<path d="M627.147 326.801H680.518V357.496H627.147V326.801Z" fill="#333333"/>
<path d="M609.185 378.189H687.254V449.581H609.185V378.189Z" fill="#333333"/>
<path d="M621.62 371.808H674.991V402.503H621.62V371.808Z" fill="#333333"/>
<path d="M505.207 368.704H583.276V450.961H505.207V368.704Z" fill="#333333"/>
<path d="M517.47 361.462H570.841V396.985H517.47V361.462Z" fill="#333333"/>
<path d="M243.881 393.71H321.951V473.206H243.881V393.71Z" fill="#333333"/>
<path d="M256.144 386.639H309.515V420.956H256.144V386.639Z" fill="#333333"/>
<path d="M413.147 229.542H500.371V450.789H413.147V229.542Z" fill="#333333"/>
<path opacity="0.46" d="M474.981 239.544H496.053V243.511H474.981V239.544Z" fill="#E6E6E6"/>
<path opacity="0.34" d="M446.136 239.544H467.208V243.511H446.136V239.544Z" fill="#E6E6E6"/>
<path opacity="0.52" d="M417.465 239.544H438.537V243.511H417.465V239.544Z" fill="#E6E6E6"/>
<path opacity="0.54" d="M474.981 248.684H496.053V252.65H474.981V248.684Z" fill="#E6E6E6"/>
<path opacity="0.3" d="M446.136 248.684H467.208V252.65H446.136V248.684Z" fill="#E6E6E6"/>
<path opacity="0.06" d="M417.465 248.684H438.537V252.65H417.465V248.684Z" fill="#E6E6E6"/>
<path opacity="0.15" d="M474.981 257.823H496.053V261.79H474.981V257.823Z" fill="#E6E6E6"/>
<path opacity="0.42" d="M446.136 257.823H467.208V261.79H446.136V257.823Z" fill="#E6E6E6"/>
<path opacity="0.48" d="M417.465 257.823H438.537V261.79H417.465V257.823Z" fill="#E6E6E6"/>
<path opacity="0.18" d="M474.981 266.963H496.053V270.929H474.981V266.963Z" fill="#E6E6E6"/>
<path opacity="0.28" d="M417.465 266.963H438.537V270.929H417.465V266.963Z" fill="#E6E6E6"/>
<path opacity="0.29" d="M474.981 276.102H496.053V280.069H474.981V276.102Z" fill="#E6E6E6"/>
<path opacity="0.28" d="M446.136 276.102H467.208V280.069H446.136V276.102Z" fill="#E6E6E6"/>
<path opacity="0.56" d="M417.465 276.102H438.537V280.069H417.465V276.102Z" fill="#E6E6E6"/>
<path opacity="0.41" d="M474.981 285.242H496.053V289.208H474.981V285.242Z" fill="#E6E6E6"/>
<path opacity="0.16" d="M446.136 285.242H467.208V289.208H446.136V285.242Z" fill="#E6E6E6"/>
<path opacity="0.4" d="M417.465 285.242H438.537V289.208H417.465V285.242Z" fill="#E6E6E6"/>
<path opacity="0.1" d="M474.981 294.382H496.053V298.348H474.981V294.382Z" fill="#E6E6E6"/>
<path opacity="0.17" d="M446.136 294.382H467.208V298.348H446.136V294.382Z" fill="#E6E6E6"/>
<path opacity="0.08" d="M417.465 294.382H438.537V298.348H417.465V294.382Z" fill="#E6E6E6"/>
<path opacity="0.49" d="M474.981 303.521H496.053V307.487H474.981V303.521Z" fill="#E6E6E6"/>
<path opacity="0.58" d="M446.136 303.521H467.208V307.487H446.136V303.521Z" fill="#E6E6E6"/>
<path opacity="0.58" d="M417.465 303.521H438.537V307.487H417.465V303.521Z" fill="#E6E6E6"/>
<path opacity="0.26" d="M474.981 312.661H496.053V316.627H474.981V312.661Z" fill="#E6E6E6"/>
<path opacity="0.37" d="M446.136 312.661H467.208V316.627H446.136V312.661Z" fill="#E6E6E6"/>
<path opacity="0.34" d="M417.465 312.661H438.537V316.627H417.465V312.661Z" fill="#E6E6E6"/>
<path opacity="0.55" d="M474.981 321.8H496.053V325.766H474.981V321.8Z" fill="#E6E6E6"/>
<path opacity="0.12" d="M446.136 321.8H467.208V325.766H446.136V321.8Z" fill="#E6E6E6"/>
<path opacity="0.6" d="M417.465 321.8H438.537V325.766H417.465V321.8Z" fill="#E6E6E6"/>
<path opacity="0.02" d="M474.981 330.94H496.053V334.906H474.981V330.94Z" fill="#E6E6E6"/>
<path opacity="0.28" d="M446.136 330.94H467.208V334.906H446.136V330.94Z" fill="#E6E6E6"/>
<path opacity="0.21" d="M417.465 330.94H438.537V334.906H417.465V330.94Z" fill="#E6E6E6"/>
<path opacity="0.57" d="M474.981 340.079H496.053V344.046H474.981V340.079Z" fill="#E6E6E6"/>
<path opacity="0.38" d="M446.136 340.079H467.208V344.046H446.136V340.079Z" fill="#E6E6E6"/>
<path opacity="0.25" d="M417.465 340.079H438.537V344.046H417.465V340.079Z" fill="#E6E6E6"/>
<path opacity="0.15" d="M474.981 349.219H496.053V353.185H474.981V349.219Z" fill="#E6E6E6"/>
<path opacity="0.47" d="M446.136 349.219H467.208V353.185H446.136V349.219Z" fill="#E6E6E6"/>
<path opacity="0.3" d="M417.465 349.219H438.537V353.185H417.465V349.219Z" fill="#E6E6E6"/>
<path opacity="0.4" d="M474.981 358.358H496.053V362.325H474.981V358.358Z" fill="#E6E6E6"/>
<path opacity="0.39" d="M446.136 358.358H467.208V362.325H446.136V358.358Z" fill="#E6E6E6"/>
<path opacity="0.24" d="M417.465 358.358H438.537V362.325H417.465V358.358Z" fill="#E6E6E6"/>
<path opacity="0.46" d="M474.981 367.498H496.053V371.464H474.981V367.498Z" fill="#E6E6E6"/>
<path opacity="0.22" d="M446.136 367.498H467.208V371.464H446.136V367.498Z" fill="#E6E6E6"/>
<path opacity="0.11" d="M417.465 367.498H438.537V371.464H417.465V367.498Z" fill="#E6E6E6"/>
<path opacity="0.11" d="M446.136 376.638H467.208V380.604H446.136V376.638Z" fill="#E6E6E6"/>
<path opacity="0.02" d="M417.465 376.638H438.537V380.604H417.465V376.638Z" fill="#E6E6E6"/>
<path opacity="0.27" d="M474.981 385.777H496.053V389.744H474.981V385.777Z" fill="#E6E6E6"/>
<path opacity="0.21" d="M446.136 385.777H467.208V389.744H446.136V385.777Z" fill="#E6E6E6"/>
<path opacity="0.49" d="M417.465 385.777H438.537V389.744H417.465V385.777Z" fill="#E6E6E6"/>
<path opacity="0.6" d="M474.981 394.917H496.053V398.883H474.981V394.917Z" fill="#E6E6E6"/>
<path opacity="0.31" d="M446.136 394.917H467.208V398.883H446.136V394.917Z" fill="#E6E6E6"/>
<path opacity="0.22" d="M417.465 394.917H438.537V398.883H417.465V394.917Z" fill="#E6E6E6"/>
<path opacity="0.54" d="M474.981 404.056H496.053V408.023H474.981V404.056Z" fill="#E6E6E6"/>
<path opacity="0.6" d="M446.136 404.056H467.208V408.023H446.136V404.056Z" fill="#E6E6E6"/>
<path opacity="0.08" d="M417.465 404.056H438.537V408.023H417.465V404.056Z" fill="#E6E6E6"/>
<path opacity="0.55" d="M446.136 413.196H467.208V417.162H446.136V413.196Z" fill="#E6E6E6"/>
<path d="M417.465 413.196H438.537V417.162H417.465V413.196Z" fill="#E6E6E6"/>
<path opacity="0.6" d="M473.599 239.544H474.981V417.162H473.599V239.544Z" fill="#E6E6E6"/>
<path opacity="0.6" d="M438.537 239.544H439.919V417.162H438.537V239.544Z" fill="#E6E6E6"/>
<path d="M369.621 229.542H413.147V450.789H369.621V229.542Z" fill="#4D4D4D"/>
<path opacity="0.69" d="M376.012 239.544H408.829V243.511H376.012V239.544Z" fill="#E6E6E6"/>
<path opacity="0.79" d="M376.012 248.684H408.829V252.65H376.012V248.684Z" fill="#E6E6E6"/>
<path opacity="0.19" d="M376.012 257.823H408.829V261.79H376.012V257.823Z" fill="#E6E6E6"/>
<path opacity="0.88" d="M376.012 266.963H408.829V270.929H376.012V266.963Z" fill="#E6E6E6"/>
<path opacity="0.5" d="M376.012 276.102H408.829V280.069H376.012V276.102Z" fill="#E6E6E6"/>
<path opacity="0.25" d="M376.012 285.242H408.829V289.208H376.012V285.242Z" fill="#E6E6E6"/>
<path opacity="0.91" d="M376.012 294.382H408.829V298.348H376.012V294.382Z" fill="#E6E6E6"/>
<path opacity="0.02" d="M376.012 303.521H408.829V307.487H376.012V303.521Z" fill="#E6E6E6"/>
<path opacity="0.53" d="M376.012 312.661H408.829V316.627H376.012V312.661Z" fill="#E6E6E6"/>
<path opacity="0.65" d="M376.012 321.8H408.829V325.766H376.012V321.8Z" fill="#E6E6E6"/>
<path d="M376.012 330.94H408.829V334.906H376.012V330.94Z" fill="#E6E6E6"/>
<path opacity="0.8" d="M376.012 340.079H408.829V344.046H376.012V340.079Z" fill="#E6E6E6"/>
<path opacity="0.82" d="M376.012 349.219H408.829V353.185H376.012V349.219Z" fill="#E6E6E6"/>
<path opacity="0.75" d="M376.012 358.358H408.829V362.325H376.012V358.358Z" fill="#E6E6E6"/>
<path opacity="0.31" d="M376.012 367.498H408.829V371.464H376.012V367.498Z" fill="#E6E6E6"/>
<path opacity="0.22" d="M376.012 376.638H408.829V380.604H376.012V376.638Z" fill="#E6E6E6"/>
<path opacity="0.43" d="M376.012 385.777H408.829V389.744H376.012V385.777Z" fill="#E6E6E6"/>
<path opacity="0.68" d="M376.012 394.917H408.829V398.883H376.012V394.917Z" fill="#E6E6E6"/>
<path opacity="0.38" d="M376.012 404.056H408.829V408.023H376.012V404.056Z" fill="#E6E6E6"/>
<path opacity="0.84" d="M376.012 413.196H408.829V417.162H376.012V413.196Z" fill="#E6E6E6"/>
<path d="M484.999 217.816V229.542H428.519V217.816H484.999ZM472.39 225.749H478.262V221.782H472.39V225.749ZM463.236 225.749H468.936V221.782H463.236V225.749ZM453.909 225.749H459.609V221.782H453.909V225.749ZM444.582 225.749H450.454V221.782H444.582V225.749ZM435.255 225.749H441.128V221.782H435.255V225.749Z" fill="#333333"/>
<path d="M418.156 221.782H419.71V225.749H418.156V221.782Z" fill="#333333"/>
<path d="M428.519 217.816V229.542H401.92V217.816H428.519ZM418.156 225.749H423.856V221.782H418.156V225.749ZM405.893 225.749H411.592V221.782H405.893V225.749Z" fill="#4D4D4D"/>
<path d="M406.065 221.782H407.62V225.749H406.065V221.782Z" fill="#333333"/>
<path d="M401.575 465.79H519.024L401.575 379.223V465.79Z" fill="#333333"/>
<path d="M576.713 182.637H586.213V218.678H576.713V182.637Z" fill="#4D4D4D"/>
<path d="M586.04 182.637H595.712V218.678H586.04V182.637Z" fill="#333333"/>
<path d="M566.868 182.637H576.54V218.678H566.868V182.637Z" fill="#666666"/>
<path d="M538.887 243.338H565.832V448.892H538.887V243.338Z" fill="#666666"/>
<path d="M597.439 243.338H620.929V448.892H597.439V243.338Z" fill="#333333"/>
<path d="M565.832 243.338H597.612V448.892H565.832V243.338Z" fill="#4D4D4D"/>
<path opacity="0.6" d="M614.193 249.373H617.648V446.132H614.193V249.373Z" fill="#E6E6E6"/>
<path opacity="0.6" d="M607.457 249.373H610.912V446.132H607.457V249.373Z" fill="#E6E6E6"/>
<path opacity="0.6" d="M600.721 249.373H604.175V446.132H600.721V249.373Z" fill="#E6E6E6"/>
<path d="M560.477 249.373H563.932V446.132H560.477V249.373Z" fill="#E6E6E6"/>
<path d="M553.741 249.373H557.196V446.132H553.741V249.373Z" fill="#E6E6E6"/>
<path d="M540.615 249.373H544.069V446.132H540.615V249.373Z" fill="#E6E6E6"/>
<path d="M547.005 249.373H550.46V446.132H547.005V249.373Z" fill="#E6E6E6"/>
<path opacity="0.8" d="M593.64 446.132H569.804V249.373H593.64V446.132ZM589.84 252.822H573.604V442.684H589.84V252.822Z" fill="#E6E6E6"/>
<path opacity="0.8" d="M586.731 439.407H576.54V255.926H586.731V439.407ZM583.276 260.237H582.067H581.376H579.995V435.096H581.376H582.067H583.276V260.237Z" fill="#E6E6E6"/>
<path opacity="0.8" d="M581.376 260.237H582.067V435.096H581.376V260.237Z" fill="#E6E6E6"/>
<path d="M569.459 207.297H593.294V243.338H569.459V207.297Z" fill="#4D4D4D"/>
<path d="M569.459 207.297H593.294V243.338H569.459V207.297Z" fill="#4D4D4D"/>
<path d="M545.623 207.297H569.459V243.338H545.623V207.297Z" fill="#666666"/>
<path d="M593.294 207.297H617.13V243.338H593.294V207.297Z" fill="#333333"/>
<path d="M567.041 182.637H595.712L586.213 189.19H576.54L567.041 182.637Z" fill="#808080"/>
<path d="M54.5796 169.359H68.3971V209.884H54.5796V169.359Z" fill="#4D4D4D"/>
<path d="M68.5701 169.359H82.3877V209.884H68.5701V169.359Z" fill="#333333"/>
<path d="M40.7618 169.359H54.5796V209.884H40.7618V169.359Z" fill="#666666"/>
<path d="M0 237.82H39.0347V469.413H0V237.82Z" fill="#666666"/>
<path d="M84.9785 237.82H118.832V469.413H84.9785V237.82Z" fill="#333333"/>
<path d="M39.0348 237.82H84.9784V469.413H39.0348V237.82Z" fill="#4D4D4D"/>
<path opacity="0.4" d="M109.159 244.717H114.168V466.308H109.159V244.717Z" fill="#E6E6E6"/>
<path opacity="0.4" d="M99.3141 244.717H104.323V466.308H99.3141V244.717Z" fill="#E6E6E6"/>
<path opacity="0.4" d="M89.469 244.717H94.478V466.308H89.469V244.717Z" fill="#E6E6E6"/>
<path d="M31.2623 244.717H36.2712V466.308H31.2623V244.717Z" fill="#E6E6E6"/>
<path d="M21.4172 244.717H26.4263V466.308H21.4172V244.717Z" fill="#E6E6E6"/>
<path d="M2.59082 244.717H7.59973V466.308H2.59082V244.717Z" fill="#E6E6E6"/>
<path d="M11.7449 244.717H16.7539V466.308H11.7449V244.717Z" fill="#E6E6E6"/>
<path d="M79.106 466.308H44.5618V244.717H79.106V466.308ZM73.7516 248.511H50.2615V462.514H73.7516V248.511Z" fill="#E6E6E6"/>
<path d="M69.4336 458.893H54.5796V252.133H69.4336V458.893ZM64.252 256.961H62.352H61.4884H59.5885V454.065H61.4884H62.352H64.252V256.961Z" fill="#E6E6E6"/>
<path d="M61.4884 256.961H62.3519V454.065H61.4884V256.961Z" fill="#E6E6E6"/>
<path d="M44.2163 197.295H78.7605V237.82H44.2163V197.295Z" fill="#4D4D4D"/>
<path d="M44.2163 197.295H78.7605V237.82H44.2163V197.295Z" fill="#4D4D4D"/>
<path d="M9.67236 197.295H44.2163V237.82H9.67236V197.295Z" fill="#666666"/>
<path d="M78.5876 197.295H113.132V237.82H78.5876V197.295Z" fill="#333333"/>
<path d="M40.5894 169.359H82.3877L68.3973 176.774H54.5797L40.5894 169.359Z" fill="#808080"/>
<path d="M154.239 269.894H248.717V301.278H154.239V269.894Z" fill="#E6E6E6"/>
<path d="M211.582 269.894H248.717V301.278H211.582V269.894Z" fill="#B3B3B3"/>
<path d="M211.582 301.451H284.989V453.892H211.582V301.451Z" fill="#333333"/>
<path d="M96.8961 301.451H211.582V453.892H96.8961V301.451Z" fill="#4D4D4D"/>
<path d="M220.564 285.931H277.043V301.451H220.564V285.931Z" fill="#333333"/>
<path d="M113.995 285.931H194.656V301.451H113.995V285.931Z" fill="#4D4D4D"/>
<path d="M179.284 257.995H211.582V269.893H179.284V257.995Z" fill="#E6E6E6"/>
<path d="M195.519 245.924H211.582V257.823H195.519V245.924Z" fill="#4D4D4D"/>
<path d="M211.755 245.924H227.818V257.823H211.755V245.924Z" fill="#333333"/>
<path d="M211.582 257.995H236.281V269.893H211.582V257.995Z" fill="#B3B3B3"/>
<path d="M212.619 245.924L211.582 218.333L210.719 245.924H212.619Z" fill="#333333"/>
<path opacity="0.12" d="M261.844 307.659H267.889V313.694H261.844V307.659Z" fill="white"/>
<path opacity="0.25" d="M253.553 307.659H259.599V313.694H253.553V307.659Z" fill="white"/>
<path opacity="0.36" d="M245.263 307.659H251.308V313.694H245.263V307.659Z" fill="white"/>
<path opacity="0.12" d="M236.972 307.659H243.018V313.694H236.972V307.659Z" fill="white"/>
<path opacity="0.14" d="M228.682 307.659H234.727V313.694H228.682V307.659Z" fill="white"/>
<path opacity="0.28" d="M261.844 315.591H267.889V321.627H261.844V315.591Z" fill="white"/>
<path opacity="0.4" d="M253.553 315.591H259.599V321.627H253.553V315.591Z" fill="white"/>
<path opacity="0.16" d="M245.263 315.591H251.308V321.627H245.263V315.591Z" fill="white"/>
<path opacity="0.17" d="M228.682 315.591H234.727V321.627H228.682V315.591Z" fill="white"/>
<path opacity="0.27" d="M261.844 323.524H267.889V329.559H261.844V323.524Z" fill="white"/>
<path opacity="0.45" d="M253.553 323.524H259.599V329.559H253.553V323.524Z" fill="white"/>
<path opacity="0.45" d="M245.263 323.524H251.308V329.559H245.263V323.524Z" fill="white"/>
<path opacity="0.48" d="M236.972 323.524H243.018V329.559H236.972V323.524Z" fill="white"/>
<path opacity="0.25" d="M228.682 323.524H234.727V329.559H228.682V323.524Z" fill="white"/>
<path opacity="0.28" d="M261.844 331.456H267.889V337.492H261.844V331.456Z" fill="white"/>
<path opacity="0.13" d="M253.553 331.456H259.599V337.492H253.553V331.456Z" fill="white"/>
<path opacity="0.07" d="M245.263 331.456H251.308V337.492H245.263V331.456Z" fill="white"/>
<path opacity="0.39" d="M236.972 331.456H243.018V337.492H236.972V331.456Z" fill="white"/>
<path opacity="0.47" d="M228.682 331.456H234.727V337.492H228.682V331.456Z" fill="white"/>
<path opacity="0.28" d="M261.844 339.388H267.889V345.424H261.844V339.388Z" fill="white"/>
<path opacity="0.2" d="M253.553 339.388H259.599V345.424H253.553V339.388Z" fill="white"/>
<path opacity="0.04" d="M245.263 339.388H251.308V345.424H245.263V339.388Z" fill="white"/>
<path opacity="0.43" d="M236.972 339.388H243.018V345.424H236.972V339.388Z" fill="white"/>
<path opacity="0.48" d="M228.682 339.388H234.727V345.424H228.682V339.388Z" fill="white"/>
<path opacity="0.28" d="M261.844 347.321H267.889V353.357H261.844V347.321Z" fill="white"/>
<path opacity="0.19" d="M253.553 347.321H259.599V353.357H253.553V347.321Z" fill="white"/>
<path opacity="0.01" d="M245.263 347.321H251.308V353.357H245.263V347.321Z" fill="white"/>
<path opacity="0.27" d="M236.972 347.321H243.018V353.357H236.972V347.321Z" fill="white"/>
<path opacity="0.24" d="M228.682 347.321H234.727V353.357H228.682V347.321Z" fill="white"/>
<path opacity="0.07" d="M261.844 355.426H267.889V361.461H261.844V355.426Z" fill="white"/>
<path opacity="0.25" d="M253.553 355.426H259.599V361.461H253.553V355.426Z" fill="white"/>
<path opacity="0.26" d="M245.263 355.426H251.308V361.461H245.263V355.426Z" fill="white"/>
<path opacity="0.39" d="M236.972 355.426H243.018V361.461H236.972V355.426Z" fill="white"/>
<path opacity="0.22" d="M228.682 355.426H234.727V361.461H228.682V355.426Z" fill="white"/>
<path opacity="0.15" d="M261.844 363.358H267.889V369.394H261.844V363.358Z" fill="white"/>
<path opacity="0.23" d="M253.553 363.358H259.599V369.394H253.553V363.358Z" fill="white"/>
<path opacity="0.05" d="M245.263 363.358H251.308V369.394H245.263V363.358Z" fill="white"/>
<path opacity="0.2" d="M236.972 363.358H243.018V369.394H236.972V363.358Z" fill="white"/>
<path opacity="0.31" d="M228.682 363.358H234.727V369.394H228.682V363.358Z" fill="white"/>
<path opacity="0.15" d="M261.844 371.291H267.889V377.326H261.844V371.291Z" fill="white"/>
<path opacity="0.33" d="M253.553 371.291H259.599V377.326H253.553V371.291Z" fill="white"/>
<path opacity="0.46" d="M245.263 371.291H251.308V377.326H245.263V371.291Z" fill="white"/>
<path opacity="0.25" d="M236.972 371.291H243.018V377.326H236.972V371.291Z" fill="white"/>
<path opacity="0.43" d="M228.682 371.291H234.727V377.326H228.682V371.291Z" fill="white"/>
<path opacity="0.4" d="M261.844 379.223H267.889V385.259H261.844V379.223Z" fill="white"/>
<path opacity="0.39" d="M253.553 379.223H259.599V385.259H253.553V379.223Z" fill="white"/>
<path opacity="0.01" d="M245.263 379.223H251.308V385.259H245.263V379.223Z" fill="white"/>
<path opacity="0.12" d="M236.972 379.223H243.018V385.259H236.972V379.223Z" fill="white"/>
<path opacity="0.07" d="M228.682 379.223H234.727V385.259H228.682V379.223Z" fill="white"/>
<path opacity="0.07" d="M261.844 387.156H267.889V393.191H261.844V387.156Z" fill="white"/>
<path opacity="0.02" d="M253.553 387.156H259.599V393.191H253.553V387.156Z" fill="white"/>
<path opacity="0.12" d="M245.263 387.156H251.308V393.191H245.263V387.156Z" fill="white"/>
<path opacity="0.23" d="M236.972 387.156H243.018V393.191H236.972V387.156Z" fill="white"/>
<path opacity="0.26" d="M228.682 387.156H234.727V393.191H228.682V387.156Z" fill="white"/>
<path opacity="0.27" d="M261.844 395.088H267.889V401.124H261.844V395.088Z" fill="white"/>
<path opacity="0.38" d="M253.553 395.088H259.599V401.124H253.553V395.088Z" fill="white"/>
<path opacity="0.05" d="M245.263 395.088H251.308V401.124H245.263V395.088Z" fill="white"/>
<path opacity="0.45" d="M236.972 395.088H243.018V401.124H236.972V395.088Z" fill="white"/>
<path opacity="0.15" d="M228.682 395.088H234.727V401.124H228.682V395.088Z" fill="white"/>
<path opacity="0.06" d="M261.844 403.021H267.889V409.056H261.844V403.021Z" fill="white"/>
<path opacity="0.47" d="M253.553 403.021H259.599V409.056H253.553V403.021Z" fill="white"/>
<path opacity="0.15" d="M245.263 403.021H251.308V409.056H245.263V403.021Z" fill="white"/>
<path opacity="0.44" d="M236.972 403.021H243.018V409.056H236.972V403.021Z" fill="white"/>
<path opacity="0.14" d="M228.682 403.021H234.727V409.056H228.682V403.021Z" fill="white"/>
<path opacity="0.15" d="M261.844 410.953H267.889V416.989H261.844V410.953Z" fill="white"/>
<path opacity="0.43" d="M253.553 410.953H259.599V416.989H253.553V410.953Z" fill="white"/>
<path opacity="0.07" d="M245.263 410.953H251.308V416.989H245.263V410.953Z" fill="white"/>
<path opacity="0.47" d="M236.972 410.953H243.018V416.989H236.972V410.953Z" fill="white"/>
<path opacity="0.11" d="M228.682 410.953H234.727V416.989H228.682V410.953Z" fill="white"/>
<path opacity="0.07" d="M261.844 418.885H267.889V424.921H261.844V418.885Z" fill="white"/>
<path opacity="0.34" d="M253.553 418.885H259.599V424.921H253.553V418.885Z" fill="white"/>
<path opacity="0.5" d="M245.263 418.885H251.308V424.921H245.263V418.885Z" fill="white"/>
<path opacity="0.36" d="M236.972 418.885H243.018V424.921H236.972V418.885Z" fill="white"/>
<path opacity="0.34" d="M228.682 418.885H234.727V424.921H228.682V418.885Z" fill="white"/>
<path opacity="0.47" d="M261.844 426.818H267.889V432.854H261.844V426.818Z" fill="white"/>
<path opacity="0.41" d="M253.553 426.818H259.599V432.854H253.553V426.818Z" fill="white"/>
<path opacity="0.3" d="M245.263 426.818H251.308V432.854H245.263V426.818Z" fill="white"/>
<path opacity="0.33" d="M236.972 426.818H243.018V432.854H236.972V426.818Z" fill="white"/>
<path opacity="0.12" d="M228.682 426.818H234.727V432.854H228.682V426.818Z" fill="white"/>
<path opacity="0.24" d="M261.844 434.75H267.889V440.786H261.844V434.75Z" fill="white"/>
<path opacity="0.29" d="M253.553 434.75H259.599V440.786H253.553V434.75Z" fill="white"/>
<path opacity="0.27" d="M236.972 434.75H243.018V440.786H236.972V434.75Z" fill="white"/>
<path opacity="0.04" d="M228.682 434.75H234.727V440.786H228.682V434.75Z" fill="white"/>
<path opacity="0.11" d="M261.844 442.683H267.889V448.718H261.844V442.683Z" fill="white"/>
<path opacity="0.05" d="M253.553 442.683H259.599V448.718H253.553V442.683Z" fill="white"/>
<path opacity="0.04" d="M245.263 442.683H251.308V448.718H245.263V442.683Z" fill="white"/>
<path opacity="0.02" d="M236.972 442.683H243.018V448.718H236.972V442.683Z" fill="white"/>
<path opacity="0.3" d="M191.547 307.659H197.592V313.694H191.547V307.659Z" fill="white"/>
<path opacity="0.72" d="M183.602 307.659H189.647V313.694H183.602V307.659Z" fill="white"/>
<path opacity="0.7" d="M175.484 307.659H181.529V313.694H175.484V307.659Z" fill="white"/>
<path opacity="0.52" d="M167.366 307.659H173.411V313.694H167.366V307.659Z" fill="white"/>
<path opacity="0.2" d="M159.248 307.659H165.294V313.694H159.248V307.659Z" fill="white"/>
<path opacity="0.32" d="M151.303 307.659H157.348V313.694H151.303V307.659Z" fill="white"/>
<path opacity="0.13" d="M143.185 307.659H149.23V313.694H143.185V307.659Z" fill="white"/>
<path opacity="0.38" d="M135.067 307.659H141.113V313.694H135.067V307.659Z" fill="white"/>
<path opacity="0.61" d="M127.122 307.659H133.167V313.694H127.122V307.659Z" fill="white"/>
<path d="M119.004 307.659H125.05V313.694H119.004V307.659Z" fill="white"/>
<path opacity="0.91" d="M110.887 307.659H116.932V313.694H110.887V307.659Z" fill="white"/>
<path opacity="0.66" d="M191.547 315.591H197.592V321.627H191.547V315.591Z" fill="white"/>
<path opacity="0.31" d="M183.602 315.591H189.647V321.627H183.602V315.591Z" fill="white"/>
<path opacity="0.95" d="M175.484 315.591H181.529V321.627H175.484V315.591Z" fill="white"/>
<path opacity="0.7" d="M167.366 315.591H173.411V321.627H167.366V315.591Z" fill="white"/>
<path opacity="0.12" d="M159.248 315.591H165.294V321.627H159.248V315.591Z" fill="white"/>
<path opacity="0.24" d="M151.303 315.591H157.348V321.627H151.303V315.591Z" fill="white"/>
<path opacity="0.66" d="M143.185 315.591H149.23V321.627H143.185V315.591Z" fill="white"/>
<path opacity="0.71" d="M135.067 315.591H141.113V321.627H135.067V315.591Z" fill="white"/>
<path opacity="0.42" d="M127.122 315.591H133.167V321.627H127.122V315.591Z" fill="white"/>
<path opacity="0.09" d="M119.004 315.591H125.05V321.627H119.004V315.591Z" fill="white"/>
<path opacity="0.32" d="M110.887 315.591H116.932V321.627H110.887V315.591Z" fill="white"/>
<path opacity="0.65" d="M191.547 323.524H197.592V329.559H191.547V323.524Z" fill="white"/>
<path d="M183.602 323.524H189.647V329.559H183.602V323.524Z" fill="white"/>
<path d="M175.484 323.524H181.529V329.559H175.484V323.524Z" fill="white"/>
<path opacity="0.71" d="M167.366 323.524H173.411V329.559H167.366V323.524Z" fill="white"/>
<path opacity="0.2" d="M159.248 323.524H165.294V329.559H159.248V323.524Z" fill="white"/>
<path opacity="0.19" d="M151.303 323.524H157.348V329.559H151.303V323.524Z" fill="white"/>
<path opacity="0.62" d="M143.185 323.524H149.23V329.559H143.185V323.524Z" fill="white"/>
<path opacity="0.93" d="M135.067 323.524H141.113V329.559H135.067V323.524Z" fill="white"/>
<path opacity="0.56" d="M127.122 323.524H133.167V329.559H127.122V323.524Z" fill="white"/>
<path opacity="0.57" d="M119.004 323.524H125.05V329.559H119.004V323.524Z" fill="white"/>
<path opacity="0.52" d="M110.887 323.524H116.932V329.559H110.887V323.524Z" fill="white"/>
<path opacity="0.74" d="M191.547 331.456H197.592V337.492H191.547V331.456Z" fill="white"/>
<path opacity="0.56" d="M183.602 331.456H189.647V337.492H183.602V331.456Z" fill="white"/>
<path opacity="0.78" d="M175.484 331.456H181.529V337.492H175.484V331.456Z" fill="white"/>
<path opacity="0.41" d="M167.366 331.456H173.411V337.492H167.366V331.456Z" fill="white"/>
<path opacity="0.14" d="M159.248 331.456H165.294V337.492H159.248V331.456Z" fill="white"/>
<path opacity="0.28" d="M151.303 331.456H157.348V337.492H151.303V331.456Z" fill="white"/>
<path opacity="0.36" d="M143.185 331.456H149.23V337.492H143.185V331.456Z" fill="white"/>
<path opacity="0.14" d="M135.067 331.456H141.113V337.492H135.067V331.456Z" fill="white"/>
<path opacity="0.5" d="M127.122 331.456H133.167V337.492H127.122V331.456Z" fill="white"/>
<path opacity="0.98" d="M119.004 331.456H125.05V337.492H119.004V331.456Z" fill="white"/>
<path opacity="0.59" d="M110.887 331.456H116.932V337.492H110.887V331.456Z" fill="white"/>
<path opacity="0.07" d="M191.547 339.388H197.592V345.424H191.547V339.388Z" fill="white"/>
<path opacity="0.1" d="M183.602 339.388H189.647V345.424H183.602V339.388Z" fill="white"/>
<path opacity="0.88" d="M175.484 339.388H181.529V345.424H175.484V339.388Z" fill="white"/>
<path opacity="0.68" d="M167.366 339.388H173.411V345.424H167.366V339.388Z" fill="white"/>
<path opacity="0.81" d="M159.248 339.388H165.294V345.424H159.248V339.388Z" fill="white"/>
<path opacity="0.62" d="M151.303 339.388H157.348V345.424H151.303V339.388Z" fill="white"/>
<path opacity="0.97" d="M143.185 339.388H149.23V345.424H143.185V339.388Z" fill="white"/>
<path opacity="0.81" d="M135.067 339.388H141.113V345.424H135.067V339.388Z" fill="white"/>
<path opacity="0.79" d="M127.122 339.388H133.167V345.424H127.122V339.388Z" fill="white"/>
<path opacity="0.03" d="M119.004 339.388H125.05V345.424H119.004V339.388Z" fill="white"/>
<path opacity="0.95" d="M110.887 339.388H116.932V345.424H110.887V339.388Z" fill="white"/>
<path opacity="0.62" d="M191.547 347.321H197.592V353.357H191.547V347.321Z" fill="white"/>
<path opacity="0.22" d="M183.602 347.321H189.647V353.357H183.602V347.321Z" fill="white"/>
<path opacity="0.42" d="M175.484 347.321H181.529V353.357H175.484V347.321Z" fill="white"/>
<path opacity="0.56" d="M167.366 347.321H173.411V353.357H167.366V347.321Z" fill="white"/>
<path opacity="0.03" d="M159.248 347.321H165.294V353.357H159.248V347.321Z" fill="white"/>
<path opacity="0.64" d="M151.303 347.321H157.348V353.357H151.303V347.321Z" fill="white"/>
<path opacity="0.82" d="M143.185 347.321H149.23V353.357H143.185V347.321Z" fill="white"/>
<path opacity="0.52" d="M135.067 347.321H141.113V353.357H135.067V347.321Z" fill="white"/>
<path opacity="0.46" d="M127.122 347.321H133.167V353.357H127.122V347.321Z" fill="white"/>
<path opacity="0.27" d="M119.004 347.321H125.05V353.357H119.004V347.321Z" fill="white"/>
<path opacity="0.46" d="M110.887 347.321H116.932V353.357H110.887V347.321Z" fill="white"/>
<path opacity="0.66" d="M191.547 355.426H197.592V361.461H191.547V355.426Z" fill="white"/>
<path opacity="0.7" d="M183.602 355.426H189.647V361.461H183.602V355.426Z" fill="white"/>
<path opacity="0.94" d="M175.484 355.426H181.529V361.461H175.484V355.426Z" fill="white"/>
<path opacity="0.5" d="M167.366 355.426H173.411V361.461H167.366V355.426Z" fill="white"/>
<path opacity="0.12" d="M159.248 355.426H165.294V361.461H159.248V355.426Z" fill="white"/>
<path opacity="0.36" d="M151.303 355.426H157.348V361.461H151.303V355.426Z" fill="white"/>
<path opacity="0.51" d="M143.185 355.426H149.23V361.461H143.185V355.426Z" fill="white"/>
<path opacity="0.37" d="M135.067 355.426H141.113V361.461H135.067V355.426Z" fill="white"/>
<path opacity="0.66" d="M127.122 355.426H133.167V361.461H127.122V355.426Z" fill="white"/>
<path opacity="0.42" d="M119.004 355.426H125.05V361.461H119.004V355.426Z" fill="white"/>
<path opacity="0.5" d="M110.887 355.426H116.932V361.461H110.887V355.426Z" fill="white"/>
<path opacity="0.52" d="M191.547 363.358H197.592V369.394H191.547V363.358Z" fill="white"/>
<path opacity="0.61" d="M183.602 363.358H189.647V369.394H183.602V363.358Z" fill="white"/>
<path opacity="0.84" d="M175.484 363.358H181.529V369.394H175.484V363.358Z" fill="white"/>
<path opacity="0.89" d="M167.366 363.358H173.411V369.394H167.366V363.358Z" fill="white"/>
<path opacity="0.33" d="M159.248 363.358H165.294V369.394H159.248V363.358Z" fill="white"/>
<path opacity="0.25" d="M151.303 363.358H157.348V369.394H151.303V363.358Z" fill="white"/>
<path opacity="0.95" d="M143.185 363.358H149.23V369.394H143.185V363.358Z" fill="white"/>
<path opacity="0.09" d="M135.067 363.358H141.113V369.394H135.067V363.358Z" fill="white"/>
<path opacity="0.44" d="M127.122 363.358H133.167V369.394H127.122V363.358Z" fill="white"/>
<path opacity="0.51" d="M119.004 363.358H125.05V369.394H119.004V363.358Z" fill="white"/>
<path opacity="0.97" d="M110.887 363.358H116.932V369.394H110.887V363.358Z" fill="white"/>
<path opacity="0.26" d="M191.547 371.291H197.592V377.326H191.547V371.291Z" fill="white"/>
<path opacity="0.92" d="M183.602 371.291H189.647V377.326H183.602V371.291Z" fill="white"/>
<path opacity="0.33" d="M175.484 371.291H181.529V377.326H175.484V371.291Z" fill="white"/>
<path opacity="0.23" d="M167.366 371.291H173.411V377.326H167.366V371.291Z" fill="white"/>
<path opacity="0.42" d="M159.248 371.291H165.294V377.326H159.248V371.291Z" fill="white"/>
<path opacity="0.57" d="M151.303 371.291H157.348V377.326H151.303V371.291Z" fill="white"/>
<path opacity="0.73" d="M143.185 371.291H149.23V377.326H143.185V371.291Z" fill="white"/>
<path opacity="0.87" d="M135.067 371.291H141.113V377.326H135.067V371.291Z" fill="white"/>
<path opacity="0.22" d="M127.122 371.291H133.167V377.326H127.122V371.291Z" fill="white"/>
<path opacity="0.89" d="M119.004 371.291H125.05V377.326H119.004V371.291Z" fill="white"/>
<path opacity="0.73" d="M110.887 371.291H116.932V377.326H110.887V371.291Z" fill="white"/>
<path opacity="0.35" d="M191.547 379.223H197.592V385.259H191.547V379.223Z" fill="white"/>
<path opacity="0.81" d="M183.602 379.223H189.647V385.259H183.602V379.223Z" fill="white"/>
<path opacity="0.56" d="M175.484 379.223H181.529V385.259H175.484V379.223Z" fill="white"/>
<path opacity="0.81" d="M167.366 379.223H173.411V385.259H167.366V379.223Z" fill="white"/>
<path opacity="0.87" d="M159.248 379.223H165.294V385.259H159.248V379.223Z" fill="white"/>
<path opacity="0.39" d="M151.303 379.223H157.348V385.259H151.303V379.223Z" fill="white"/>
<path opacity="0.31" d="M143.185 379.223H149.23V385.259H143.185V379.223Z" fill="white"/>
<path opacity="0.98" d="M135.067 379.223H141.113V385.259H135.067V379.223Z" fill="white"/>
<path opacity="0.17" d="M127.122 379.223H133.167V385.259H127.122V379.223Z" fill="white"/>
<path opacity="0.06" d="M119.004 379.223H125.05V385.259H119.004V379.223Z" fill="white"/>
<path opacity="0.57" d="M110.887 379.223H116.932V385.259H110.887V379.223Z" fill="white"/>
<path opacity="0.67" d="M191.547 387.156H197.592V393.191H191.547V387.156Z" fill="white"/>
<path opacity="0.83" d="M183.602 387.156H189.647V393.191H183.602V387.156Z" fill="white"/>
<path opacity="0.99" d="M175.484 387.156H181.529V393.191H175.484V387.156Z" fill="white"/>
<path opacity="0.62" d="M167.366 387.156H173.411V393.191H167.366V387.156Z" fill="white"/>
<path opacity="0.87" d="M159.248 387.156H165.294V393.191H159.248V387.156Z" fill="white"/>
<path opacity="0.14" d="M151.303 387.156H157.348V393.191H151.303V387.156Z" fill="white"/>
<path opacity="0.12" d="M143.185 387.156H149.23V393.191H143.185V387.156Z" fill="white"/>
<path opacity="0.11" d="M135.067 387.156H141.113V393.191H135.067V387.156Z" fill="white"/>
<path opacity="0.39" d="M127.122 387.156H133.167V393.191H127.122V387.156Z" fill="white"/>
<path opacity="0.58" d="M119.004 387.156H125.05V393.191H119.004V387.156Z" fill="white"/>
<path opacity="0.54" d="M110.887 387.156H116.932V393.191H110.887V387.156Z" fill="white"/>
<path opacity="0.99" d="M191.547 395.088H197.592V401.124H191.547V395.088Z" fill="white"/>
<path opacity="0.28" d="M183.602 395.088H189.647V401.124H183.602V395.088Z" fill="white"/>
<path opacity="0.78" d="M175.484 395.088H181.529V401.124H175.484V395.088Z" fill="white"/>
<path opacity="0.65" d="M167.366 395.088H173.411V401.124H167.366V395.088Z" fill="white"/>
<path opacity="0.32" d="M159.248 395.088H165.294V401.124H159.248V395.088Z" fill="white"/>
<path opacity="0.55" d="M151.303 395.088H157.348V401.124H151.303V395.088Z" fill="white"/>
<path opacity="0.4" d="M143.185 395.088H149.23V401.124H143.185V395.088Z" fill="white"/>
<path opacity="0.22" d="M135.067 395.088H141.113V401.124H135.067V395.088Z" fill="white"/>
<path opacity="0.87" d="M127.122 395.088H133.167V401.124H127.122V395.088Z" fill="white"/>
<path opacity="0.02" d="M119.004 395.088H125.05V401.124H119.004V395.088Z" fill="white"/>
<path opacity="0.39" d="M110.887 395.088H116.932V401.124H110.887V395.088Z" fill="white"/>
<path opacity="0.89" d="M191.547 403.021H197.592V409.056H191.547V403.021Z" fill="white"/>
<path opacity="0.97" d="M183.602 403.021H189.647V409.056H183.602V403.021Z" fill="white"/>
<path opacity="0.79" d="M175.484 403.021H181.529V409.056H175.484V403.021Z" fill="white"/>
<path opacity="0.41" d="M167.366 403.021H173.411V409.056H167.366V403.021Z" fill="white"/>
<path opacity="0.13" d="M159.248 403.021H165.294V409.056H159.248V403.021Z" fill="white"/>
<path opacity="0.9" d="M151.303 403.021H157.348V409.056H151.303V403.021Z" fill="white"/>
<path opacity="0.98" d="M143.185 403.021H149.23V409.056H143.185V403.021Z" fill="white"/>
<path opacity="0.67" d="M135.067 403.021H141.113V409.056H135.067V403.021Z" fill="white"/>
<path opacity="0.65" d="M127.122 403.021H133.167V409.056H127.122V403.021Z" fill="white"/>
<path opacity="0.89" d="M119.004 403.021H125.05V409.056H119.004V403.021Z" fill="white"/>
<path opacity="0.98" d="M110.887 403.021H116.932V409.056H110.887V403.021Z" fill="white"/>
<path opacity="0.29" d="M191.547 410.953H197.592V416.989H191.547V410.953Z" fill="white"/>
<path opacity="0.74" d="M183.602 410.953H189.647V416.989H183.602V410.953Z" fill="white"/>
<path opacity="0.64" d="M175.484 410.953H181.529V416.989H175.484V410.953Z" fill="white"/>
<path opacity="0.65" d="M167.366 410.953H173.411V416.989H167.366V410.953Z" fill="white"/>
<path opacity="0.07" d="M159.248 410.953H165.294V416.989H159.248V410.953Z" fill="white"/>
<path opacity="0.16" d="M151.303 410.953H157.348V416.989H151.303V410.953Z" fill="white"/>
<path opacity="0.84" d="M143.185 410.953H149.23V416.989H143.185V410.953Z" fill="white"/>
<path opacity="0.88" d="M135.067 410.953H141.113V416.989H135.067V410.953Z" fill="white"/>
<path opacity="0.57" d="M127.122 410.953H133.167V416.989H127.122V410.953Z" fill="white"/>
<path opacity="0.31" d="M119.004 410.953H125.05V416.989H119.004V410.953Z" fill="white"/>
<path opacity="0.03" d="M110.887 410.953H116.932V416.989H110.887V410.953Z" fill="white"/>
<path opacity="0.3" d="M191.547 418.885H197.592V424.921H191.547V418.885Z" fill="white"/>
<path opacity="0.59" d="M183.602 418.885H189.647V424.921H183.602V418.885Z" fill="white"/>
<path opacity="0.93" d="M175.484 418.885H181.529V424.921H175.484V418.885Z" fill="white"/>
<path opacity="0.06" d="M167.366 418.885H173.411V424.921H167.366V418.885Z" fill="white"/>
<path opacity="0.74" d="M159.248 418.885H165.294V424.921H159.248V418.885Z" fill="white"/>
<path opacity="0.22" d="M151.303 418.885H157.348V424.921H151.303V418.885Z" fill="white"/>
<path opacity="0.51" d="M143.185 418.885H149.23V424.921H143.185V418.885Z" fill="white"/>
<path opacity="0.7" d="M135.067 418.885H141.113V424.921H135.067V418.885Z" fill="white"/>
<path opacity="0.47" d="M127.122 418.885H133.167V424.921H127.122V418.885Z" fill="white"/>
<path opacity="0.08" d="M119.004 418.885H125.05V424.921H119.004V418.885Z" fill="white"/>
<path opacity="0.93" d="M110.887 418.885H116.932V424.921H110.887V418.885Z" fill="white"/>
<path opacity="0.81" d="M191.547 426.818H197.592V432.854H191.547V426.818Z" fill="white"/>
<path opacity="0.9" d="M183.602 426.818H189.647V432.854H183.602V426.818Z" fill="white"/>
<path opacity="0.55" d="M175.484 426.818H181.529V432.854H175.484V426.818Z" fill="white"/>
<path opacity="0.14" d="M167.366 426.818H173.411V432.854H167.366V426.818Z" fill="white"/>
<path opacity="0.66" d="M159.248 426.818H165.294V432.854H159.248V426.818Z" fill="white"/>
<path opacity="0.92" d="M151.303 426.818H157.348V432.854H151.303V426.818Z" fill="white"/>
<path opacity="0.4" d="M143.185 426.818H149.23V432.854H143.185V426.818Z" fill="white"/>
<path opacity="0.6" d="M135.067 426.818H141.113V432.854H135.067V426.818Z" fill="white"/>
<path opacity="0.99" d="M127.122 426.818H133.167V432.854H127.122V426.818Z" fill="white"/>
<path opacity="0.68" d="M119.004 426.818H125.05V432.854H119.004V426.818Z" fill="white"/>
<path opacity="0.01" d="M110.887 426.818H116.932V432.854H110.887V426.818Z" fill="white"/>
<path opacity="0.82" d="M191.547 434.75H197.592V440.786H191.547V434.75Z" fill="white"/>
<path opacity="0.92" d="M183.602 434.75H189.647V440.786H183.602V434.75Z" fill="white"/>
<path opacity="0.29" d="M175.484 434.75H181.529V440.786H175.484V434.75Z" fill="white"/>
<path opacity="0.73" d="M167.366 434.75H173.411V440.786H167.366V434.75Z" fill="white"/>
<path opacity="0.42" d="M159.248 434.75H165.294V440.786H159.248V434.75Z" fill="white"/>
<path opacity="0.06" d="M151.303 434.75H157.348V440.786H151.303V434.75Z" fill="white"/>
<path opacity="0.7" d="M143.185 434.75H149.23V440.786H143.185V434.75Z" fill="white"/>
<path opacity="0.97" d="M135.067 434.75H141.113V440.786H135.067V434.75Z" fill="white"/>
<path opacity="0.51" d="M127.122 434.75H133.167V440.786H127.122V434.75Z" fill="white"/>
<path opacity="0.69" d="M119.004 434.75H125.05V440.786H119.004V434.75Z" fill="white"/>
<path opacity="0.49" d="M110.887 434.75H116.932V440.786H110.887V434.75Z" fill="white"/>
<path opacity="0.45" d="M191.547 442.683H197.592V448.718H191.547V442.683Z" fill="white"/>
<path opacity="0.46" d="M183.602 442.683H189.647V448.718H183.602V442.683Z" fill="white"/>
<path opacity="0.04" d="M175.484 442.683H181.529V448.718H175.484V442.683Z" fill="white"/>
<path opacity="0.56" d="M167.366 442.683H173.411V448.718H167.366V442.683Z" fill="white"/>
<path opacity="0.4" d="M159.248 442.683H165.294V448.718H159.248V442.683Z" fill="white"/>
<path opacity="0.59" d="M151.303 442.683H157.348V448.718H151.303V442.683Z" fill="white"/>
<path opacity="0.82" d="M143.185 442.683H149.23V448.718H143.185V442.683Z" fill="white"/>
<path opacity="0.99" d="M135.067 442.683H141.113V448.718H135.067V442.683Z" fill="white"/>
<path opacity="0.1" d="M127.122 442.683H133.167V448.718H127.122V442.683Z" fill="white"/>
<path opacity="0.87" d="M119.004 442.683H125.05V448.718H119.004V442.683Z" fill="white"/>
<path d="M110.887 442.683H116.932V448.718H110.887V442.683Z" fill="white"/>
<path d="M293.625 268.859H350.622V447.167H293.625V268.859Z" fill="#333333"/>
<path d="M324.714 259.892H350.622V269.894H324.714V259.892Z" fill="#333333"/>
<path d="M335.596 254.029H350.622V259.892H335.596V254.029Z" fill="#333333"/>
<path opacity="0.25" d="M317.633 281.448H326.96V290.76H317.633V281.448Z" fill="white"/>
<path opacity="0.15" d="M317.633 304.383H326.96V313.695H317.633V304.383Z" fill="white"/>
<path opacity="0.19" d="M317.633 350.08H326.96V359.392H317.633V350.08Z" fill="white"/>
<path opacity="0.17" d="M317.633 372.843H326.96V382.155H317.633V372.843Z" fill="white"/>
<path opacity="0.22" d="M317.633 395.606H326.96V404.918H317.633V395.606Z" fill="white"/>
<path d="M317.633 418.541H326.96V427.853H317.633V418.541Z" fill="white"/>
<path d="M335.941 368.187H389.312V383.879H335.941V368.187Z" fill="#333333"/>
<path d="M309.342 368.187H335.941V383.879H309.342V368.187Z" fill="#4D4D4D"/>
<path d="M389.312 368.187L372.73 360.255L335.941 368.187H389.312Z" fill="#333333"/>
<path d="M372.73 360.255L335.941 368.187H309.342L372.73 360.255Z" fill="#4D4D4D"/>
<path d="M323.505 379.223H401.575V450.615H323.505V379.223Z" fill="#333333"/>
<path d="M297.597 379.223H323.505V450.615H297.597V379.223Z" fill="#4D4D4D"/>
<path opacity="0.81" d="M303.642 384.224H317.633V389.398H303.642V384.224Z" fill="white"/>
<path opacity="0.76" d="M303.642 393.709H317.633V398.882H303.642V393.709Z" fill="white"/>
<path opacity="0.32" d="M303.642 403.193H317.633V408.367H303.642V403.193Z" fill="white"/>
<path opacity="0.49" d="M303.642 412.85H317.633V418.023H303.642V412.85Z" fill="white"/>
<path opacity="0.99" d="M303.642 431.819H317.633V436.992H303.642V431.819Z" fill="white"/>
<path opacity="0.1" d="M375.148 384.224H389.139V389.398H375.148V384.224Z" fill="white"/>
<path opacity="0.04" d="M355.631 384.224H369.622V389.398H355.631V384.224Z" fill="white"/>
<path opacity="0.07" d="M335.941 384.224H349.931V389.398H335.941V384.224Z" fill="white"/>
<path opacity="0.06" d="M375.148 393.709H389.139V398.882H375.148V393.709Z" fill="white"/>
<path opacity="0.44" d="M355.631 393.709H369.622V398.882H355.631V393.709Z" fill="white"/>
<path opacity="0.24" d="M335.941 393.709H349.931V398.882H335.941V393.709Z" fill="white"/>
<path opacity="0.55" d="M375.148 403.193H389.139V408.367H375.148V403.193Z" fill="white"/>
<path opacity="0.02" d="M355.631 403.193H369.622V408.367H355.631V403.193Z" fill="white"/>
<path opacity="0.14" d="M335.941 403.193H349.931V408.367H335.941V403.193Z" fill="white"/>
<path opacity="0.43" d="M375.148 412.85H389.139V418.023H375.148V412.85Z" fill="white"/>
<path opacity="0.41" d="M355.631 412.85H369.622V418.023H355.631V412.85Z" fill="white"/>
<path opacity="0.46" d="M335.941 412.85H349.931V418.023H335.941V412.85Z" fill="white"/>
<path opacity="0.45" d="M375.148 422.335H389.139V427.508H375.148V422.335Z" fill="white"/>
<path opacity="0.33" d="M355.631 422.335H369.622V427.508H355.631V422.335Z" fill="white"/>
<path opacity="0.05" d="M335.941 422.335H349.931V427.508H335.941V422.335Z" fill="white"/>
<path opacity="0.27" d="M375.148 431.819H389.139V436.993H375.148V431.819Z" fill="white"/>
<path opacity="0.15" d="M355.631 431.819H369.622V436.993H355.631V431.819Z" fill="white"/>
<path opacity="0.7" d="M335.941 431.819H349.931V436.993H335.941V431.819Z" fill="white"/>
<path d="M703.317 307.832H751.679V456.651H703.317V307.832Z" fill="#333333"/>
<path d="M648.219 307.832H703.144V456.651H648.219V307.832Z" fill="#4D4D4D"/>
<path d="M703.317 320.42H751.679V323.007H703.317V320.42Z" fill="#4D4D4D"/>
<path d="M648.219 320.42H703.144V323.007H648.219V320.42Z" fill="#333333"/>
<path opacity="0.32" d="M728.361 325.939H733.543V331.112H728.361V325.939Z" fill="white"/>
<path opacity="0.25" d="M721.28 325.939H726.462V331.112H721.28V325.939Z" fill="white"/>
<path opacity="0.12" d="M707.117 325.939H712.298V331.112H707.117V325.939Z" fill="white"/>
<path opacity="0.22" d="M728.361 333.009H733.543V338.182H728.361V333.009Z" fill="white"/>
<path opacity="0.47" d="M721.28 333.009H726.462V338.182H721.28V333.009Z" fill="white"/>
<path opacity="0.22" d="M714.198 333.009H719.38V338.182H714.198V333.009Z" fill="white"/>
<path opacity="0.32" d="M707.117 333.009H712.298V338.182H707.117V333.009Z" fill="white"/>
<path opacity="0.18" d="M728.361 340.079H733.543V345.252H728.361V340.079Z" fill="white"/>
<path opacity="0.28" d="M721.28 340.079H726.462V345.252H721.28V340.079Z" fill="white"/>
<path opacity="0.2" d="M707.117 340.079H712.298V345.252H707.117V340.079Z" fill="white"/>
<path opacity="0.33" d="M728.361 347.149H733.543V352.323H728.361V347.149Z" fill="white"/>
<path opacity="0.05" d="M721.28 347.149H726.462V352.323H721.28V347.149Z" fill="white"/>
<path opacity="0.08" d="M714.198 347.149H719.38V352.323H714.198V347.149Z" fill="white"/>
<path opacity="0.08" d="M721.28 354.219H726.462V359.393H721.28V354.219Z" fill="white"/>
<path opacity="0.02" d="M714.198 354.219H719.38V359.393H714.198V354.219Z" fill="white"/>
<path opacity="0.05" d="M728.361 361.29H733.543V366.463H728.361V361.29Z" fill="white"/>
<path opacity="0.2" d="M721.28 361.29H726.462V366.463H721.28V361.29Z" fill="white"/>
<path opacity="0.23" d="M714.198 361.29H719.38V366.463H714.198V361.29Z" fill="white"/>
<path opacity="0.14" d="M728.361 368.36H733.543V373.533H728.361V368.36Z" fill="white"/>
<path opacity="0.24" d="M714.198 368.36H719.38V373.533H714.198V368.36Z" fill="white"/>
<path opacity="0.23" d="M728.361 375.43H733.543V380.603H728.361V375.43Z" fill="white"/>
<path opacity="0.02" d="M721.28 375.43H726.462V380.603H721.28V375.43Z" fill="white"/>
<path opacity="0.04" d="M714.198 375.43H719.38V380.603H714.198V375.43Z" fill="white"/>
<path opacity="0.3" d="M707.117 375.43H712.298V380.603H707.117V375.43Z" fill="white"/>
<path opacity="0.4" d="M707.117 382.328H712.298V387.501H707.117V382.328Z" fill="white"/>
<path opacity="0.12" d="M728.361 389.398H733.543V394.572H728.361V389.398Z" fill="white"/>
<path opacity="0.19" d="M714.198 389.398H719.38V394.572H714.198V389.398Z" fill="white"/>
<path opacity="0.43" d="M707.117 389.398H712.298V394.572H707.117V389.398Z" fill="white"/>
<path opacity="0.42" d="M721.28 396.468H726.462V401.642H721.28V396.468Z" fill="white"/>
<path opacity="0.31" d="M707.117 396.468H712.298V401.642H707.117V396.468Z" fill="white"/>
<path opacity="0.31" d="M721.28 403.539H726.462V408.712H721.28V403.539Z" fill="white"/>
<path opacity="0.33" d="M707.117 403.539H712.298V408.712H707.117V403.539Z" fill="white"/>
<path opacity="0.17" d="M721.28 410.609H726.462V415.782H721.28V410.609Z" fill="white"/>
<path opacity="0.01" d="M714.198 410.609H719.38V415.782H714.198V410.609Z" fill="white"/>
<path opacity="0.48" d="M707.117 410.609H712.298V415.782H707.117V410.609Z" fill="white"/>
<path opacity="0.28" d="M728.361 417.679H733.543V422.852H728.361V417.679Z" fill="white"/>
<path opacity="0.02" d="M721.28 417.679H726.462V422.852H721.28V417.679Z" fill="white"/>
<path opacity="0.17" d="M714.198 417.679H719.38V422.852H714.198V417.679Z" fill="white"/>
<path opacity="0.42" d="M707.117 417.679H712.298V422.852H707.117V417.679Z" fill="white"/>
<path opacity="0.11" d="M728.361 424.749H733.543V429.923H728.361V424.749Z" fill="white"/>
<path opacity="0.02" d="M721.28 424.749H726.462V429.923H721.28V424.749Z" fill="white"/>
<path opacity="0.3" d="M707.117 424.749H712.298V429.923H707.117V424.749Z" fill="white"/>
<path opacity="0.19" d="M728.361 431.82H733.543V436.993H728.361V431.82Z" fill="white"/>
<path opacity="0.05" d="M721.28 431.82H726.462V436.993H721.28V431.82Z" fill="white"/>
<path opacity="0.2" d="M707.117 431.82H712.298V436.993H707.117V431.82Z" fill="white"/>
<path opacity="0.27" d="M721.28 438.89H726.462V444.063H721.28V438.89Z" fill="white"/>
<path opacity="0.13" d="M714.198 438.89H719.38V444.063H714.198V438.89Z" fill="white"/>
<path opacity="0.46" d="M728.361 445.96H733.543V451.133H728.361V445.96Z" fill="white"/>
<path opacity="0.12" d="M721.28 445.96H726.462V451.133H721.28V445.96Z" fill="white"/>
<path opacity="0.04" d="M714.198 445.96H719.38V451.133H714.198V445.96Z" fill="white"/>
<path opacity="0.3" d="M707.117 445.96H712.298V451.133H707.117V445.96Z" fill="white"/>
<path opacity="0.08" d="M714.198 325.939H719.38V331.112H714.198V325.939Z" fill="white"/>
<path opacity="0.08" d="M714.198 340.079H719.38V345.252H714.198V340.079Z" fill="white"/>
<path opacity="0.01" d="M707.117 347.149H712.298V352.323H707.117V347.149Z" fill="white"/>
<path opacity="0.15" d="M728.361 354.219H733.543V359.393H728.361V354.219Z" fill="white"/>
<path opacity="0.12" d="M707.117 354.219H712.298V359.393H707.117V354.219Z" fill="white"/>
<path opacity="0.13" d="M721.28 368.36H726.462V373.533H721.28V368.36Z" fill="white"/>
<path opacity="0.07" d="M707.117 368.36H712.298V373.533H707.117V368.36Z" fill="white"/>
<path opacity="0.02" d="M728.361 382.328H733.543V387.501H728.361V382.328Z" fill="white"/>
<path opacity="0.02" d="M721.28 382.328H726.462V387.501H721.28V382.328Z" fill="white"/>
<path opacity="0.14" d="M714.198 382.328H719.38V387.501H714.198V382.328Z" fill="white"/>
<path opacity="0.09" d="M728.361 396.468H733.543V401.642H728.361V396.468Z" fill="white"/>
<path opacity="0.02" d="M714.198 396.468H719.38V401.642H714.198V396.468Z" fill="white"/>
<path opacity="0.19" d="M728.361 403.539H733.543V408.712H728.361V403.539Z" fill="white"/>
<path opacity="0.06" d="M714.198 403.539H719.38V408.712H714.198V403.539Z" fill="white"/>
<path opacity="0.16" d="M728.361 410.609H733.543V415.782H728.361V410.609Z" fill="white"/>
<path opacity="0.04" d="M714.198 424.749H719.38V429.923H714.198V424.749Z" fill="white"/>
<path opacity="0.04" d="M714.198 431.82H719.38V436.993H714.198V431.82Z" fill="white"/>
<path opacity="0.18" d="M707.117 438.89H712.298V444.063H707.117V438.89Z" fill="white"/>
<g opacity="0.7">
<path opacity="0.7" d="M692.781 323.007H698.135V450.098H692.781V323.007Z" fill="#E6E6E6"/>
<path opacity="0.7" d="M683.627 323.007H688.981V450.098H683.627V323.007Z" fill="#E6E6E6"/>
<path opacity="0.7" d="M674.3 323.007H679.654V450.098H674.3V323.007Z" fill="#E6E6E6"/>
<path opacity="0.7" d="M664.973 323.007H670.327V450.098H664.973V323.007Z" fill="#E6E6E6"/>
<path opacity="0.7" d="M655.646 323.007H661V450.098H655.646V323.007Z" fill="#E6E6E6"/>
</g>
<path d="M620.584 450.099H728.016L620.584 356.634V450.099Z" fill="#333333"/>
<path d="M629.738 433.544H666.7V454.237H629.738V433.544Z" fill="#4D4D4D"/>
<path d="M632.502 428.716H663.937V438.373H632.502V428.716Z" fill="#4D4D4D"/>
<path d="M636.129 431.647H660.483L652.019 417.507H644.592L636.129 431.647Z" fill="#4D4D4D"/>
<path d="M639.583 437.683H656.855V450.271H639.583V437.683Z" fill="white"/>
<path d="M637.511 442.684H658.928V445.27H637.511V442.684Z" fill="#4D4D4D"/>
<path d="M464.79 467.515C464.272 480.966 474.635 492.52 488.28 493.037C501.752 493.554 513.325 483.035 513.843 469.585C514.361 456.134 503.998 444.58 490.353 444.063C476.881 443.546 465.481 454.065 464.79 467.515Z" fill="#333333"/>
<path d="M468.935 460.79C468.59 468.55 474.635 475.103 482.408 475.448C490.18 475.793 496.743 469.757 497.089 461.997C497.434 454.237 491.389 447.684 483.617 447.339C475.844 446.994 469.281 453.03 468.935 460.79Z" fill="#4D4D4D"/>
<path d="M711.435 442.166C711.435 445.443 714.198 448.202 717.48 448.202C720.762 448.202 723.525 445.443 723.525 442.166C723.525 438.89 720.762 436.131 717.48 436.131C714.198 436.131 711.435 438.717 711.435 442.166Z" fill="#333333"/>
<path d="M709.362 448.202C709.362 452.685 712.989 456.307 717.48 456.307C721.971 456.307 725.598 452.685 725.598 448.202C725.598 443.718 721.971 440.097 717.48 440.097C712.989 440.097 709.362 443.718 709.362 448.202Z" fill="#333333"/>
<path d="M713.507 436.993C713.507 439.235 715.235 441.132 717.48 441.132C719.725 441.132 721.453 439.235 721.453 436.993C721.453 434.751 719.725 432.854 717.48 432.854C715.235 432.854 713.507 434.751 713.507 436.993Z" fill="#333333"/>
<path d="M712.298 442.166C712.298 444.063 713.853 445.615 715.753 445.615C717.653 445.615 719.207 444.063 719.207 442.166C719.207 440.269 717.653 438.717 715.753 438.717C713.853 438.717 712.298 440.269 712.298 442.166Z" fill="#4D4D4D"/>
<path d="M714.026 437.51C714.026 438.89 715.235 440.097 716.616 440.097C717.998 440.097 719.207 438.89 719.207 437.51C719.207 436.131 717.998 434.923 716.616 434.923C715.235 434.751 714.026 435.958 714.026 437.51Z" fill="#4D4D4D"/>
<path d="M596.23 454.754C596.23 459.066 599.857 462.687 604.175 462.687C608.493 462.687 612.121 459.066 612.121 454.754C612.121 450.443 608.666 446.822 604.175 446.822C599.857 446.822 596.23 450.443 596.23 454.754Z" fill="#333333"/>
<path d="M598.994 448.029C598.994 450.961 601.239 453.375 604.175 453.375C607.112 453.375 609.357 450.961 609.357 448.029C609.357 445.098 607.112 442.683 604.175 442.683C601.412 442.683 598.994 445.098 598.994 448.029Z" fill="#333333"/>
<path d="M599.685 448.546C599.685 450.443 601.239 451.995 603.139 451.995C605.039 451.995 606.594 450.443 606.594 448.546C606.594 446.649 605.039 445.097 603.139 445.097C601.239 445.097 599.685 446.649 599.685 448.546Z" fill="#4D4D4D"/>
<path d="M606.939 460.618C607.803 468.895 615.23 474.758 623.347 473.896C631.638 473.034 637.511 465.619 636.647 457.514C635.783 449.236 628.356 443.373 620.239 444.236C612.121 445.098 606.075 452.34 606.939 460.618Z" fill="#333333"/>
<path d="M610.739 447.34C611.257 452.858 616.093 456.997 621.62 456.479C626.975 455.962 630.947 450.961 630.429 445.443C629.911 439.925 625.075 435.786 619.548 436.303C614.021 436.821 610.221 441.821 610.739 447.34Z" fill="#333333"/>
<path d="M612.121 448.374C612.466 451.996 615.748 454.582 619.202 454.237C622.829 453.892 625.42 450.616 625.075 447.167C624.729 443.546 621.448 440.959 617.993 441.304C614.366 441.649 611.775 444.925 612.121 448.374Z" fill="#4D4D4D"/>
<path d="M528.697 453.375C528.697 460.963 534.742 466.998 542.342 466.998C549.942 466.998 555.987 460.963 555.987 453.375C555.987 445.787 549.942 439.752 542.342 439.752C534.915 439.752 528.697 445.787 528.697 453.375Z" fill="#333333"/>
<path d="M524.033 466.998C524.033 477.172 532.324 485.277 542.342 485.277C552.532 485.277 560.65 477 560.65 466.998C560.65 456.824 552.36 448.719 542.342 448.719C532.324 448.719 524.033 456.996 524.033 466.998Z" fill="#333333"/>
<path d="M533.533 441.649C533.533 446.822 537.506 450.961 542.514 450.961C547.523 450.961 551.496 446.822 551.496 441.649C551.496 436.475 547.523 432.337 542.514 432.337C537.506 432.509 533.533 436.648 533.533 441.649Z" fill="#333333"/>
<path d="M530.769 453.375C530.769 457.686 534.224 461.307 538.715 461.307C543.033 461.307 546.66 457.859 546.66 453.375C546.66 449.064 543.205 445.443 538.715 445.443C534.397 445.615 530.769 449.064 530.769 453.375Z" fill="#4D4D4D"/>
<path d="M534.742 442.856C534.742 446.132 537.333 448.891 540.787 448.891C544.069 448.891 546.832 446.305 546.832 442.856C546.832 439.579 544.242 436.993 540.787 436.993C537.333 436.82 534.742 439.579 534.742 442.856Z" fill="#4D4D4D"/>
<path d="M558.923 464.756C558.923 474.413 566.868 482.345 576.54 482.345C586.213 482.345 594.158 474.413 594.158 464.756C594.158 455.099 586.213 447.167 576.54 447.167C566.868 447.167 558.923 454.927 558.923 464.756Z" fill="#333333"/>
<path d="M564.968 449.581C564.968 456.134 570.15 461.48 576.54 461.48C582.931 461.48 588.113 456.134 588.113 449.581C588.113 443.028 582.931 437.682 576.54 437.682C570.15 437.682 564.968 443.028 564.968 449.581Z" fill="#333333"/>
<path d="M566.523 451.133C566.523 455.444 569.977 458.721 574.295 458.721C578.613 458.721 582.068 455.272 582.068 451.133C582.068 446.822 578.613 443.373 574.295 443.373C569.977 443.373 566.523 446.822 566.523 451.133Z" fill="#4D4D4D"/>
<path d="M516.261 451.65C516.261 453.72 517.815 455.272 519.715 455.272C521.615 455.272 523.17 453.72 523.17 451.65C523.17 449.581 521.615 448.029 519.715 448.029C517.815 448.029 516.261 449.581 516.261 451.65Z" fill="#333333"/>
<path d="M441.991 447.34C441.991 454.065 447.346 459.411 454.082 459.411C460.818 459.411 466.172 454.065 466.172 447.34C466.172 440.614 460.818 435.268 454.082 435.268C447.346 435.268 441.991 440.614 441.991 447.34Z" fill="#333333"/>
<path d="M437.846 459.411C437.846 468.378 445.1 475.621 454.082 475.621C463.063 475.621 470.317 468.378 470.317 459.411C470.317 450.444 463.063 443.201 454.082 443.201C445.1 443.201 437.846 450.444 437.846 459.411Z" fill="#333333"/>
<path d="M446.136 436.993C446.136 441.477 449.764 445.27 454.082 445.27C458.4 445.27 462.027 441.649 462.027 436.993C462.027 432.509 458.4 428.716 454.082 428.716C449.764 428.716 446.136 432.509 446.136 436.993Z" fill="#333333"/>
<path d="M443.891 447.34C443.891 451.133 447 454.237 450.8 454.237C454.6 454.237 457.709 451.133 457.709 447.34C457.709 443.546 454.6 440.442 450.8 440.442C447 440.442 443.891 443.546 443.891 447.34Z" fill="#4D4D4D"/>
<path d="M447.173 438.028C447.173 440.959 449.591 443.373 452.527 443.373C455.463 443.373 457.881 440.959 457.881 438.028C457.881 435.096 455.463 432.682 452.527 432.682C449.591 432.682 447.173 435.096 447.173 438.028Z" fill="#4D4D4D"/>
<path d="M396.911 462.515C396.911 471.482 404.165 478.724 413.147 478.724C422.128 478.724 429.383 471.482 429.383 462.515C429.383 453.548 422.128 446.305 413.147 446.305C404.165 446.477 396.911 453.72 396.911 462.515Z" fill="#333333"/>
<path d="M402.611 448.719C402.611 454.755 407.447 459.756 413.147 459.756C419.02 459.756 423.856 454.927 423.856 448.719C423.856 442.684 419.02 437.855 413.147 437.855C407.275 437.855 402.611 442.684 402.611 448.719Z" fill="#333333"/>
<path d="M403.993 450.099C403.993 454.065 407.102 457.169 411.074 457.169C415.047 457.169 418.156 454.065 418.156 450.099C418.156 446.133 415.047 443.029 411.074 443.029C407.102 443.029 403.993 446.133 403.993 450.099Z" fill="#4D4D4D"/>
<path d="M132.649 469.068C132.649 483.898 144.567 495.797 159.421 495.797C174.275 495.797 186.193 483.898 186.193 469.068C186.193 454.237 174.275 442.339 159.421 442.339C144.567 442.339 132.649 454.41 132.649 469.068Z" fill="#333333"/>
<path d="M136.622 461.653C136.622 470.102 143.531 477 151.994 477C160.457 477 167.366 470.102 167.366 461.653C167.366 453.203 160.457 446.305 151.994 446.305C143.531 446.305 136.622 453.203 136.622 461.653Z" fill="#4D4D4D"/>
<path d="M98.2778 457.514C98.2778 469.93 108.468 480.104 120.904 480.104C133.34 480.104 143.531 469.93 143.531 457.514C143.531 445.098 133.34 434.924 120.904 434.924C108.296 434.924 98.2778 444.925 98.2778 457.514Z" fill="#333333"/>
<path d="M101.732 451.133C101.732 458.376 107.605 464.067 114.686 464.067C121.941 464.067 127.64 458.204 127.64 451.133C127.64 444.063 121.768 438.2 114.686 438.2C107.605 438.2 101.732 444.063 101.732 451.133Z" fill="#4D4D4D"/>
<path d="M155.966 461.135C155.966 473.551 166.157 483.725 178.593 483.725C191.029 483.725 201.219 473.551 201.219 461.135C201.219 448.719 191.029 438.545 178.593 438.545C165.984 438.545 155.966 448.546 155.966 461.135Z" fill="#333333"/>
<path d="M159.421 454.755C159.421 461.997 165.293 467.688 172.375 467.688C179.456 467.688 185.329 461.825 185.329 454.755C185.329 447.512 179.456 441.821 172.375 441.821C165.293 441.821 159.421 447.512 159.421 454.755Z" fill="#4D4D4D"/>
<path d="M225.745 466.309C225.745 478.725 235.936 488.899 248.372 488.899C260.808 488.899 270.998 478.725 270.998 466.309C270.998 453.893 260.808 443.719 248.372 443.719C235.763 443.719 225.745 453.893 225.745 466.309Z" fill="#333333"/>
<path d="M229.2 459.928C229.2 467.171 235.072 472.862 242.154 472.862C249.408 472.862 255.108 466.999 255.108 459.928C255.108 452.686 249.235 446.995 242.154 446.995C235.072 446.995 229.2 452.858 229.2 459.928Z" fill="#4D4D4D"/>
<path d="M253.035 462.515C253.035 474.931 263.226 485.105 275.662 485.105C288.098 485.105 298.288 474.931 298.288 462.515C298.288 450.099 288.098 439.925 275.662 439.925C263.226 439.925 253.035 449.926 253.035 462.515Z" fill="#333333"/>
<path d="M256.49 456.134C256.49 463.377 262.362 469.068 269.444 469.068C276.698 469.068 282.398 463.205 282.398 456.134C282.398 448.892 276.525 443.201 269.444 443.201C262.362 443.201 256.49 448.892 256.49 456.134Z" fill="#4D4D4D"/>
<path d="M235.418 458.893C235.418 466.136 241.29 471.826 248.372 471.826C255.626 471.826 261.326 465.963 261.326 458.893C261.326 451.65 255.453 445.96 248.372 445.96C241.118 445.96 235.418 451.823 235.418 458.893Z" fill="#4D4D4D"/>
<path d="M331.968 459.928C331.968 468.033 338.532 474.758 346.822 474.758C354.94 474.758 361.676 468.205 361.676 459.928C361.676 451.823 355.113 445.097 346.822 445.097C338.532 445.27 331.968 451.823 331.968 459.928Z" fill="#333333"/>
<path d="M334.214 455.789C334.214 460.445 338.014 464.239 342.677 464.239C347.34 464.239 351.14 460.445 351.14 455.789C351.14 451.133 347.34 447.339 342.677 447.339C338.014 447.339 334.214 451.133 334.214 455.789Z" fill="#4D4D4D"/>
<path d="M720.071 448.202C720.071 455.099 725.598 460.618 732.507 460.618C739.416 460.618 744.943 455.099 744.943 448.202C744.943 441.304 739.416 435.786 732.507 435.786C725.771 435.613 720.071 441.304 720.071 448.202Z" fill="#333333"/>
<path d="M715.926 460.618C715.926 469.93 723.353 477.345 732.68 477.345C742.006 477.345 749.433 469.93 749.433 460.618C749.433 451.306 742.006 443.891 732.68 443.891C723.353 443.891 715.926 451.306 715.926 460.618Z" fill="#333333"/>
<path d="M724.389 437.51C724.389 442.166 728.016 445.96 732.68 445.96C737.17 445.96 740.97 442.166 740.97 437.51C740.97 432.854 737.343 429.06 732.68 429.06C728.016 429.06 724.389 432.854 724.389 437.51Z" fill="#333333"/>
<path d="M721.971 448.201C721.971 452.168 725.253 455.444 729.225 455.444C733.198 455.444 736.479 452.168 736.479 448.201C736.479 444.235 733.198 440.959 729.225 440.959C725.253 440.959 721.971 444.235 721.971 448.201Z" fill="#4D4D4D"/>
<path d="M725.425 438.545C725.425 441.476 727.843 444.063 730.952 444.063C733.889 444.063 736.479 441.649 736.479 438.545C736.479 435.613 734.061 433.027 730.952 433.027C728.016 433.027 725.425 435.441 725.425 438.545Z" fill="#4D4D4D"/>
<path d="M661.173 453.03C661.173 458.549 665.664 463.032 671.191 463.032C676.718 463.032 681.209 458.549 681.209 453.03C681.209 447.512 676.718 443.029 671.191 443.029C665.664 443.029 661.173 447.512 661.173 453.03Z" fill="#333333"/>
<path d="M664.628 444.408C664.628 448.202 667.564 451.306 671.191 451.306C674.818 451.306 677.755 448.202 677.755 444.408C677.755 440.614 674.818 437.51 671.191 437.51C667.564 437.683 664.628 440.614 664.628 444.408Z" fill="#333333"/>
<path d="M662.728 453.03C662.728 456.307 665.319 458.893 668.6 458.893C671.882 458.893 674.473 456.307 674.473 453.03C674.473 449.926 671.882 447.34 668.6 447.34C665.319 447.167 662.728 449.754 662.728 453.03Z" fill="#4D4D4D"/>
<path d="M665.491 445.27C665.491 447.685 667.391 449.581 669.809 449.581C672.227 449.581 674.127 447.685 674.127 445.27C674.127 442.856 672.227 440.959 669.809 440.959C667.391 440.787 665.491 442.856 665.491 445.27Z" fill="#4D4D4D"/>
</svg>
