<svg width="334" height="94" viewBox="0 0 334 94" fill="none" xmlns="http://www.w3.org/2000/svg">
<g filter="url(#filter0_d_1_11286)">
<rect x="15" y="15" width="293.753" height="54" fill="#E3B873"/>
</g>
<path d="M84.0973 48.0703V47.8153L85.2873 47.4753V44.9253H80.4423L80.1023 44.4153L86.4773 36.0003H88.0923V44.1603H89.8773V44.9253H88.0923V47.4753L89.2823 47.8153V48.0703H84.0973ZM81.0373 44.1603H85.2873V38.5503L81.0373 44.1603ZM95.6586 48.3253C94.7406 48.3253 93.9076 48.0816 93.1596 47.5943C92.4116 47.107 91.8166 46.3986 91.3746 45.4693C90.944 44.5286 90.7286 43.4123 90.7286 42.1203C90.7286 40.8283 90.944 39.7176 91.3746 38.7883C91.8166 37.8476 92.4116 37.1336 93.1596 36.6463C93.9076 36.159 94.7406 35.9153 95.6586 35.9153C96.5766 35.9153 97.4096 36.159 98.1576 36.6463C98.9056 37.1336 99.495 37.8476 99.9256 38.7883C100.368 39.7176 100.589 40.8283 100.589 42.1203C100.589 43.4123 100.368 44.5286 99.9256 45.4693C99.495 46.3986 98.9056 47.107 98.1576 47.5943C97.4096 48.0816 96.5766 48.3253 95.6586 48.3253ZM95.6586 47.9853C96.962 47.9853 97.6136 46.0303 97.6136 42.1203C97.6136 38.2103 96.962 36.2553 95.6586 36.2553C94.3553 36.2553 93.7036 38.2103 93.7036 42.1203C93.7036 46.0303 94.3553 47.9853 95.6586 47.9853ZM108.497 38.2953V47.3053L109.857 47.8153V48.0703H106.627V47.8153L107.987 47.3053V36.6803L106.967 36.4253V36.1703H109.092C109.681 36.1703 110.146 36.295 110.486 36.5443C110.837 36.7823 111.138 37.1393 111.387 37.6153L115.093 44.7043L117.932 37.6153C118.125 37.1166 118.385 36.754 118.714 36.5273C119.043 36.2893 119.547 36.1703 120.227 36.1703H122.012V36.4253L120.992 36.6803V47.5603L122.012 47.8153V48.0703H117.167V47.8153L118.187 47.5603V38.2953L114.192 48.2403H113.682L108.497 38.2953ZM123.378 47.3053C123.378 46.6366 123.508 46.0303 123.769 45.4863C124.041 44.931 124.37 44.4493 124.755 44.0413C125.14 43.6333 125.645 43.1516 126.268 42.5963C126.846 42.0863 127.299 41.6613 127.628 41.3213C127.957 40.97 128.234 40.579 128.461 40.1483C128.688 39.7063 128.801 39.2303 128.801 38.7203C128.801 37.9723 128.62 37.3886 128.257 36.9693C127.894 36.55 127.424 36.3403 126.846 36.3403C126.517 36.3403 126.183 36.3856 125.843 36.4763L125.486 36.5953V39.3153L125.265 39.3663C125.084 39.389 124.931 39.4003 124.806 39.4003C124.421 39.4003 124.109 39.287 123.871 39.0603C123.644 38.8223 123.531 38.5106 123.531 38.1253C123.531 37.7626 123.667 37.4113 123.939 37.0713C124.222 36.7313 124.636 36.4536 125.18 36.2383C125.735 36.023 126.404 35.9153 127.186 35.9153C128.716 35.9153 129.849 36.2213 130.586 36.8333C131.323 37.4453 131.691 38.301 131.691 39.4003C131.691 40.0916 131.51 40.6866 131.147 41.1853C130.796 41.684 130.359 42.0976 129.838 42.4263C129.328 42.755 128.642 43.129 127.781 43.5483C127.056 43.8996 126.466 44.2113 126.013 44.4833C125.571 44.744 125.157 45.0613 124.772 45.4353C124.398 45.8093 124.132 46.2343 123.973 46.7103H130.263C130.342 46.0983 130.535 45.5883 130.841 45.1803C130.966 44.9876 131.113 44.8176 131.283 44.6703H131.793V48.0703H123.378V47.3053Z" fill="white"/>
<path fill-rule="evenodd" clip-rule="evenodd" d="M35.2503 26.3819C35.2503 26.171 35.4285 26 35.6484 26H64.3115C64.5314 26 64.7096 26.171 64.7096 26.3819V54.0039C64.7096 54.2148 64.5314 54.3858 64.3115 54.3858C64.0916 54.3858 63.9134 54.2148 63.9134 54.0039V26.7637H35.6484C35.4285 26.7637 35.2503 26.5928 35.2503 26.3819Z" fill="white" stroke="white" stroke-width="0.5" stroke-linecap="round" stroke-linejoin="round"/>
<path d="M35.6681 54.5623L35.7931 54.5623L35.7931 54.4373L35.7931 30.6786L37.419 32.3044C37.622 32.5075 37.9512 32.5075 38.1543 32.3044C38.3574 32.1014 38.3574 31.7722 38.1543 31.5691L35.6408 29.0556C35.4377 28.8526 35.1085 28.8526 34.9055 29.0556L32.392 31.5691C32.1889 31.7722 32.1889 32.1014 32.392 32.3044C32.595 32.5075 32.9243 32.5075 33.1273 32.3044L34.7532 30.6786L34.7532 54.4373L34.7532 54.5623L34.8782 54.5623L35.6681 54.5623Z" fill="white" stroke="white" stroke-width="0.25"/>
<path d="M34.7522 54.8314V54.9564H34.8772L58.7603 54.9564L57.1262 56.5821C56.922 56.7852 56.922 57.1147 57.1262 57.3179C57.33 57.5206 57.6602 57.5206 57.864 57.3179L60.3906 54.8044C60.5947 54.6013 60.5947 54.2717 60.3906 54.0686L57.864 51.5551C57.6602 51.3523 57.33 51.3523 57.1262 51.5551C56.922 51.7582 56.922 52.0878 57.1262 52.2909L58.7603 53.9165L34.8772 53.9165H34.7522V54.0415V54.8314Z" fill="white" stroke="white" stroke-width="0.25"/>
<path fill-rule="evenodd" clip-rule="evenodd" d="M46.1624 26.1157C46.3167 26.2699 46.3167 26.52 46.1624 26.6742L41.423 31.4137C41.2687 31.568 41.0186 31.568 40.8644 31.4137C40.7102 31.2595 40.7102 31.0094 40.8644 30.8552L45.6039 26.1157C45.7581 25.9614 46.0082 25.9614 46.1624 26.1157Z" fill="white" stroke="white" stroke-width="0.5" stroke-linecap="round" stroke-linejoin="round"/>
<path fill-rule="evenodd" clip-rule="evenodd" d="M64.4623 44.9423C64.6165 45.0966 64.6165 45.3467 64.4623 45.5009L60.1177 49.8454C59.9635 49.9997 59.7134 49.9997 59.5592 49.8454C59.4049 49.6912 59.4049 49.4411 59.5592 49.2869L63.9037 44.9423C64.0579 44.7881 64.308 44.7881 64.4623 44.9423Z" fill="white" stroke="white" stroke-width="0.5" stroke-linecap="round" stroke-linejoin="round"/>
<path fill-rule="evenodd" clip-rule="evenodd" d="M52.0851 26.1139C52.2403 26.2672 52.2419 26.5172 52.0886 26.6725L41.8197 37.073C41.6665 37.2282 41.4164 37.2298 41.2612 37.0766C41.106 36.9233 41.1044 36.6732 41.2576 36.518L51.5265 26.1175C51.6798 25.9622 51.9299 25.9607 52.0851 26.1139Z" fill="white" stroke="white" stroke-width="0.5" stroke-linecap="round" stroke-linejoin="round"/>
<path fill-rule="evenodd" clip-rule="evenodd" d="M64.5938 38.3591C64.7481 38.5134 64.7481 38.7635 64.5938 38.9177L54.5882 48.9233C54.434 49.0775 54.1839 49.0775 54.0297 48.9233C53.8754 48.7691 53.8754 48.519 54.0297 48.3647L64.0353 38.3591C64.1895 38.2049 64.4396 38.2049 64.5938 38.3591Z" fill="white" stroke="white" stroke-width="0.5" stroke-linecap="round" stroke-linejoin="round"/>
<path fill-rule="evenodd" clip-rule="evenodd" d="M58.4084 26.2496C58.5614 26.4051 58.5594 26.6551 58.4039 26.8081L41.9474 43.0014C41.7919 43.1544 41.5418 43.1524 41.3888 42.9969C41.2358 42.8414 41.2379 42.5913 41.3933 42.4384L57.8499 26.2451C58.0054 26.0921 58.2554 26.0941 58.4084 26.2496Z" fill="white" stroke="white" stroke-width="0.5" stroke-linecap="round" stroke-linejoin="round"/>
<path fill-rule="evenodd" clip-rule="evenodd" d="M64.5939 32.1718C64.7482 32.326 64.7482 32.5761 64.5939 32.7303L48.0057 49.3185C47.8515 49.4728 47.6014 49.4728 47.4472 49.3185C47.2929 49.1643 47.2929 48.9142 47.4472 48.76L64.0354 32.1718C64.1896 32.0175 64.4397 32.0175 64.5939 32.1718Z" fill="white" stroke="white" stroke-width="0.5" stroke-linecap="round" stroke-linejoin="round"/>
<path fill-rule="evenodd" clip-rule="evenodd" d="M64.3306 26.2473C64.4849 26.4016 64.4849 26.6516 64.3306 26.8059L41.6864 49.4501C41.5321 49.6044 41.2821 49.6044 41.1278 49.4501C40.9736 49.2959 40.9736 49.0458 41.1278 48.8916L63.7721 26.2473C63.9263 26.0931 64.1764 26.0931 64.3306 26.2473Z" fill="white" stroke="white" stroke-width="0.5" stroke-linecap="round" stroke-linejoin="round"/>
<path d="M219.146 48.1387V47.8837L220.336 47.5437V44.9937H215.491L215.151 44.4837L221.526 36.0687H223.141V44.2287H224.926V44.9937H223.141V47.5437L224.331 47.8837V48.1387H219.146ZM216.086 44.2287H220.336V38.6187L216.086 44.2287ZM230.691 48.3937C229.263 48.3937 228.181 48.1103 227.444 47.5437C226.719 46.977 226.356 46.2403 226.356 45.3337C226.356 44.7103 226.628 44.1097 227.172 43.5317C227.716 42.9423 228.379 42.523 229.161 42.2737C228.413 41.8543 227.841 41.3953 227.444 40.8967C227.059 40.3867 226.866 39.769 226.866 39.0437C226.866 38.137 227.229 37.4003 227.954 36.8337C228.691 36.267 229.773 35.9837 231.201 35.9837C231.915 35.9837 232.538 36.114 233.071 36.3747C233.615 36.6353 234.034 36.9753 234.329 37.3947C234.624 37.814 234.771 38.2503 234.771 38.7037C234.771 39.2363 234.539 39.752 234.074 40.2507C233.621 40.7493 233.088 41.0837 232.476 41.2537C233.507 41.707 234.289 42.2453 234.822 42.8687C235.355 43.492 235.621 44.257 235.621 45.1637C235.621 45.753 235.44 46.2913 235.077 46.7787C234.714 47.266 234.165 47.657 233.428 47.9517C232.691 48.2463 231.779 48.3937 230.691 48.3937ZM231.966 40.9137C232.397 40.721 232.742 40.4433 233.003 40.0807C233.275 39.718 233.411 39.259 233.411 38.7037C233.411 38.2957 233.309 37.916 233.105 37.5647C232.912 37.2133 232.657 36.9357 232.34 36.7317C232.034 36.5163 231.711 36.4087 231.371 36.4087C230.884 36.4087 230.476 36.6013 230.147 36.9867C229.83 37.3607 229.671 37.8763 229.671 38.5337C229.671 39.4403 230.436 40.2337 231.966 40.9137ZM230.521 47.9687C231.246 47.9687 231.807 47.7703 232.204 47.3737C232.612 46.9657 232.816 46.399 232.816 45.6737C232.816 45.1297 232.544 44.58 232 44.0247C231.456 43.4693 230.736 42.999 229.841 42.6137C229.206 42.8403 228.708 43.1803 228.345 43.6337C227.982 44.0757 227.801 44.6423 227.801 45.3337C227.801 45.8097 227.92 46.2517 228.158 46.6597C228.407 47.0563 228.736 47.3737 229.144 47.6117C229.563 47.8497 230.022 47.9687 230.521 47.9687ZM241.75 47.8837L242.77 47.6287V36.7487L241.75 36.4937V36.2387H246.085C248.113 36.2387 249.666 36.76 250.743 37.8027C251.831 38.8453 252.375 40.3073 252.375 42.1887C252.375 44.07 251.831 45.532 250.743 46.5747C249.666 47.6173 248.113 48.1387 246.085 48.1387H241.75V47.8837ZM246.085 47.7137C247.139 47.7137 247.955 47.2887 248.533 46.4387C249.111 45.5773 249.4 44.1607 249.4 42.1887C249.4 40.2167 249.111 38.8057 248.533 37.9557C247.955 37.0943 247.139 36.6637 246.085 36.6637H245.575V47.7137H246.085ZM252.197 47.8837L253.557 47.3737L258.232 36.0687H258.742L263.587 47.6287L264.437 47.8837V48.1387H262.397C261.808 48.1387 261.326 48.0083 260.952 47.7477C260.578 47.4757 260.301 47.1243 260.119 46.6937L259.252 44.6537H255.189L254.067 47.3737L255.342 47.8837V48.1387H252.197V47.8837ZM255.359 44.2287H259.082L257.212 39.7577L255.359 44.2287ZM266.212 47.8837L267.232 47.6287V43.7187L263.747 36.7487L262.897 36.4937V36.2387H265.022C265.611 36.2387 266.081 36.3633 266.433 36.6127C266.795 36.862 267.09 37.219 267.317 37.6837L269.833 42.6987L272.417 37.0037L271.142 36.4937V36.2387H274.372V36.4937L273.012 37.0037L270.037 43.5487V47.6287L271.057 47.8837V48.1387H266.212V47.8837ZM278.703 48.3937C277.898 48.3937 277.144 48.2123 276.442 47.8497C276.124 47.691 275.858 47.504 275.643 47.2887C275.484 47.5493 275.286 47.7817 275.048 47.9857C274.844 48.133 274.73 48.2123 274.708 48.2237H274.283V44.9937H274.963C275.133 45.549 275.371 46.0477 275.677 46.4897C276.368 47.4757 277.263 47.9687 278.363 47.9687C279.009 47.9687 279.524 47.776 279.91 47.3907C280.295 47.0053 280.488 46.4897 280.488 45.8437C280.488 45.4697 280.374 45.1353 280.148 44.8407C279.932 44.546 279.66 44.2853 279.332 44.0587C279.003 43.832 278.544 43.5487 277.955 43.2087C277.207 42.7893 276.6 42.4097 276.136 42.0697C275.671 41.7297 275.274 41.3047 274.946 40.7947C274.617 40.2733 274.453 39.6613 274.453 38.9587C274.453 38.4033 274.606 37.9047 274.912 37.4627C275.229 37.0093 275.699 36.6523 276.323 36.3917C276.946 36.1197 277.711 35.9837 278.618 35.9837C279.275 35.9837 279.932 36.1707 280.59 36.5447C280.839 36.6807 281.088 36.862 281.338 37.0887C281.53 36.794 281.729 36.5617 281.933 36.3917C282.137 36.2443 282.25 36.165 282.273 36.1537H282.698V39.3837H282.018C281.87 38.8397 281.649 38.3467 281.355 37.9047C281.083 37.474 280.743 37.117 280.335 36.8337C279.938 36.5503 279.479 36.4087 278.958 36.4087C278.516 36.4087 278.136 36.5843 277.819 36.9357C277.501 37.287 277.343 37.7347 277.343 38.2787C277.343 38.698 277.462 39.0777 277.7 39.4177C277.949 39.7463 278.249 40.0353 278.601 40.2847C278.963 40.534 279.451 40.8343 280.063 41.1857C280.777 41.5937 281.355 41.9563 281.797 42.2737C282.239 42.591 282.613 42.9877 282.919 43.4637C283.225 43.9283 283.378 44.4667 283.378 45.0787C283.378 45.6907 283.202 46.2517 282.851 46.7617C282.499 47.2603 281.972 47.657 281.27 47.9517C280.567 48.2463 279.711 48.3937 278.703 48.3937Z" fill="white"/>
<path d="M150.09 69.035L150.09 15" stroke="white" stroke-width="0.75"/>
<path d="M191.6 28.1997C191.337 26.9464 190.196 26 188.831 26C188.519 26 188.266 26.2458 188.266 26.5499C188.266 26.854 188.519 27.0998 188.831 27.0998C189.766 27.0998 190.527 27.84 190.527 28.7496C190.527 29.6591 189.766 30.3993 188.831 30.3993C188.519 30.3993 188.266 30.6451 188.266 30.9492C188.266 31.2533 188.519 31.4992 188.831 31.4992C190.196 31.4992 191.337 30.5528 191.6 29.2995H199.005V34.2487H168.484V29.2995H176.397H178.093C178.405 29.2995 178.658 29.0537 178.658 28.7496C178.658 28.4455 178.405 28.1997 178.093 28.1997H177.066C177.3 27.5607 177.922 27.0998 178.658 27.0998C179.593 27.0998 180.353 27.84 180.353 28.7496C180.353 29.6591 179.593 30.3993 178.658 30.3993C178.346 30.3993 178.093 30.6451 178.093 30.9492C178.093 31.2533 178.346 31.4992 178.658 31.4992C180.216 31.4992 181.484 30.2657 181.484 28.7496C181.484 27.2335 180.216 26 178.658 26C177.293 26 176.152 26.9464 175.889 28.1997H167.354V35.3486V57.3452H200.135V35.3486V28.1997H191.6ZM199.005 56.2454H168.484V35.3486H199.005V56.2454Z" fill="white"/>
<path d="M182.049 27.0998C182.984 27.0998 183.745 27.84 183.745 28.7496C183.745 29.6591 182.984 30.3993 182.049 30.3993C181.737 30.3993 181.484 30.6451 181.484 30.9492C181.484 31.2533 181.737 31.4992 182.049 31.4992C183.607 31.4992 184.875 30.2657 184.875 28.7496C184.875 27.2335 183.607 26 182.049 26C181.737 26 181.484 26.2458 181.484 26.5499C181.484 26.854 181.737 27.0998 182.049 27.0998Z" fill="white"/>
<path d="M185.44 27.0998C186.375 27.0998 187.136 27.84 187.136 28.7496C187.136 29.6591 186.375 30.3993 185.44 30.3993C185.128 30.3993 184.875 30.6451 184.875 30.9492C184.875 31.2533 185.128 31.4992 185.44 31.4992C186.998 31.4992 188.266 30.2657 188.266 28.7496C188.266 27.2335 186.998 26 185.44 26C185.128 26 184.875 26.2458 184.875 26.5499C184.875 26.854 185.128 27.0998 185.44 27.0998Z" fill="white"/>
<path d="M172.441 39.7475H184.875C185.187 39.7475 185.44 39.5017 185.44 39.1976C185.44 38.8935 185.187 38.6476 184.875 38.6476H172.441C172.129 38.6476 171.876 38.8935 171.876 39.1976C171.876 39.5017 172.129 39.7475 172.441 39.7475Z" fill="white"/>
<path d="M195.048 47.4467H186.571C186.259 47.4467 186.005 47.6925 186.005 47.9966C186.005 48.3007 186.259 48.5465 186.571 48.5465H195.048C195.36 48.5465 195.614 48.3007 195.614 47.9966C195.614 47.6925 195.36 47.4467 195.048 47.4467Z" fill="white"/>
<path d="M172.441 44.1472H178.093C178.405 44.1472 178.658 43.9014 178.658 43.5973C178.658 43.2932 178.405 43.0474 178.093 43.0474H172.441C172.129 43.0474 171.876 43.2932 171.876 43.5973C171.876 43.9014 172.129 44.1472 172.441 44.1472Z" fill="white"/>
<path d="M195.048 51.8459H189.397C189.085 51.8459 188.831 52.0917 188.831 52.3958C188.831 52.6999 189.085 52.9457 189.397 52.9457H195.048C195.36 52.9457 195.614 52.6999 195.614 52.3958C195.614 52.0917 195.36 51.8459 195.048 51.8459Z" fill="white"/>
<path d="M183.179 43.5973C183.179 43.9014 183.433 44.1472 183.745 44.1472H192.222C192.534 44.1472 192.788 43.9014 192.788 43.5973C192.788 43.2932 192.534 43.0474 192.222 43.0474H183.745C183.433 43.0474 183.179 43.2932 183.179 43.5973Z" fill="white"/>
<path d="M181.32 43.988C181.422 43.8835 181.484 43.7405 181.484 43.5975C181.484 43.454 181.422 43.311 181.32 43.2071C181.111 43.0036 180.727 43.0036 180.517 43.2071C180.416 43.311 180.354 43.454 180.354 43.5975C180.354 43.7405 180.416 43.8835 180.517 43.988C180.625 44.0919 180.772 44.1475 180.919 44.1475C181.066 44.1475 181.213 44.0919 181.32 43.988Z" fill="white"/>
<path d="M174.702 47.9966C174.702 48.3007 174.955 48.5465 175.267 48.5465H183.745C184.057 48.5465 184.31 48.3007 184.31 47.9966C184.31 47.6925 184.057 47.4467 183.745 47.4467H175.267C174.955 47.4467 174.702 47.6925 174.702 47.9966Z" fill="white"/>
<path d="M172.441 48.5469C172.588 48.5469 172.735 48.4864 172.842 48.3875C172.944 48.283 173.006 48.14 173.006 47.997C173.006 47.8535 172.944 47.7105 172.842 47.6121C172.633 47.4031 172.249 47.4031 172.04 47.6066C171.938 47.7105 171.876 47.8535 171.876 47.997C171.876 48.14 171.938 48.283 172.04 48.3875C172.147 48.4864 172.288 48.5469 172.441 48.5469Z" fill="white"/>
<path d="M195.048 44.1475C195.195 44.1475 195.342 44.0919 195.45 43.988C195.557 43.8835 195.614 43.7405 195.614 43.5975C195.614 43.454 195.557 43.311 195.45 43.2071C195.235 43.0036 194.856 43.0036 194.647 43.2071C194.545 43.311 194.483 43.454 194.483 43.5975C194.483 43.7405 194.545 43.8835 194.647 43.988C194.755 44.0919 194.902 44.1475 195.048 44.1475Z" fill="white"/>
<path d="M186.571 51.8459H172.441C172.129 51.8459 171.876 52.0917 171.876 52.3958C171.876 52.6999 172.129 52.9457 172.441 52.9457H186.571C186.883 52.9457 187.136 52.6999 187.136 52.3958C187.136 52.0917 186.883 51.8459 186.571 51.8459Z" fill="white"/>
<defs>
<filter id="filter0_d_1_11286" x="0" y="0" width="333.753" height="94" filterUnits="userSpaceOnUse" color-interpolation-filters="sRGB">
<feFlood flood-opacity="0" result="BackgroundImageFix"/>
<feColorMatrix in="SourceAlpha" type="matrix" values="0 0 0 0 0 0 0 0 0 0 0 0 0 0 0 0 0 0 127 0" result="hardAlpha"/>
<feOffset dx="5" dy="5"/>
<feGaussianBlur stdDeviation="10"/>
<feColorMatrix type="matrix" values="0 0 0 0 0.890196 0 0 0 0 0.721569 0 0 0 0 0.45098 0 0 0 0.5 0"/>
<feBlend mode="normal" in2="BackgroundImageFix" result="effect1_dropShadow_1_11286"/>
<feBlend mode="normal" in="SourceGraphic" in2="effect1_dropShadow_1_11286" result="shape"/>
</filter>
</defs>
</svg>
