<svg width="334" height="94" viewBox="0 0 334 94" fill="none" xmlns="http://www.w3.org/2000/svg">
<g filter="url(#filter0_d_1_11358)">
<rect x="14.9999" y="15" width="293.753" height="54" fill="#E3B873"/>
</g>
<path d="M84.7772 48.3258C84.1086 48.3258 83.5192 48.2181 83.0092 48.0028C82.5106 47.7761 82.1252 47.4928 81.8532 47.1528C81.5926 46.8128 81.4622 46.4671 81.4622 46.1158C81.4622 45.7305 81.5756 45.4245 81.8022 45.1978C82.0402 44.9598 82.3519 44.8408 82.7372 44.8408C82.8279 44.8408 82.9186 44.8521 83.0092 44.8748C83.0999 44.8861 83.1622 44.8918 83.1962 44.8918L83.4172 44.9258V47.6458L83.7402 47.7818C83.9442 47.8611 84.1766 47.9008 84.4372 47.9008C84.9926 47.9008 85.4459 47.7535 85.7972 47.4588C86.1486 47.1641 86.4206 46.6201 86.6132 45.8268C86.8059 45.0335 86.9022 43.9115 86.9022 42.4608C86.8002 42.6308 86.6416 42.8008 86.4262 42.9708C85.9956 43.3108 85.5026 43.4808 84.9472 43.4808C84.1199 43.4808 83.3946 43.3278 82.7712 43.0218C82.1592 42.7045 81.6889 42.2681 81.3602 41.7128C81.0316 41.1575 80.8672 40.5285 80.8672 39.8258C80.8672 38.6131 81.2412 37.6611 81.9892 36.9698C82.7486 36.2671 83.8196 35.9158 85.2022 35.9158C86.6302 35.9158 87.7522 36.4258 88.5682 37.4458C89.3842 38.4658 89.7922 40.0241 89.7922 42.1208C89.7922 44.1608 89.3446 45.7078 88.4492 46.7618C87.5652 47.8045 86.3412 48.3258 84.7772 48.3258ZM85.2872 43.0558C85.7519 43.0558 86.1202 42.8291 86.3922 42.3758C86.6756 41.9225 86.8172 41.2141 86.8172 40.2508C86.8172 38.8115 86.6586 37.7858 86.3412 37.1738C86.0352 36.5618 85.6556 36.2558 85.2022 36.2558C84.9756 36.2558 84.7489 36.3691 84.5222 36.5958C84.3069 36.8225 84.1256 37.1908 83.9782 37.7008C83.8309 38.2108 83.7572 38.8625 83.7572 39.6558C83.7572 40.4491 83.8309 41.1008 83.9782 41.6108C84.1369 42.1208 84.3296 42.4891 84.5562 42.7158C84.7942 42.9425 85.0379 43.0558 85.2872 43.0558ZM96.3392 48.3258C95.4212 48.3258 94.5882 48.0821 93.8402 47.5948C93.0922 47.1075 92.4972 46.3991 92.0552 45.4698C91.6246 44.5291 91.4092 43.4128 91.4092 42.1208C91.4092 40.8288 91.6246 39.7181 92.0552 38.7888C92.4972 37.8481 93.0922 37.1341 93.8402 36.6468C94.5882 36.1595 95.4212 35.9158 96.3392 35.9158C97.2572 35.9158 98.0902 36.1595 98.8382 36.6468C99.5862 37.1341 100.176 37.8481 100.606 38.7888C101.048 39.7181 101.269 40.8288 101.269 42.1208C101.269 43.4128 101.048 44.5291 100.606 45.4698C100.176 46.3991 99.5862 47.1075 98.8382 47.5948C98.0902 48.0821 97.2572 48.3258 96.3392 48.3258ZM96.3392 47.9858C97.6426 47.9858 98.2942 46.0308 98.2942 42.1208C98.2942 38.2108 97.6426 36.2558 96.3392 36.2558C95.0359 36.2558 94.3842 38.2108 94.3842 42.1208C94.3842 46.0308 95.0359 47.9858 96.3392 47.9858ZM109.178 38.2958V47.3058L110.538 47.8158V48.0708H107.308V47.8158L108.668 47.3058V36.6808L107.478 36.4258V36.1708H109.773C110.362 36.1708 110.827 36.2955 111.167 36.5448C111.518 36.7828 111.818 37.1398 112.068 37.6158L115.774 44.7048L118.613 37.6158C118.805 37.1171 119.066 36.7545 119.395 36.5278C119.723 36.2898 120.228 36.1708 120.908 36.1708H122.693V36.4258L121.673 36.6808V47.5608L122.693 47.8158V48.0708H117.848V47.8158L118.868 47.5608V38.2958L114.873 48.2408H114.363L109.178 38.2958ZM124.059 47.3058C124.059 46.6371 124.189 46.0308 124.45 45.4868C124.722 44.9315 125.05 44.4498 125.436 44.0418C125.821 43.6338 126.325 43.1521 126.949 42.5968C127.527 42.0868 127.98 41.6618 128.309 41.3218C128.637 40.9705 128.915 40.5795 129.142 40.1488C129.368 39.7068 129.482 39.2308 129.482 38.7208C129.482 37.9728 129.3 37.3891 128.938 36.9698C128.575 36.5505 128.105 36.3408 127.527 36.3408C127.198 36.3408 126.864 36.3861 126.524 36.4768L126.167 36.5958V39.3158L125.946 39.3668C125.764 39.3895 125.611 39.4008 125.487 39.4008C125.101 39.4008 124.79 39.2875 124.552 39.0608C124.325 38.8228 124.212 38.5111 124.212 38.1258C124.212 37.7631 124.348 37.4118 124.62 37.0718C124.903 36.7318 125.317 36.4541 125.861 36.2388C126.416 36.0235 127.085 35.9158 127.867 35.9158C129.397 35.9158 130.53 36.2218 131.267 36.8338C132.003 37.4458 132.372 38.3015 132.372 39.4008C132.372 40.0921 132.19 40.6871 131.828 41.1858C131.476 41.6845 131.04 42.0981 130.519 42.4268C130.009 42.7555 129.323 43.1295 128.462 43.5488C127.736 43.9001 127.147 44.2118 126.694 44.4838C126.252 44.7445 125.838 45.0618 125.453 45.4358C125.079 45.8098 124.812 46.2348 124.654 46.7108H130.944C131.023 46.0988 131.216 45.5888 131.522 45.1808C131.646 44.9881 131.794 44.8181 131.964 44.6708H132.474V48.0708H124.059V47.3058Z" fill="white"/>
<path fill-rule="evenodd" clip-rule="evenodd" d="M35.2502 26.3819C35.2502 26.171 35.4285 26 35.6483 26H64.3115C64.5313 26 64.7096 26.171 64.7096 26.3819V54.004C64.7096 54.2149 64.5313 54.3858 64.3115 54.3858C64.0916 54.3858 63.9134 54.2149 63.9134 54.004V26.7637H35.6483C35.4285 26.7637 35.2502 26.5928 35.2502 26.3819Z" fill="white" stroke="white" stroke-width="0.5"/>
<path d="M35.668 54.5618L35.793 54.5618L35.793 54.4368L35.793 30.6781L37.4189 32.304C37.622 32.507 37.9512 32.507 38.1542 32.304C38.3573 32.1009 38.3573 31.7717 38.1542 31.5687L35.6407 29.0552C35.4377 28.8521 35.1085 28.8521 34.9054 29.0552L32.3919 31.5687C32.1888 31.7717 32.1888 32.1009 32.3919 32.304C32.595 32.507 32.9242 32.507 33.1272 32.304L34.7531 30.6781L34.7531 54.4368L34.7531 54.5618L34.8781 54.5618L35.668 54.5618Z" fill="white" stroke="white" stroke-width="0.25"/>
<path d="M34.7521 54.8319V54.9569H34.8771L58.7603 54.9569L57.1261 56.5826C56.922 56.7857 56.922 57.1152 57.1261 57.3184C57.3299 57.5211 57.6601 57.5211 57.8639 57.3184L60.3905 54.8049C60.5947 54.6017 60.5947 54.2722 60.3905 54.0691L57.8639 51.5556C57.6601 51.3528 57.3299 51.3528 57.1261 51.5556C56.922 51.7587 56.922 52.0882 57.1261 52.2914L58.7603 53.917L34.8771 53.917H34.7521V54.042V54.8319Z" fill="white" stroke="white" stroke-width="0.25"/>
<path fill-rule="evenodd" clip-rule="evenodd" d="M46.1624 26.1157C46.3167 26.2699 46.3167 26.52 46.1624 26.6742L41.4229 31.4137C41.2687 31.568 41.0186 31.568 40.8644 31.4137C40.7101 31.2595 40.7101 31.0094 40.8644 30.8552L45.6039 26.1157C45.7581 25.9614 46.0082 25.9614 46.1624 26.1157Z" fill="white" stroke="white" stroke-width="0.5" stroke-linecap="round" stroke-linejoin="round"/>
<path fill-rule="evenodd" clip-rule="evenodd" d="M64.4622 44.942C64.6164 45.0962 64.6164 45.3463 64.4622 45.5005L60.1177 49.8451C59.9634 49.9993 59.7133 49.9993 59.5591 49.8451C59.4049 49.6908 59.4049 49.4408 59.5591 49.2865L63.9036 44.942C64.0579 44.7877 64.308 44.7877 64.4622 44.942Z" fill="white" stroke="white" stroke-width="0.5" stroke-linecap="round" stroke-linejoin="round"/>
<path fill-rule="evenodd" clip-rule="evenodd" d="M52.085 26.1139C52.2402 26.2672 52.2418 26.5172 52.0885 26.6725L41.8196 37.073C41.6664 37.2282 41.4163 37.2298 41.2611 37.0766C41.1059 36.9233 41.1043 36.6732 41.2575 36.518L51.5264 26.1175C51.6797 25.9622 51.9298 25.9607 52.085 26.1139Z" fill="white" stroke="white" stroke-width="0.5" stroke-linecap="round" stroke-linejoin="round"/>
<path fill-rule="evenodd" clip-rule="evenodd" d="M64.5938 38.3589C64.748 38.5131 64.748 38.7632 64.5938 38.9175L54.5882 48.9231C54.434 49.0773 54.1839 49.0773 54.0296 48.9231C53.8754 48.7688 53.8754 48.5188 54.0296 48.3645L64.0352 38.3589C64.1895 38.2047 64.4396 38.2047 64.5938 38.3589Z" fill="white" stroke="white" stroke-width="0.5" stroke-linecap="round" stroke-linejoin="round"/>
<path fill-rule="evenodd" clip-rule="evenodd" d="M58.4084 26.249C58.5614 26.4045 58.5594 26.6545 58.4039 26.8075L41.9473 43.0008C41.7918 43.1538 41.5417 43.1518 41.3888 42.9963C41.2358 42.8408 41.2378 42.5908 41.3933 42.4378L57.8498 26.2445C58.0053 26.0915 58.2554 26.0935 58.4084 26.249Z" fill="white" stroke="white" stroke-width="0.5" stroke-linecap="round" stroke-linejoin="round"/>
<path fill-rule="evenodd" clip-rule="evenodd" d="M64.5939 32.1715C64.7481 32.3258 64.7481 32.5758 64.5939 32.7301L48.0056 49.3183C47.8514 49.4726 47.6013 49.4726 47.4471 49.3183C47.2928 49.1641 47.2928 48.914 47.4471 48.7598L64.0353 32.1715C64.1896 32.0173 64.4396 32.0173 64.5939 32.1715Z" fill="white" stroke="white" stroke-width="0.5" stroke-linecap="round" stroke-linejoin="round"/>
<path fill-rule="evenodd" clip-rule="evenodd" d="M64.3306 26.2467C64.4848 26.401 64.4848 26.651 64.3306 26.8053L41.6863 49.4495C41.5321 49.6038 41.282 49.6038 41.1278 49.4495C40.9735 49.2953 40.9735 49.0452 41.1278 48.891L63.772 26.2467C63.9263 26.0925 64.1763 26.0925 64.3306 26.2467Z" fill="white" stroke="white" stroke-width="0.5" stroke-linecap="round" stroke-linejoin="round"/>
<path d="M215.409 48.0708V47.8158L216.599 47.4758V38.1428L214.814 39.4008L214.474 38.9758L217.568 36.1708H219.404V47.4758L220.594 47.8158V48.0708H215.409ZM221.785 47.3058C221.785 46.6371 221.915 46.0308 222.176 45.4868C222.448 44.9315 222.776 44.4498 223.162 44.0418C223.547 43.6338 224.051 43.1521 224.675 42.5968C225.253 42.0868 225.706 41.6618 226.035 41.3218C226.363 40.9705 226.641 40.5795 226.868 40.1488C227.094 39.7068 227.208 39.2308 227.208 38.7208C227.208 37.9728 227.026 37.3891 226.664 36.9698C226.301 36.5505 225.831 36.3408 225.253 36.3408C224.924 36.3408 224.59 36.3861 224.25 36.4768L223.893 36.5958V39.3158L223.672 39.3668C223.49 39.3895 223.337 39.4008 223.213 39.4008C222.827 39.4008 222.516 39.2875 222.278 39.0608C222.051 38.8228 221.938 38.5111 221.938 38.1258C221.938 37.7631 222.074 37.4118 222.346 37.0718C222.629 36.7318 223.043 36.4541 223.587 36.2388C224.142 36.0235 224.811 35.9158 225.593 35.9158C227.123 35.9158 228.256 36.2218 228.993 36.8338C229.729 37.4458 230.098 38.3015 230.098 39.4008C230.098 40.0921 229.916 40.6871 229.554 41.1858C229.202 41.6845 228.766 42.0981 228.245 42.4268C227.735 42.7555 227.049 43.1295 226.188 43.5488C225.462 43.9001 224.873 44.2118 224.42 44.4838C223.978 44.7445 223.564 45.0618 223.179 45.4358C222.805 45.8098 222.538 46.2348 222.38 46.7108H228.67C228.749 46.0988 228.942 45.5888 229.248 45.1808C229.372 44.9881 229.52 44.8181 229.69 44.6708H230.2V48.0708H221.785V47.3058ZM236.068 48.3258C234.64 48.3258 233.558 48.0425 232.821 47.4758C232.096 46.9091 231.733 46.1725 231.733 45.2658C231.733 44.6425 232.005 44.0418 232.549 43.4638C233.093 42.8745 233.756 42.4551 234.538 42.2058C233.79 41.7865 233.218 41.3275 232.821 40.8288C232.436 40.3188 232.243 39.7011 232.243 38.9758C232.243 38.0691 232.606 37.3325 233.331 36.7658C234.068 36.1991 235.15 35.9158 236.578 35.9158C237.292 35.9158 237.915 36.0461 238.448 36.3068C238.992 36.5675 239.411 36.9075 239.706 37.3268C240.001 37.7461 240.148 38.1825 240.148 38.6358C240.148 39.1685 239.916 39.6841 239.451 40.1828C238.998 40.6815 238.465 41.0158 237.853 41.1858C238.884 41.6391 239.666 42.1775 240.199 42.8008C240.732 43.4241 240.998 44.1891 240.998 45.0958C240.998 45.6851 240.817 46.2235 240.454 46.7108C240.091 47.1981 239.542 47.5891 238.805 47.8838C238.068 48.1785 237.156 48.3258 236.068 48.3258ZM237.343 40.8458C237.774 40.6531 238.119 40.3755 238.38 40.0128C238.652 39.6501 238.788 39.1911 238.788 38.6358C238.788 38.2278 238.686 37.8481 238.482 37.4968C238.289 37.1455 238.034 36.8678 237.717 36.6638C237.411 36.4485 237.088 36.3408 236.748 36.3408C236.261 36.3408 235.853 36.5335 235.524 36.9188C235.207 37.2928 235.048 37.8085 235.048 38.4658C235.048 39.3725 235.813 40.1658 237.343 40.8458ZM235.898 47.9008C236.623 47.9008 237.184 47.7025 237.581 47.3058C237.989 46.8978 238.193 46.3311 238.193 45.6058C238.193 45.0618 237.921 44.5121 237.377 43.9568C236.833 43.4015 236.113 42.9311 235.218 42.5458C234.583 42.7725 234.085 43.1125 233.722 43.5658C233.359 44.0078 233.178 44.5745 233.178 45.2658C233.178 45.7418 233.297 46.1838 233.535 46.5918C233.784 46.9885 234.113 47.3058 234.521 47.5438C234.94 47.7818 235.399 47.9008 235.898 47.9008ZM247.127 47.8158L248.147 47.5608V36.6808L247.127 36.4258V36.1708H251.462C253.49 36.1708 255.043 36.6921 256.12 37.7348C257.208 38.7775 257.752 40.2395 257.752 42.1208C257.752 44.0021 257.208 45.4641 256.12 46.5068C255.043 47.5495 253.49 48.0708 251.462 48.0708H247.127V47.8158ZM251.462 47.6458C252.516 47.6458 253.332 47.2208 253.91 46.3708C254.488 45.5095 254.777 44.0928 254.777 42.1208C254.777 40.1488 254.488 38.7378 253.91 37.8878C253.332 37.0265 252.516 36.5958 251.462 36.5958H250.952V47.6458H251.462ZM257.574 47.8158L258.934 47.3058L263.609 36.0008H264.119L268.964 47.5608L269.814 47.8158V48.0708H267.774C267.185 48.0708 266.703 47.9405 266.329 47.6798C265.955 47.4078 265.678 47.0565 265.496 46.6258L264.629 44.5858H260.566L259.444 47.3058L260.719 47.8158V48.0708H257.574V47.8158ZM260.736 44.1608H264.459L262.589 39.6898L260.736 44.1608ZM271.589 47.8158L272.609 47.5608V43.6508L269.124 36.6808L268.274 36.4258V36.1708H270.399C270.988 36.1708 271.458 36.2955 271.81 36.5448C272.172 36.7941 272.467 37.1511 272.694 37.6158L275.21 42.6308L277.794 36.9358L276.519 36.4258V36.1708H279.749V36.4258L278.389 36.9358L275.414 43.4808V47.5608L276.434 47.8158V48.0708H271.589V47.8158ZM284.08 48.3258C283.275 48.3258 282.521 48.1445 281.819 47.7818C281.501 47.6231 281.235 47.4361 281.02 47.2208C280.861 47.4815 280.663 47.7138 280.425 47.9178C280.221 48.0651 280.107 48.1445 280.085 48.1558H279.66V44.9258H280.34C280.51 45.4811 280.748 45.9798 281.054 46.4218C281.745 47.4078 282.64 47.9008 283.74 47.9008C284.386 47.9008 284.901 47.7081 285.287 47.3228C285.672 46.9375 285.865 46.4218 285.865 45.7758C285.865 45.4018 285.751 45.0675 285.525 44.7728C285.309 44.4781 285.037 44.2175 284.709 43.9908C284.38 43.7641 283.921 43.4808 283.332 43.1408C282.584 42.7215 281.977 42.3418 281.513 42.0018C281.048 41.6618 280.651 41.2368 280.323 40.7268C279.994 40.2055 279.83 39.5935 279.83 38.8908C279.83 38.3355 279.983 37.8368 280.289 37.3948C280.606 36.9415 281.076 36.5845 281.7 36.3238C282.323 36.0518 283.088 35.9158 283.995 35.9158C284.652 35.9158 285.309 36.1028 285.967 36.4768C286.216 36.6128 286.465 36.7941 286.715 37.0208C286.907 36.7261 287.106 36.4938 287.31 36.3238C287.514 36.1765 287.627 36.0971 287.65 36.0858H288.075V39.3158H287.395C287.247 38.7718 287.026 38.2788 286.732 37.8368C286.46 37.4061 286.12 37.0491 285.712 36.7658C285.315 36.4825 284.856 36.3408 284.335 36.3408C283.893 36.3408 283.513 36.5165 283.196 36.8678C282.878 37.2191 282.72 37.6668 282.72 38.2108C282.72 38.6301 282.839 39.0098 283.077 39.3498C283.326 39.6785 283.626 39.9675 283.978 40.2168C284.34 40.4661 284.828 40.7665 285.44 41.1178C286.154 41.5258 286.732 41.8885 287.174 42.2058C287.616 42.5231 287.99 42.9198 288.296 43.3958C288.602 43.8605 288.755 44.3988 288.755 45.0108C288.755 45.6228 288.579 46.1838 288.228 46.6938C287.876 47.1925 287.349 47.5891 286.647 47.8838C285.944 48.1785 285.088 48.3258 284.08 48.3258Z" fill="white"/>
<path d="M150.09 69.035L150.09 15" stroke="white" stroke-width="0.75"/>
<path d="M191.597 28.1987C191.334 26.946 190.193 26 188.829 26C188.517 26 188.264 26.2457 188.264 26.5497C188.264 26.8536 188.517 27.0993 188.829 27.0993C189.763 27.0993 190.524 27.8392 190.524 28.7484C190.524 29.6575 189.763 30.3974 188.829 30.3974C188.517 30.3974 188.264 30.6431 188.264 30.947C188.264 31.251 188.517 31.4967 188.829 31.4967C190.193 31.4967 191.334 30.5507 191.597 29.298H198.998V34.2451H168.491V29.298H176.4H178.095C178.407 29.298 178.66 29.0523 178.66 28.7484C178.66 28.4444 178.407 28.1987 178.095 28.1987H177.069C177.303 27.56 177.925 27.0993 178.66 27.0993C179.595 27.0993 180.355 27.8392 180.355 28.7484C180.355 29.6575 179.595 30.3974 178.66 30.3974C178.348 30.3974 178.095 30.6431 178.095 30.947C178.095 31.251 178.348 31.4967 178.66 31.4967C180.218 31.4967 181.485 30.2638 181.485 28.7484C181.485 27.2329 180.218 26 178.66 26C177.296 26 176.155 26.946 175.892 28.1987H167.361V35.3444V57.3313H200.128V35.3444V28.1987H191.597ZM198.998 56.232H168.491V35.3444H198.998V56.232Z" fill="white"/>
<path d="M182.05 27.0993C182.984 27.0993 183.745 27.8392 183.745 28.7484C183.745 29.6575 182.984 30.3974 182.05 30.3974C181.738 30.3974 181.485 30.6431 181.485 30.947C181.485 31.251 181.738 31.4967 182.05 31.4967C183.607 31.4967 184.874 30.2638 184.874 28.7484C184.874 27.2329 183.607 26 182.05 26C181.738 26 181.485 26.2457 181.485 26.5497C181.485 26.8536 181.738 27.0993 182.05 27.0993Z" fill="white"/>
<path d="M185.439 27.0993C186.374 27.0993 187.134 27.8392 187.134 28.7484C187.134 29.6575 186.374 30.3974 185.439 30.3974C185.128 30.3974 184.874 30.6431 184.874 30.947C184.874 31.251 185.128 31.4967 185.439 31.4967C186.997 31.4967 188.264 30.2638 188.264 28.7484C188.264 27.2329 186.997 26 185.439 26C185.128 26 184.874 26.2457 184.874 26.5497C184.874 26.8536 185.128 27.0993 185.439 27.0993Z" fill="white"/>
<path d="M172.446 39.7416H184.874C185.186 39.7416 185.439 39.4959 185.439 39.1919C185.439 38.8879 185.186 38.6422 184.874 38.6422H172.446C172.134 38.6422 171.881 38.8879 171.881 39.1919C171.881 39.4959 172.134 39.7416 172.446 39.7416Z" fill="white"/>
<path d="M195.043 47.4373H186.569C186.257 47.4373 186.004 47.683 186.004 47.9869C186.004 48.2909 186.257 48.5366 186.569 48.5366H195.043C195.355 48.5366 195.608 48.2909 195.608 47.9869C195.608 47.683 195.355 47.4373 195.043 47.4373Z" fill="white"/>
<path d="M172.446 44.1395H178.095C178.407 44.1395 178.66 43.8938 178.66 43.5898C178.66 43.2859 178.407 43.0402 178.095 43.0402H172.446C172.134 43.0402 171.881 43.2859 171.881 43.5898C171.881 43.8938 172.134 44.1395 172.446 44.1395Z" fill="white"/>
<path d="M195.043 51.8347H189.394C189.082 51.8347 188.829 52.0804 188.829 52.3844C188.829 52.6884 189.082 52.9341 189.394 52.9341H195.043C195.355 52.9341 195.608 52.6884 195.608 52.3844C195.608 52.0804 195.355 51.8347 195.043 51.8347Z" fill="white"/>
<path d="M183.18 43.5898C183.18 43.8938 183.433 44.1395 183.745 44.1395H192.219C192.531 44.1395 192.784 43.8938 192.784 43.5898C192.784 43.2859 192.531 43.0402 192.219 43.0402H183.745C183.433 43.0402 183.18 43.2859 183.18 43.5898Z" fill="white"/>
<path d="M181.321 43.9799C181.423 43.8754 181.485 43.7325 181.485 43.5896C181.485 43.4462 181.423 43.3032 181.321 43.1993C181.112 42.996 180.728 42.996 180.519 43.1993C180.417 43.3032 180.355 43.4462 180.355 43.5896C180.355 43.7325 180.417 43.8754 180.519 43.9799C180.626 44.0838 180.773 44.1393 180.92 44.1393C181.067 44.1393 181.214 44.0838 181.321 43.9799Z" fill="white"/>
<path d="M174.706 47.9869C174.706 48.2909 174.959 48.5366 175.27 48.5366H183.745C184.056 48.5366 184.31 48.2909 184.31 47.9869C184.31 47.683 184.056 47.4373 183.745 47.4373H175.27C174.959 47.4373 174.706 47.683 174.706 47.9869Z" fill="white"/>
<path d="M172.446 48.5366C172.593 48.5366 172.74 48.4761 172.847 48.3772C172.949 48.2727 173.011 48.1298 173.011 47.9869C173.011 47.8434 172.949 47.7005 172.847 47.6021C172.638 47.3932 172.254 47.3932 172.045 47.5966C171.943 47.7005 171.881 47.8434 171.881 47.9869C171.881 48.1298 171.943 48.2727 172.045 48.3772C172.152 48.4761 172.293 48.5366 172.446 48.5366Z" fill="white"/>
<path d="M195.043 44.1393C195.19 44.1393 195.337 44.0838 195.444 43.9799C195.552 43.8754 195.608 43.7325 195.608 43.5896C195.608 43.4462 195.552 43.3032 195.444 43.1993C195.23 42.996 194.851 42.996 194.642 43.1993C194.541 43.3032 194.478 43.4462 194.478 43.5896C194.478 43.7325 194.541 43.8754 194.642 43.9799C194.75 44.0838 194.896 44.1393 195.043 44.1393Z" fill="white"/>
<path d="M186.569 51.8347H172.446C172.134 51.8347 171.881 52.0804 171.881 52.3844C171.881 52.6884 172.134 52.9341 172.446 52.9341H186.569C186.881 52.9341 187.134 52.6884 187.134 52.3844C187.134 52.0804 186.881 51.8347 186.569 51.8347Z" fill="white"/>
<defs>
<filter id="filter0_d_1_11358" x="-6.10352e-05" y="0" width="333.753" height="94" filterUnits="userSpaceOnUse" color-interpolation-filters="sRGB">
<feFlood flood-opacity="0" result="BackgroundImageFix"/>
<feColorMatrix in="SourceAlpha" type="matrix" values="0 0 0 0 0 0 0 0 0 0 0 0 0 0 0 0 0 0 127 0" result="hardAlpha"/>
<feOffset dx="5" dy="5"/>
<feGaussianBlur stdDeviation="10"/>
<feColorMatrix type="matrix" values="0 0 0 0 0.890196 0 0 0 0 0.721569 0 0 0 0 0.45098 0 0 0 0.5 0"/>
<feBlend mode="normal" in2="BackgroundImageFix" result="effect1_dropShadow_1_11358"/>
<feBlend mode="normal" in="SourceGraphic" in2="effect1_dropShadow_1_11358" result="shape"/>
</filter>
</defs>
</svg>
