<svg width="114" height="30" viewBox="0 0 114 30" fill="none" xmlns="http://www.w3.org/2000/svg">
<g id="Group 2.14">
<g id="Group 11.4">
<rect id="Rectangle 6.7" x="0.000610352" y="14" width="32" height="1.54334" rx="0.771672" fill="#E3B873"/>
<rect id="Rectangle 6.8" x="82.0006" y="14" width="32" height="1.54334" rx="0.771672" fill="#E3B873"/>
<g id="Group 43">
<g id="Group">
<path id="Vector" d="M62.4261 9.56018L57.5806 8.10643C57.2169 7.99791 56.843 7.9597 56.4726 7.97323V7.96076H50.5833L40.1396 4.49023L40.1712 19.1652L43.1692 20.6637L44.9443 16.3243L47.5373 17.3617L48.2097 15.6814L49.1835 16.6551L48.275 17.5639C47.9592 17.8796 47.7783 18.3164 47.7783 18.7632C47.7783 19.6775 48.5074 20.421 49.4143 20.4531C49.4459 21.3393 50.1583 22.0517 51.0445 22.0833C51.0761 22.9695 51.7885 23.6819 52.6747 23.7135C52.7073 24.6204 53.4502 25.3495 54.3648 25.3495C54.8114 25.3495 55.2484 25.1685 55.5639 24.8528L56.4726 23.9443L56.8377 24.3094C57.1535 24.6251 57.5902 24.8061 58.037 24.8061C58.9516 24.8061 59.6948 24.077 59.7269 23.1701C60.6131 23.1385 61.3255 22.4261 61.3571 21.5399C62.2433 21.5083 62.9557 20.7959 62.9873 19.9097C63.8942 19.877 64.6236 19.1341 64.6236 18.2198C64.6236 18.1426 64.6111 18.0664 64.6008 17.9897L65.3806 17.2099L66.0107 18.4708L69.424 16.7639L71.4866 20.702L73.8613 19.1195V5.07476L62.4261 9.56018ZM42.6062 19.1673L41.257 18.4925L41.2296 5.99758L47.1842 7.97668L42.6062 19.1673ZM46.9321 15.9488L45.3553 15.3184L48.2179 8.32002L49.7757 8.83795L46.9321 15.9488ZM48.8651 18.7632C48.8651 18.6027 48.9295 18.4458 49.0431 18.332L49.9985 17.3768C50.1121 17.2633 50.2692 17.1985 50.4294 17.1985C50.7654 17.1985 51.0386 17.4721 51.0386 17.8077C51.0386 17.968 50.9739 18.1251 50.8603 18.2386L49.9052 19.1941C49.7916 19.3076 49.6345 19.3721 49.4743 19.3721C49.1383 19.3721 48.8651 19.0988 48.8651 18.7632ZM50.4952 20.3934C50.4952 20.2328 50.5597 20.076 50.6733 19.9622L51.6287 19.007C51.7423 18.8935 51.8994 18.8287 52.0596 18.8287C52.3955 18.8287 52.6688 19.1023 52.6688 19.4379C52.6688 19.5982 52.6041 19.7553 52.4905 19.8688L51.5353 20.8243C51.4218 20.9378 51.2647 21.0023 51.1044 21.0023C50.7685 21.0023 50.4952 20.729 50.4952 20.3934ZM52.1254 22.0236C52.1254 21.863 52.1899 21.7062 52.3035 21.5924L53.2589 20.6372C53.3725 20.5237 53.5296 20.4589 53.6898 20.4589C54.0257 20.4589 54.299 20.7325 54.299 21.0681C54.299 21.2284 54.2343 21.3854 54.1207 21.499L53.1655 22.4545C53.052 22.568 52.8949 22.6325 52.7346 22.6325C52.3987 22.6325 52.1254 22.3592 52.1254 22.0236ZM55.7509 23.1292L54.7957 24.0847C54.6822 24.1982 54.5251 24.2627 54.3648 24.2627C54.0289 24.2627 53.7556 23.9894 53.7556 23.6538C53.7556 23.4932 53.8201 23.3364 53.9337 23.2226L54.8891 22.2674C55.0027 22.1538 55.1598 22.0891 55.32 22.0891C55.6559 22.0891 55.9292 22.3627 55.9292 22.6983C55.9292 22.8586 55.8645 23.0156 55.7509 23.1292ZM62.9276 18.8287C62.7673 18.8287 62.6103 18.7642 62.4967 18.6507L57.9436 14.0973L57.1752 14.8657L61.7283 19.4188C61.8419 19.5326 61.9066 19.6895 61.9066 19.85C61.9066 20.1856 61.6333 20.4589 61.2974 20.4589C61.1371 20.4589 60.9801 20.3944 60.8665 20.2809L56.3134 15.7275L55.545 16.4959L60.0981 21.049C60.2117 21.1628 60.2764 21.3196 60.2764 21.4802C60.2764 21.8158 60.0031 22.0891 59.6672 22.0891C59.5069 22.0891 59.3499 22.0246 59.2363 21.9111L54.6832 17.3577L53.9148 18.1261L58.4679 22.6792C58.5815 22.793 58.6462 22.9498 58.6462 23.1104C58.6462 23.446 58.3729 23.7193 58.037 23.7193C57.8768 23.7193 57.7197 23.6548 57.6061 23.5413L56.9932 22.9281C57.0041 22.8522 57.016 22.776 57.016 22.6983C57.016 21.7837 56.2866 21.0405 55.3797 21.0084C55.3482 20.1222 54.6357 19.4098 53.7495 19.3782C53.718 18.492 53.0055 17.7796 52.1193 17.748C52.0867 16.8411 51.344 16.1117 50.4294 16.1117C50.3522 16.1117 50.2761 16.1242 50.1997 16.1345L48.6483 14.5832L50.863 9.04756H54.074L52.0787 11.0431C51.758 11.3631 51.582 11.7892 51.582 12.2424C51.582 13.1774 52.3427 13.9381 53.278 13.9381C53.7246 13.9381 54.1616 13.7572 54.4771 13.4414L55.9168 12.0015C56.2113 11.708 56.73 11.6966 57.0367 11.9776L58.3071 13.1421C58.7293 13.529 59.1984 13.8508 59.7004 14.1029L63.3585 17.7886C63.4721 17.9024 63.5368 18.0593 63.5368 18.2198C63.5368 18.5554 63.2635 18.8287 62.9276 18.8287ZM64.0802 16.9735L61.8466 14.723C62.0462 14.7418 62.2473 14.7532 62.45 14.7532V13.6664C61.1849 13.6664 59.9742 13.1955 59.0418 12.3406L57.7712 11.1766C57.054 10.518 55.8374 10.5443 55.1489 11.2336L53.7095 12.6733C53.5954 12.7863 53.4383 12.8513 53.278 12.8513C52.9421 12.8513 52.6688 12.5781 52.6688 12.2424C52.6688 12.0792 52.7317 11.9267 52.8469 11.8112L54.9183 9.74007C55.527 9.1314 56.441 8.89977 57.2681 9.14759L62.0685 10.5875L64.8674 16.1863L64.0802 16.9735ZM66.4966 17.0128L63.2019 10.423L65.6082 9.47899L68.9196 15.801L66.4966 17.0128ZM72.7746 18.5382L71.8886 19.1288L66.626 9.08019L72.7746 6.6686V18.5382Z" fill="#E3B873"/>
</g>
<circle id="Ellipse" cx="59.6667" cy="1.70141" r="0.485591" fill="#E3B873"/>
<circle id="Ellipse_2" cx="47.4099" cy="24.6306" r="0.485591" fill="#E3B873"/>
<circle id="Ellipse_3" cx="49.468" cy="26.3191" r="0.485591" fill="#E3B873"/>
<circle id="Ellipse_4" cx="51.8166" cy="27.5579" r="0.485591" fill="#E3B873"/>
<circle id="Ellipse_5" cx="54.3655" cy="28.3503" r="0.485591" fill="#E3B873"/>
<circle id="Ellipse_6" cx="62.2141" cy="2.47436" r="0.485591" fill="#E3B873"/>
<circle id="Ellipse_7" cx="64.5632" cy="3.72876" r="0.485591" fill="#E3B873"/>
<path id="Vector_2" d="M66.8305 3.02686V5.82855H63.9971" stroke="#E3B873" stroke-linecap="round" stroke-linejoin="round"/>
<path id="Vector_3" d="M45.0104 24.314L45.0104 22.0471L47.2744 22.0471" stroke="#E3B873" stroke-linecap="round" stroke-linejoin="round"/>
<path id="Vector 2.2" d="M47.8008 5.00987C49.3359 3.67406 50.3124 3.05949 52.1519 2.34124C54.1033 1.5793 55.4237 1.40038 57.5441 1.40039" stroke="#E3B873" stroke-linecap="round"/>
<path id="Vector 2.3" d="M68.4046 22.4984C67.2633 24.2786 65.1376 26.0167 63.4089 26.9712C61.575 27.9837 59.6102 28.5543 56.9931 28.6906" stroke="#E3B873" stroke-linecap="round"/>
</g>
</g>
</g>
</svg>
