<svg width="729" height="449" viewBox="0 0 729 449" fill="none" xmlns="http://www.w3.org/2000/svg">
<path d="M257.128 318.696H200.13V451.996H257.128V318.696Z" fill="#333333"/>
<path d="M226.038 311.971H200.13V319.559H226.038V311.971Z" fill="#333333"/>
<path d="M215.157 307.66H200.13V311.971H215.157V307.66Z" fill="#333333"/>
<path opacity="0.06" d="M233.293 328.008H223.966V334.906H233.293V328.008Z" fill="white"/>
<path opacity="0.12" d="M233.293 345.08H223.966V351.978H233.293V345.08Z" fill="white"/>
<path opacity="0.19" d="M233.293 379.224H223.966V386.122H233.293V379.224Z" fill="white"/>
<path opacity="0.14" d="M233.293 413.368H223.966V420.266H233.293V413.368Z" fill="white"/>
<path opacity="0.1" d="M233.293 430.44H223.966V437.338H233.293V430.44Z" fill="white"/>
<path d="M114.116 333.181H36.0461V404.573H114.116V333.181Z" fill="#333333"/>
<path d="M101.853 326.801H48.482V357.496H101.853V326.801Z" fill="#333333"/>
<path d="M119.815 378.189H41.7458V449.581H119.815V378.189Z" fill="#333333"/>
<path d="M107.38 371.808H54.009V402.503H107.38V371.808Z" fill="#333333"/>
<path d="M223.793 368.704H145.724V450.961H223.793V368.704Z" fill="#333333"/>
<path d="M211.53 361.462H158.159V396.985H211.53V361.462Z" fill="#333333"/>
<path d="M485.119 393.71H407.049V473.206H485.119V393.71Z" fill="#333333"/>
<path d="M472.856 386.639H419.485V420.956H472.856V386.639Z" fill="#333333"/>
<path d="M315.853 229.542H228.629V450.789H315.853V229.542Z" fill="#333333"/>
<path opacity="0.46" d="M254.019 239.544H232.947V243.511H254.019V239.544Z" fill="#E6E6E6"/>
<path opacity="0.34" d="M282.863 239.544H261.792V243.511H282.863V239.544Z" fill="#E6E6E6"/>
<path opacity="0.52" d="M311.535 239.544H290.463V243.511H311.535V239.544Z" fill="#E6E6E6"/>
<path opacity="0.54" d="M254.019 248.684H232.947V252.65H254.019V248.684Z" fill="#E6E6E6"/>
<path opacity="0.3" d="M282.863 248.684H261.792V252.65H282.863V248.684Z" fill="#E6E6E6"/>
<path opacity="0.06" d="M311.535 248.684H290.463V252.65H311.535V248.684Z" fill="#E6E6E6"/>
<path opacity="0.15" d="M254.019 257.823H232.947V261.79H254.019V257.823Z" fill="#E6E6E6"/>
<path opacity="0.42" d="M282.863 257.823H261.792V261.79H282.863V257.823Z" fill="#E6E6E6"/>
<path opacity="0.48" d="M311.535 257.823H290.463V261.79H311.535V257.823Z" fill="#E6E6E6"/>
<path opacity="0.18" d="M254.019 266.963H232.947V270.929H254.019V266.963Z" fill="#E6E6E6"/>
<path opacity="0.28" d="M311.535 266.963H290.463V270.929H311.535V266.963Z" fill="#E6E6E6"/>
<path opacity="0.29" d="M254.019 276.102H232.947V280.069H254.019V276.102Z" fill="#E6E6E6"/>
<path opacity="0.28" d="M282.863 276.102H261.792V280.069H282.863V276.102Z" fill="#E6E6E6"/>
<path opacity="0.56" d="M311.535 276.102H290.463V280.069H311.535V276.102Z" fill="#E6E6E6"/>
<path opacity="0.41" d="M254.019 285.242H232.947V289.208H254.019V285.242Z" fill="#E6E6E6"/>
<path opacity="0.16" d="M282.863 285.242H261.792V289.208H282.863V285.242Z" fill="#E6E6E6"/>
<path opacity="0.4" d="M311.535 285.242H290.463V289.208H311.535V285.242Z" fill="#E6E6E6"/>
<path opacity="0.1" d="M254.019 294.382H232.947V298.348H254.019V294.382Z" fill="#E6E6E6"/>
<path opacity="0.17" d="M282.863 294.382H261.792V298.348H282.863V294.382Z" fill="#E6E6E6"/>
<path opacity="0.08" d="M311.535 294.382H290.463V298.348H311.535V294.382Z" fill="#E6E6E6"/>
<path opacity="0.49" d="M254.019 303.521H232.947V307.487H254.019V303.521Z" fill="#E6E6E6"/>
<path opacity="0.58" d="M282.863 303.521H261.792V307.487H282.863V303.521Z" fill="#E6E6E6"/>
<path opacity="0.58" d="M311.535 303.521H290.463V307.487H311.535V303.521Z" fill="#E6E6E6"/>
<path opacity="0.26" d="M254.019 312.661H232.947V316.627H254.019V312.661Z" fill="#E6E6E6"/>
<path opacity="0.37" d="M282.863 312.661H261.792V316.627H282.863V312.661Z" fill="#E6E6E6"/>
<path opacity="0.34" d="M311.535 312.661H290.463V316.627H311.535V312.661Z" fill="#E6E6E6"/>
<path opacity="0.55" d="M254.019 321.8H232.947V325.766H254.019V321.8Z" fill="#E6E6E6"/>
<path opacity="0.12" d="M282.863 321.8H261.792V325.766H282.863V321.8Z" fill="#E6E6E6"/>
<path opacity="0.6" d="M311.535 321.8H290.463V325.766H311.535V321.8Z" fill="#E6E6E6"/>
<path opacity="0.02" d="M254.019 330.94H232.947V334.906H254.019V330.94Z" fill="#E6E6E6"/>
<path opacity="0.28" d="M282.863 330.94H261.792V334.906H282.863V330.94Z" fill="#E6E6E6"/>
<path opacity="0.21" d="M311.535 330.94H290.463V334.906H311.535V330.94Z" fill="#E6E6E6"/>
<path opacity="0.57" d="M254.019 340.079H232.947V344.046H254.019V340.079Z" fill="#E6E6E6"/>
<path opacity="0.38" d="M282.863 340.079H261.792V344.046H282.863V340.079Z" fill="#E6E6E6"/>
<path opacity="0.25" d="M311.535 340.079H290.463V344.046H311.535V340.079Z" fill="#E6E6E6"/>
<path opacity="0.15" d="M254.019 349.219H232.947V353.185H254.019V349.219Z" fill="#E6E6E6"/>
<path opacity="0.47" d="M282.863 349.219H261.792V353.185H282.863V349.219Z" fill="#E6E6E6"/>
<path opacity="0.3" d="M311.535 349.219H290.463V353.185H311.535V349.219Z" fill="#E6E6E6"/>
<path opacity="0.4" d="M254.019 358.358H232.947V362.325H254.019V358.358Z" fill="#E6E6E6"/>
<path opacity="0.39" d="M282.863 358.358H261.792V362.325H282.863V358.358Z" fill="#E6E6E6"/>
<path opacity="0.24" d="M311.535 358.358H290.463V362.325H311.535V358.358Z" fill="#E6E6E6"/>
<path opacity="0.46" d="M254.019 367.498H232.947V371.464H254.019V367.498Z" fill="#E6E6E6"/>
<path opacity="0.22" d="M282.863 367.498H261.792V371.464H282.863V367.498Z" fill="#E6E6E6"/>
<path opacity="0.11" d="M311.535 367.498H290.463V371.464H311.535V367.498Z" fill="#E6E6E6"/>
<path opacity="0.11" d="M282.863 376.638H261.792V380.604H282.863V376.638Z" fill="#E6E6E6"/>
<path opacity="0.02" d="M311.535 376.638H290.463V380.604H311.535V376.638Z" fill="#E6E6E6"/>
<path opacity="0.27" d="M254.019 385.777H232.947V389.744H254.019V385.777Z" fill="#E6E6E6"/>
<path opacity="0.21" d="M282.863 385.777H261.792V389.744H282.863V385.777Z" fill="#E6E6E6"/>
<path opacity="0.49" d="M311.535 385.777H290.463V389.744H311.535V385.777Z" fill="#E6E6E6"/>
<path opacity="0.6" d="M254.019 394.917H232.947V398.883H254.019V394.917Z" fill="#E6E6E6"/>
<path opacity="0.31" d="M282.863 394.917H261.792V398.883H282.863V394.917Z" fill="#E6E6E6"/>
<path opacity="0.22" d="M311.535 394.917H290.463V398.883H311.535V394.917Z" fill="#E6E6E6"/>
<path opacity="0.54" d="M254.019 404.056H232.947V408.023H254.019V404.056Z" fill="#E6E6E6"/>
<path opacity="0.6" d="M282.863 404.056H261.792V408.023H282.863V404.056Z" fill="#E6E6E6"/>
<path opacity="0.08" d="M311.535 404.056H290.463V408.023H311.535V404.056Z" fill="#E6E6E6"/>
<path opacity="0.55" d="M282.863 413.196H261.792V417.162H282.863V413.196Z" fill="#E6E6E6"/>
<path d="M311.535 413.196H290.463V417.162H311.535V413.196Z" fill="#E6E6E6"/>
<path opacity="0.6" d="M255.401 239.544H254.019V417.162H255.401V239.544Z" fill="#E6E6E6"/>
<path opacity="0.6" d="M290.463 239.544H289.081V417.162H290.463V239.544Z" fill="#E6E6E6"/>
<path d="M359.378 229.542H315.853V450.789H359.378V229.542Z" fill="#4D4D4D"/>
<path opacity="0.69" d="M352.988 239.544H320.171V243.511H352.988V239.544Z" fill="#E6E6E6"/>
<path opacity="0.79" d="M352.988 248.684H320.171V252.65H352.988V248.684Z" fill="#E6E6E6"/>
<path opacity="0.19" d="M352.988 257.823H320.171V261.79H352.988V257.823Z" fill="#E6E6E6"/>
<path opacity="0.88" d="M352.988 266.963H320.171V270.929H352.988V266.963Z" fill="#E6E6E6"/>
<path opacity="0.5" d="M352.988 276.102H320.171V280.069H352.988V276.102Z" fill="#E6E6E6"/>
<path opacity="0.25" d="M352.988 285.242H320.171V289.208H352.988V285.242Z" fill="#E6E6E6"/>
<path opacity="0.91" d="M352.988 294.382H320.171V298.348H352.988V294.382Z" fill="#E6E6E6"/>
<path opacity="0.02" d="M352.988 303.521H320.171V307.487H352.988V303.521Z" fill="#E6E6E6"/>
<path opacity="0.53" d="M352.988 312.661H320.171V316.627H352.988V312.661Z" fill="#E6E6E6"/>
<path opacity="0.65" d="M352.988 321.8H320.171V325.766H352.988V321.8Z" fill="#E6E6E6"/>
<path d="M352.988 330.94H320.171V334.906H352.988V330.94Z" fill="#E6E6E6"/>
<path opacity="0.8" d="M352.988 340.079H320.171V344.046H352.988V340.079Z" fill="#E6E6E6"/>
<path opacity="0.82" d="M352.988 349.219H320.171V353.185H352.988V349.219Z" fill="#E6E6E6"/>
<path opacity="0.75" d="M352.988 358.358H320.171V362.325H352.988V358.358Z" fill="#E6E6E6"/>
<path opacity="0.31" d="M352.988 367.498H320.171V371.464H352.988V367.498Z" fill="#E6E6E6"/>
<path opacity="0.22" d="M352.988 376.638H320.171V380.604H352.988V376.638Z" fill="#E6E6E6"/>
<path opacity="0.43" d="M352.988 385.777H320.171V389.744H352.988V385.777Z" fill="#E6E6E6"/>
<path opacity="0.68" d="M352.988 394.917H320.171V398.883H352.988V394.917Z" fill="#E6E6E6"/>
<path opacity="0.38" d="M352.988 404.056H320.171V408.023H352.988V404.056Z" fill="#E6E6E6"/>
<path opacity="0.84" d="M352.988 413.196H320.171V417.162H352.988V413.196Z" fill="#E6E6E6"/>
<path d="M244.001 217.816V229.542H300.481V217.816H244.001ZM256.61 225.749H250.737V221.782H256.61V225.749ZM265.764 225.749H260.064V221.782H265.764V225.749ZM275.091 225.749H269.391V221.782H275.091V225.749ZM284.418 225.749H278.545V221.782H284.418V225.749ZM293.745 225.749H287.872V221.782H293.745V225.749Z" fill="#333333"/>
<path d="M310.844 221.782H309.29V225.749H310.844V221.782Z" fill="#333333"/>
<path d="M300.481 217.816V229.542H327.08V217.816H300.481ZM310.844 225.749H305.144V221.782H310.844V225.749ZM323.107 225.749H317.408V221.782H323.107V225.749Z" fill="#4D4D4D"/>
<path d="M322.935 221.782H321.38V225.749H322.935V221.782Z" fill="#333333"/>
<path d="M327.425 465.79H209.976L327.425 379.223V465.79Z" fill="#333333"/>
<path d="M152.287 182.637H142.787V218.678H152.287V182.637Z" fill="#4D4D4D"/>
<path d="M142.96 182.637H133.288V218.678H142.96V182.637Z" fill="#333333"/>
<path d="M162.132 182.637H152.46V218.678H162.132V182.637Z" fill="#666666"/>
<path d="M190.113 243.338H163.168V448.892H190.113V243.338Z" fill="#666666"/>
<path d="M131.561 243.338H108.071V448.892H131.561V243.338Z" fill="#333333"/>
<path d="M163.168 243.338H131.388V448.892H163.168V243.338Z" fill="#4D4D4D"/>
<path opacity="0.6" d="M114.807 249.373H111.352V446.132H114.807V249.373Z" fill="#E6E6E6"/>
<path opacity="0.6" d="M121.543 249.373H118.088V446.132H121.543V249.373Z" fill="#E6E6E6"/>
<path opacity="0.6" d="M128.279 249.373H124.825V446.132H128.279V249.373Z" fill="#E6E6E6"/>
<path d="M168.523 249.373H165.068V446.132H168.523V249.373Z" fill="#E6E6E6"/>
<path d="M175.259 249.373H171.804V446.132H175.259V249.373Z" fill="#E6E6E6"/>
<path d="M188.385 249.373H184.931V446.132H188.385V249.373Z" fill="#E6E6E6"/>
<path d="M181.995 249.373H178.54V446.132H181.995V249.373Z" fill="#E6E6E6"/>
<path opacity="0.8" d="M135.36 446.132H159.196V249.373H135.36V446.132ZM139.16 252.822H155.396V442.684H139.16V252.822Z" fill="#E6E6E6"/>
<path opacity="0.8" d="M142.269 439.407H152.46V255.926H142.269V439.407ZM145.724 260.237H146.933H147.624H149.005V435.096H147.624H146.933H145.724V260.237Z" fill="#E6E6E6"/>
<path opacity="0.8" d="M147.624 260.237H146.933V435.096H147.624V260.237Z" fill="#E6E6E6"/>
<path d="M159.541 207.297H135.706V243.338H159.541V207.297Z" fill="#4D4D4D"/>
<path d="M159.541 207.297H135.706V243.338H159.541V207.297Z" fill="#4D4D4D"/>
<path d="M183.377 207.297H159.541V243.338H183.377V207.297Z" fill="#666666"/>
<path d="M135.706 207.297H111.87V243.338H135.706V207.297Z" fill="#333333"/>
<path d="M161.959 182.637H133.288L142.787 189.19H152.46L161.959 182.637Z" fill="#808080"/>
<path d="M674.42 169.359H660.603V209.884H674.42V169.359Z" fill="#4D4D4D"/>
<path d="M660.43 169.359H646.612V209.884H660.43V169.359Z" fill="#333333"/>
<path d="M688.238 169.359H674.42V209.884H688.238V169.359Z" fill="#666666"/>
<path d="M729 237.82H689.965V469.413H729V237.82Z" fill="#666666"/>
<path d="M644.021 237.82H610.168V469.413H644.021V237.82Z" fill="#333333"/>
<path d="M689.965 237.82H644.022V469.413H689.965V237.82Z" fill="#4D4D4D"/>
<path opacity="0.4" d="M619.841 244.717H614.832V466.308H619.841V244.717Z" fill="#E6E6E6"/>
<path opacity="0.4" d="M629.686 244.717H624.677V466.308H629.686V244.717Z" fill="#E6E6E6"/>
<path opacity="0.4" d="M639.531 244.717H634.522V466.308H639.531V244.717Z" fill="#E6E6E6"/>
<path d="M697.738 244.717H692.729V466.308H697.738V244.717Z" fill="#E6E6E6"/>
<path d="M707.583 244.717H702.574V466.308H707.583V244.717Z" fill="#E6E6E6"/>
<path d="M726.409 244.717H721.4V466.308H726.409V244.717Z" fill="#E6E6E6"/>
<path d="M717.255 244.717H712.246V466.308H717.255V244.717Z" fill="#E6E6E6"/>
<path d="M649.894 466.308H684.438V244.717H649.894V466.308ZM655.248 248.511H678.738V462.514H655.248V248.511Z" fill="#E6E6E6"/>
<path d="M659.566 458.893H674.42V252.133H659.566V458.893ZM664.748 256.961H666.648H667.512H669.411V454.065H667.512H666.648H664.748V256.961Z" fill="#E6E6E6"/>
<path d="M667.512 256.961H666.648V454.065H667.512V256.961Z" fill="#E6E6E6"/>
<path d="M684.784 197.295H650.24V237.82H684.784V197.295Z" fill="#4D4D4D"/>
<path d="M684.784 197.295H650.24V237.82H684.784V197.295Z" fill="#4D4D4D"/>
<path d="M719.328 197.295H684.784V237.82H719.328V197.295Z" fill="#666666"/>
<path d="M650.412 197.295H615.868V237.82H650.412V197.295Z" fill="#333333"/>
<path d="M688.411 169.359H646.612L660.603 176.774H674.42L688.411 169.359Z" fill="#808080"/>
<path d="M574.761 269.894H480.283V301.278H574.761V269.894Z" fill="#E6E6E6"/>
<path d="M517.418 269.894H480.283V301.278H517.418V269.894Z" fill="#B3B3B3"/>
<path d="M517.418 301.451H444.011V453.892H517.418V301.451Z" fill="#333333"/>
<path d="M632.104 301.451H517.418V453.892H632.104V301.451Z" fill="#4D4D4D"/>
<path d="M508.436 285.931H451.957V301.451H508.436V285.931Z" fill="#333333"/>
<path d="M615.005 285.931H534.344V301.451H615.005V285.931Z" fill="#4D4D4D"/>
<path d="M549.716 257.995H517.418V269.893H549.716V257.995Z" fill="#E6E6E6"/>
<path d="M533.481 245.924H517.418V257.823H533.481V245.924Z" fill="#4D4D4D"/>
<path d="M517.245 245.924H501.182V257.823H517.245V245.924Z" fill="#333333"/>
<path d="M517.418 257.995H492.719V269.893H517.418V257.995Z" fill="#B3B3B3"/>
<path d="M516.381 245.924L517.418 218.333L518.281 245.924H516.381Z" fill="#333333"/>
<path opacity="0.12" d="M467.156 307.659H461.111V313.694H467.156V307.659Z" fill="white"/>
<path opacity="0.25" d="M475.447 307.659H469.401V313.694H475.447V307.659Z" fill="white"/>
<path opacity="0.36" d="M483.737 307.659H477.692V313.694H483.737V307.659Z" fill="white"/>
<path opacity="0.12" d="M492.028 307.659H485.982V313.694H492.028V307.659Z" fill="white"/>
<path opacity="0.14" d="M500.318 307.659H494.273V313.694H500.318V307.659Z" fill="white"/>
<path opacity="0.28" d="M467.156 315.591H461.111V321.627H467.156V315.591Z" fill="white"/>
<path opacity="0.4" d="M475.447 315.591H469.401V321.627H475.447V315.591Z" fill="white"/>
<path opacity="0.16" d="M483.737 315.591H477.692V321.627H483.737V315.591Z" fill="white"/>
<path opacity="0.17" d="M500.318 315.591H494.273V321.627H500.318V315.591Z" fill="white"/>
<path opacity="0.27" d="M467.156 323.524H461.111V329.559H467.156V323.524Z" fill="white"/>
<path opacity="0.45" d="M475.447 323.524H469.401V329.559H475.447V323.524Z" fill="white"/>
<path opacity="0.45" d="M483.737 323.524H477.692V329.559H483.737V323.524Z" fill="white"/>
<path opacity="0.48" d="M492.028 323.524H485.982V329.559H492.028V323.524Z" fill="white"/>
<path opacity="0.25" d="M500.318 323.524H494.273V329.559H500.318V323.524Z" fill="white"/>
<path opacity="0.28" d="M467.156 331.456H461.111V337.492H467.156V331.456Z" fill="white"/>
<path opacity="0.13" d="M475.447 331.456H469.401V337.492H475.447V331.456Z" fill="white"/>
<path opacity="0.07" d="M483.737 331.456H477.692V337.492H483.737V331.456Z" fill="white"/>
<path opacity="0.39" d="M492.028 331.456H485.982V337.492H492.028V331.456Z" fill="white"/>
<path opacity="0.47" d="M500.318 331.456H494.273V337.492H500.318V331.456Z" fill="white"/>
<path opacity="0.28" d="M467.156 339.388H461.111V345.424H467.156V339.388Z" fill="white"/>
<path opacity="0.2" d="M475.447 339.388H469.401V345.424H475.447V339.388Z" fill="white"/>
<path opacity="0.04" d="M483.737 339.388H477.692V345.424H483.737V339.388Z" fill="white"/>
<path opacity="0.43" d="M492.028 339.388H485.982V345.424H492.028V339.388Z" fill="white"/>
<path opacity="0.48" d="M500.318 339.388H494.273V345.424H500.318V339.388Z" fill="white"/>
<path opacity="0.28" d="M467.156 347.321H461.111V353.357H467.156V347.321Z" fill="white"/>
<path opacity="0.19" d="M475.447 347.321H469.401V353.357H475.447V347.321Z" fill="white"/>
<path opacity="0.01" d="M483.737 347.321H477.692V353.357H483.737V347.321Z" fill="white"/>
<path opacity="0.27" d="M492.028 347.321H485.982V353.357H492.028V347.321Z" fill="white"/>
<path opacity="0.24" d="M500.318 347.321H494.273V353.357H500.318V347.321Z" fill="white"/>
<path opacity="0.07" d="M467.156 355.426H461.111V361.461H467.156V355.426Z" fill="white"/>
<path opacity="0.25" d="M475.447 355.426H469.401V361.461H475.447V355.426Z" fill="white"/>
<path opacity="0.26" d="M483.737 355.426H477.692V361.461H483.737V355.426Z" fill="white"/>
<path opacity="0.39" d="M492.028 355.426H485.982V361.461H492.028V355.426Z" fill="white"/>
<path opacity="0.22" d="M500.318 355.426H494.273V361.461H500.318V355.426Z" fill="white"/>
<path opacity="0.15" d="M467.156 363.358H461.111V369.394H467.156V363.358Z" fill="white"/>
<path opacity="0.23" d="M475.447 363.358H469.401V369.394H475.447V363.358Z" fill="white"/>
<path opacity="0.05" d="M483.737 363.358H477.692V369.394H483.737V363.358Z" fill="white"/>
<path opacity="0.2" d="M492.028 363.358H485.982V369.394H492.028V363.358Z" fill="white"/>
<path opacity="0.31" d="M500.318 363.358H494.273V369.394H500.318V363.358Z" fill="white"/>
<path opacity="0.15" d="M467.156 371.291H461.111V377.326H467.156V371.291Z" fill="white"/>
<path opacity="0.33" d="M475.447 371.291H469.401V377.326H475.447V371.291Z" fill="white"/>
<path opacity="0.46" d="M483.737 371.291H477.692V377.326H483.737V371.291Z" fill="white"/>
<path opacity="0.25" d="M492.028 371.291H485.982V377.326H492.028V371.291Z" fill="white"/>
<path opacity="0.43" d="M500.318 371.291H494.273V377.326H500.318V371.291Z" fill="white"/>
<path opacity="0.4" d="M467.156 379.223H461.111V385.259H467.156V379.223Z" fill="white"/>
<path opacity="0.39" d="M475.447 379.223H469.401V385.259H475.447V379.223Z" fill="white"/>
<path opacity="0.01" d="M483.737 379.223H477.692V385.259H483.737V379.223Z" fill="white"/>
<path opacity="0.12" d="M492.028 379.223H485.982V385.259H492.028V379.223Z" fill="white"/>
<path opacity="0.07" d="M500.318 379.223H494.273V385.259H500.318V379.223Z" fill="white"/>
<path opacity="0.07" d="M467.156 387.156H461.111V393.191H467.156V387.156Z" fill="white"/>
<path opacity="0.02" d="M475.447 387.156H469.401V393.191H475.447V387.156Z" fill="white"/>
<path opacity="0.12" d="M483.737 387.156H477.692V393.191H483.737V387.156Z" fill="white"/>
<path opacity="0.23" d="M492.028 387.156H485.982V393.191H492.028V387.156Z" fill="white"/>
<path opacity="0.26" d="M500.318 387.156H494.273V393.191H500.318V387.156Z" fill="white"/>
<path opacity="0.27" d="M467.156 395.088H461.111V401.124H467.156V395.088Z" fill="white"/>
<path opacity="0.38" d="M475.447 395.088H469.401V401.124H475.447V395.088Z" fill="white"/>
<path opacity="0.05" d="M483.737 395.088H477.692V401.124H483.737V395.088Z" fill="white"/>
<path opacity="0.45" d="M492.028 395.088H485.982V401.124H492.028V395.088Z" fill="white"/>
<path opacity="0.15" d="M500.318 395.088H494.273V401.124H500.318V395.088Z" fill="white"/>
<path opacity="0.06" d="M467.156 403.021H461.111V409.056H467.156V403.021Z" fill="white"/>
<path opacity="0.47" d="M475.447 403.021H469.401V409.056H475.447V403.021Z" fill="white"/>
<path opacity="0.15" d="M483.737 403.021H477.692V409.056H483.737V403.021Z" fill="white"/>
<path opacity="0.44" d="M492.028 403.021H485.982V409.056H492.028V403.021Z" fill="white"/>
<path opacity="0.14" d="M500.318 403.021H494.273V409.056H500.318V403.021Z" fill="white"/>
<path opacity="0.15" d="M467.156 410.953H461.111V416.989H467.156V410.953Z" fill="white"/>
<path opacity="0.43" d="M475.447 410.953H469.401V416.989H475.447V410.953Z" fill="white"/>
<path opacity="0.07" d="M483.737 410.953H477.692V416.989H483.737V410.953Z" fill="white"/>
<path opacity="0.47" d="M492.028 410.953H485.982V416.989H492.028V410.953Z" fill="white"/>
<path opacity="0.11" d="M500.318 410.953H494.273V416.989H500.318V410.953Z" fill="white"/>
<path opacity="0.07" d="M467.156 418.885H461.111V424.921H467.156V418.885Z" fill="white"/>
<path opacity="0.34" d="M475.447 418.885H469.401V424.921H475.447V418.885Z" fill="white"/>
<path opacity="0.5" d="M483.737 418.885H477.692V424.921H483.737V418.885Z" fill="white"/>
<path opacity="0.36" d="M492.028 418.885H485.982V424.921H492.028V418.885Z" fill="white"/>
<path opacity="0.34" d="M500.318 418.885H494.273V424.921H500.318V418.885Z" fill="white"/>
<path opacity="0.47" d="M467.156 426.818H461.111V432.854H467.156V426.818Z" fill="white"/>
<path opacity="0.41" d="M475.447 426.818H469.401V432.854H475.447V426.818Z" fill="white"/>
<path opacity="0.3" d="M483.737 426.818H477.692V432.854H483.737V426.818Z" fill="white"/>
<path opacity="0.33" d="M492.028 426.818H485.982V432.854H492.028V426.818Z" fill="white"/>
<path opacity="0.12" d="M500.318 426.818H494.273V432.854H500.318V426.818Z" fill="white"/>
<path opacity="0.24" d="M467.156 434.75H461.111V440.786H467.156V434.75Z" fill="white"/>
<path opacity="0.29" d="M475.447 434.75H469.401V440.786H475.447V434.75Z" fill="white"/>
<path opacity="0.27" d="M492.028 434.75H485.982V440.786H492.028V434.75Z" fill="white"/>
<path opacity="0.04" d="M500.318 434.75H494.273V440.786H500.318V434.75Z" fill="white"/>
<path opacity="0.11" d="M467.156 442.683H461.111V448.718H467.156V442.683Z" fill="white"/>
<path opacity="0.05" d="M475.447 442.683H469.401V448.718H475.447V442.683Z" fill="white"/>
<path opacity="0.04" d="M483.737 442.683H477.692V448.718H483.737V442.683Z" fill="white"/>
<path opacity="0.02" d="M492.028 442.683H485.982V448.718H492.028V442.683Z" fill="white"/>
<path opacity="0.3" d="M537.453 307.659H531.408V313.694H537.453V307.659Z" fill="white"/>
<path opacity="0.72" d="M545.398 307.659H539.353V313.694H545.398V307.659Z" fill="white"/>
<path opacity="0.7" d="M553.516 307.659H547.471V313.694H553.516V307.659Z" fill="white"/>
<path opacity="0.52" d="M561.634 307.659H555.589V313.694H561.634V307.659Z" fill="white"/>
<path opacity="0.2" d="M569.752 307.659H563.706V313.694H569.752V307.659Z" fill="white"/>
<path opacity="0.32" d="M577.697 307.659H571.652V313.694H577.697V307.659Z" fill="white"/>
<path opacity="0.13" d="M585.815 307.659H579.77V313.694H585.815V307.659Z" fill="white"/>
<path opacity="0.38" d="M593.933 307.659H587.887V313.694H593.933V307.659Z" fill="white"/>
<path opacity="0.61" d="M601.878 307.659H595.833V313.694H601.878V307.659Z" fill="white"/>
<path d="M609.996 307.659H603.95V313.694H609.996V307.659Z" fill="white"/>
<path opacity="0.91" d="M618.113 307.659H612.068V313.694H618.113V307.659Z" fill="white"/>
<path opacity="0.66" d="M537.453 315.591H531.408V321.627H537.453V315.591Z" fill="white"/>
<path opacity="0.31" d="M545.398 315.591H539.353V321.627H545.398V315.591Z" fill="white"/>
<path opacity="0.95" d="M553.516 315.591H547.471V321.627H553.516V315.591Z" fill="white"/>
<path opacity="0.7" d="M561.634 315.591H555.589V321.627H561.634V315.591Z" fill="white"/>
<path opacity="0.12" d="M569.752 315.591H563.706V321.627H569.752V315.591Z" fill="white"/>
<path opacity="0.24" d="M577.697 315.591H571.652V321.627H577.697V315.591Z" fill="white"/>
<path opacity="0.66" d="M585.815 315.591H579.77V321.627H585.815V315.591Z" fill="white"/>
<path opacity="0.71" d="M593.933 315.591H587.887V321.627H593.933V315.591Z" fill="white"/>
<path opacity="0.42" d="M601.878 315.591H595.833V321.627H601.878V315.591Z" fill="white"/>
<path opacity="0.09" d="M609.996 315.591H603.95V321.627H609.996V315.591Z" fill="white"/>
<path opacity="0.32" d="M618.113 315.591H612.068V321.627H618.113V315.591Z" fill="white"/>
<path opacity="0.65" d="M537.453 323.524H531.408V329.559H537.453V323.524Z" fill="white"/>
<path d="M545.398 323.524H539.353V329.559H545.398V323.524Z" fill="white"/>
<path d="M553.516 323.524H547.471V329.559H553.516V323.524Z" fill="white"/>
<path opacity="0.71" d="M561.634 323.524H555.589V329.559H561.634V323.524Z" fill="white"/>
<path opacity="0.2" d="M569.752 323.524H563.706V329.559H569.752V323.524Z" fill="white"/>
<path opacity="0.19" d="M577.697 323.524H571.652V329.559H577.697V323.524Z" fill="white"/>
<path opacity="0.62" d="M585.815 323.524H579.77V329.559H585.815V323.524Z" fill="white"/>
<path opacity="0.93" d="M593.933 323.524H587.887V329.559H593.933V323.524Z" fill="white"/>
<path opacity="0.56" d="M601.878 323.524H595.833V329.559H601.878V323.524Z" fill="white"/>
<path opacity="0.57" d="M609.996 323.524H603.95V329.559H609.996V323.524Z" fill="white"/>
<path opacity="0.52" d="M618.113 323.524H612.068V329.559H618.113V323.524Z" fill="white"/>
<path opacity="0.74" d="M537.453 331.456H531.408V337.492H537.453V331.456Z" fill="white"/>
<path opacity="0.56" d="M545.398 331.456H539.353V337.492H545.398V331.456Z" fill="white"/>
<path opacity="0.78" d="M553.516 331.456H547.471V337.492H553.516V331.456Z" fill="white"/>
<path opacity="0.41" d="M561.634 331.456H555.589V337.492H561.634V331.456Z" fill="white"/>
<path opacity="0.14" d="M569.752 331.456H563.706V337.492H569.752V331.456Z" fill="white"/>
<path opacity="0.28" d="M577.697 331.456H571.652V337.492H577.697V331.456Z" fill="white"/>
<path opacity="0.36" d="M585.815 331.456H579.77V337.492H585.815V331.456Z" fill="white"/>
<path opacity="0.14" d="M593.933 331.456H587.887V337.492H593.933V331.456Z" fill="white"/>
<path opacity="0.5" d="M601.878 331.456H595.833V337.492H601.878V331.456Z" fill="white"/>
<path opacity="0.98" d="M609.996 331.456H603.95V337.492H609.996V331.456Z" fill="white"/>
<path opacity="0.59" d="M618.113 331.456H612.068V337.492H618.113V331.456Z" fill="white"/>
<path opacity="0.07" d="M537.453 339.388H531.408V345.424H537.453V339.388Z" fill="white"/>
<path opacity="0.1" d="M545.398 339.388H539.353V345.424H545.398V339.388Z" fill="white"/>
<path opacity="0.88" d="M553.516 339.388H547.471V345.424H553.516V339.388Z" fill="white"/>
<path opacity="0.68" d="M561.634 339.388H555.589V345.424H561.634V339.388Z" fill="white"/>
<path opacity="0.81" d="M569.752 339.388H563.706V345.424H569.752V339.388Z" fill="white"/>
<path opacity="0.62" d="M577.697 339.388H571.652V345.424H577.697V339.388Z" fill="white"/>
<path opacity="0.97" d="M585.815 339.388H579.77V345.424H585.815V339.388Z" fill="white"/>
<path opacity="0.81" d="M593.933 339.388H587.887V345.424H593.933V339.388Z" fill="white"/>
<path opacity="0.79" d="M601.878 339.388H595.833V345.424H601.878V339.388Z" fill="white"/>
<path opacity="0.03" d="M609.996 339.388H603.95V345.424H609.996V339.388Z" fill="white"/>
<path opacity="0.95" d="M618.113 339.388H612.068V345.424H618.113V339.388Z" fill="white"/>
<path opacity="0.62" d="M537.453 347.321H531.408V353.357H537.453V347.321Z" fill="white"/>
<path opacity="0.22" d="M545.398 347.321H539.353V353.357H545.398V347.321Z" fill="white"/>
<path opacity="0.42" d="M553.516 347.321H547.471V353.357H553.516V347.321Z" fill="white"/>
<path opacity="0.56" d="M561.634 347.321H555.589V353.357H561.634V347.321Z" fill="white"/>
<path opacity="0.03" d="M569.752 347.321H563.706V353.357H569.752V347.321Z" fill="white"/>
<path opacity="0.64" d="M577.697 347.321H571.652V353.357H577.697V347.321Z" fill="white"/>
<path opacity="0.82" d="M585.815 347.321H579.77V353.357H585.815V347.321Z" fill="white"/>
<path opacity="0.52" d="M593.933 347.321H587.887V353.357H593.933V347.321Z" fill="white"/>
<path opacity="0.46" d="M601.878 347.321H595.833V353.357H601.878V347.321Z" fill="white"/>
<path opacity="0.27" d="M609.996 347.321H603.95V353.357H609.996V347.321Z" fill="white"/>
<path opacity="0.46" d="M618.113 347.321H612.068V353.357H618.113V347.321Z" fill="white"/>
<path opacity="0.66" d="M537.453 355.426H531.408V361.461H537.453V355.426Z" fill="white"/>
<path opacity="0.7" d="M545.398 355.426H539.353V361.461H545.398V355.426Z" fill="white"/>
<path opacity="0.94" d="M553.516 355.426H547.471V361.461H553.516V355.426Z" fill="white"/>
<path opacity="0.5" d="M561.634 355.426H555.589V361.461H561.634V355.426Z" fill="white"/>
<path opacity="0.12" d="M569.752 355.426H563.706V361.461H569.752V355.426Z" fill="white"/>
<path opacity="0.36" d="M577.697 355.426H571.652V361.461H577.697V355.426Z" fill="white"/>
<path opacity="0.51" d="M585.815 355.426H579.77V361.461H585.815V355.426Z" fill="white"/>
<path opacity="0.37" d="M593.933 355.426H587.887V361.461H593.933V355.426Z" fill="white"/>
<path opacity="0.66" d="M601.878 355.426H595.833V361.461H601.878V355.426Z" fill="white"/>
<path opacity="0.42" d="M609.996 355.426H603.95V361.461H609.996V355.426Z" fill="white"/>
<path opacity="0.5" d="M618.113 355.426H612.068V361.461H618.113V355.426Z" fill="white"/>
<path opacity="0.52" d="M537.453 363.358H531.408V369.394H537.453V363.358Z" fill="white"/>
<path opacity="0.61" d="M545.398 363.358H539.353V369.394H545.398V363.358Z" fill="white"/>
<path opacity="0.84" d="M553.516 363.358H547.471V369.394H553.516V363.358Z" fill="white"/>
<path opacity="0.89" d="M561.634 363.358H555.589V369.394H561.634V363.358Z" fill="white"/>
<path opacity="0.33" d="M569.752 363.358H563.706V369.394H569.752V363.358Z" fill="white"/>
<path opacity="0.25" d="M577.697 363.358H571.652V369.394H577.697V363.358Z" fill="white"/>
<path opacity="0.95" d="M585.815 363.358H579.77V369.394H585.815V363.358Z" fill="white"/>
<path opacity="0.09" d="M593.933 363.358H587.887V369.394H593.933V363.358Z" fill="white"/>
<path opacity="0.44" d="M601.878 363.358H595.833V369.394H601.878V363.358Z" fill="white"/>
<path opacity="0.51" d="M609.996 363.358H603.95V369.394H609.996V363.358Z" fill="white"/>
<path opacity="0.97" d="M618.113 363.358H612.068V369.394H618.113V363.358Z" fill="white"/>
<path opacity="0.26" d="M537.453 371.291H531.408V377.326H537.453V371.291Z" fill="white"/>
<path opacity="0.92" d="M545.398 371.291H539.353V377.326H545.398V371.291Z" fill="white"/>
<path opacity="0.33" d="M553.516 371.291H547.471V377.326H553.516V371.291Z" fill="white"/>
<path opacity="0.23" d="M561.634 371.291H555.589V377.326H561.634V371.291Z" fill="white"/>
<path opacity="0.42" d="M569.752 371.291H563.706V377.326H569.752V371.291Z" fill="white"/>
<path opacity="0.57" d="M577.697 371.291H571.652V377.326H577.697V371.291Z" fill="white"/>
<path opacity="0.73" d="M585.815 371.291H579.77V377.326H585.815V371.291Z" fill="white"/>
<path opacity="0.87" d="M593.933 371.291H587.887V377.326H593.933V371.291Z" fill="white"/>
<path opacity="0.22" d="M601.878 371.291H595.833V377.326H601.878V371.291Z" fill="white"/>
<path opacity="0.89" d="M609.996 371.291H603.95V377.326H609.996V371.291Z" fill="white"/>
<path opacity="0.73" d="M618.113 371.291H612.068V377.326H618.113V371.291Z" fill="white"/>
<path opacity="0.35" d="M537.453 379.223H531.408V385.259H537.453V379.223Z" fill="white"/>
<path opacity="0.81" d="M545.398 379.223H539.353V385.259H545.398V379.223Z" fill="white"/>
<path opacity="0.56" d="M553.516 379.223H547.471V385.259H553.516V379.223Z" fill="white"/>
<path opacity="0.81" d="M561.634 379.223H555.589V385.259H561.634V379.223Z" fill="white"/>
<path opacity="0.87" d="M569.752 379.223H563.706V385.259H569.752V379.223Z" fill="white"/>
<path opacity="0.39" d="M577.697 379.223H571.652V385.259H577.697V379.223Z" fill="white"/>
<path opacity="0.31" d="M585.815 379.223H579.77V385.259H585.815V379.223Z" fill="white"/>
<path opacity="0.98" d="M593.933 379.223H587.887V385.259H593.933V379.223Z" fill="white"/>
<path opacity="0.17" d="M601.878 379.223H595.833V385.259H601.878V379.223Z" fill="white"/>
<path opacity="0.06" d="M609.996 379.223H603.95V385.259H609.996V379.223Z" fill="white"/>
<path opacity="0.57" d="M618.113 379.223H612.068V385.259H618.113V379.223Z" fill="white"/>
<path opacity="0.67" d="M537.453 387.156H531.408V393.191H537.453V387.156Z" fill="white"/>
<path opacity="0.83" d="M545.398 387.156H539.353V393.191H545.398V387.156Z" fill="white"/>
<path opacity="0.99" d="M553.516 387.156H547.471V393.191H553.516V387.156Z" fill="white"/>
<path opacity="0.62" d="M561.634 387.156H555.589V393.191H561.634V387.156Z" fill="white"/>
<path opacity="0.87" d="M569.752 387.156H563.706V393.191H569.752V387.156Z" fill="white"/>
<path opacity="0.14" d="M577.697 387.156H571.652V393.191H577.697V387.156Z" fill="white"/>
<path opacity="0.12" d="M585.815 387.156H579.77V393.191H585.815V387.156Z" fill="white"/>
<path opacity="0.11" d="M593.933 387.156H587.887V393.191H593.933V387.156Z" fill="white"/>
<path opacity="0.39" d="M601.878 387.156H595.833V393.191H601.878V387.156Z" fill="white"/>
<path opacity="0.58" d="M609.996 387.156H603.95V393.191H609.996V387.156Z" fill="white"/>
<path opacity="0.54" d="M618.113 387.156H612.068V393.191H618.113V387.156Z" fill="white"/>
<path opacity="0.99" d="M537.453 395.088H531.408V401.124H537.453V395.088Z" fill="white"/>
<path opacity="0.28" d="M545.398 395.088H539.353V401.124H545.398V395.088Z" fill="white"/>
<path opacity="0.78" d="M553.516 395.088H547.471V401.124H553.516V395.088Z" fill="white"/>
<path opacity="0.65" d="M561.634 395.088H555.589V401.124H561.634V395.088Z" fill="white"/>
<path opacity="0.32" d="M569.752 395.088H563.706V401.124H569.752V395.088Z" fill="white"/>
<path opacity="0.55" d="M577.697 395.088H571.652V401.124H577.697V395.088Z" fill="white"/>
<path opacity="0.4" d="M585.815 395.088H579.77V401.124H585.815V395.088Z" fill="white"/>
<path opacity="0.22" d="M593.933 395.088H587.887V401.124H593.933V395.088Z" fill="white"/>
<path opacity="0.87" d="M601.878 395.088H595.833V401.124H601.878V395.088Z" fill="white"/>
<path opacity="0.02" d="M609.996 395.088H603.95V401.124H609.996V395.088Z" fill="white"/>
<path opacity="0.39" d="M618.113 395.088H612.068V401.124H618.113V395.088Z" fill="white"/>
<path opacity="0.89" d="M537.453 403.021H531.408V409.056H537.453V403.021Z" fill="white"/>
<path opacity="0.97" d="M545.398 403.021H539.353V409.056H545.398V403.021Z" fill="white"/>
<path opacity="0.79" d="M553.516 403.021H547.471V409.056H553.516V403.021Z" fill="white"/>
<path opacity="0.41" d="M561.634 403.021H555.589V409.056H561.634V403.021Z" fill="white"/>
<path opacity="0.13" d="M569.752 403.021H563.706V409.056H569.752V403.021Z" fill="white"/>
<path opacity="0.9" d="M577.697 403.021H571.652V409.056H577.697V403.021Z" fill="white"/>
<path opacity="0.98" d="M585.815 403.021H579.77V409.056H585.815V403.021Z" fill="white"/>
<path opacity="0.67" d="M593.933 403.021H587.887V409.056H593.933V403.021Z" fill="white"/>
<path opacity="0.65" d="M601.878 403.021H595.833V409.056H601.878V403.021Z" fill="white"/>
<path opacity="0.89" d="M609.996 403.021H603.95V409.056H609.996V403.021Z" fill="white"/>
<path opacity="0.98" d="M618.113 403.021H612.068V409.056H618.113V403.021Z" fill="white"/>
<path opacity="0.29" d="M537.453 410.953H531.408V416.989H537.453V410.953Z" fill="white"/>
<path opacity="0.74" d="M545.398 410.953H539.353V416.989H545.398V410.953Z" fill="white"/>
<path opacity="0.64" d="M553.516 410.953H547.471V416.989H553.516V410.953Z" fill="white"/>
<path opacity="0.65" d="M561.634 410.953H555.589V416.989H561.634V410.953Z" fill="white"/>
<path opacity="0.07" d="M569.752 410.953H563.706V416.989H569.752V410.953Z" fill="white"/>
<path opacity="0.16" d="M577.697 410.953H571.652V416.989H577.697V410.953Z" fill="white"/>
<path opacity="0.84" d="M585.815 410.953H579.77V416.989H585.815V410.953Z" fill="white"/>
<path opacity="0.88" d="M593.933 410.953H587.887V416.989H593.933V410.953Z" fill="white"/>
<path opacity="0.57" d="M601.878 410.953H595.833V416.989H601.878V410.953Z" fill="white"/>
<path opacity="0.31" d="M609.996 410.953H603.95V416.989H609.996V410.953Z" fill="white"/>
<path opacity="0.03" d="M618.113 410.953H612.068V416.989H618.113V410.953Z" fill="white"/>
<path opacity="0.3" d="M537.453 418.885H531.408V424.921H537.453V418.885Z" fill="white"/>
<path opacity="0.59" d="M545.398 418.885H539.353V424.921H545.398V418.885Z" fill="white"/>
<path opacity="0.93" d="M553.516 418.885H547.471V424.921H553.516V418.885Z" fill="white"/>
<path opacity="0.06" d="M561.634 418.885H555.589V424.921H561.634V418.885Z" fill="white"/>
<path opacity="0.74" d="M569.752 418.885H563.706V424.921H569.752V418.885Z" fill="white"/>
<path opacity="0.22" d="M577.697 418.885H571.652V424.921H577.697V418.885Z" fill="white"/>
<path opacity="0.51" d="M585.815 418.885H579.77V424.921H585.815V418.885Z" fill="white"/>
<path opacity="0.7" d="M593.933 418.885H587.887V424.921H593.933V418.885Z" fill="white"/>
<path opacity="0.47" d="M601.878 418.885H595.833V424.921H601.878V418.885Z" fill="white"/>
<path opacity="0.08" d="M609.996 418.885H603.95V424.921H609.996V418.885Z" fill="white"/>
<path opacity="0.93" d="M618.113 418.885H612.068V424.921H618.113V418.885Z" fill="white"/>
<path opacity="0.81" d="M537.453 426.818H531.408V432.854H537.453V426.818Z" fill="white"/>
<path opacity="0.9" d="M545.398 426.818H539.353V432.854H545.398V426.818Z" fill="white"/>
<path opacity="0.55" d="M553.516 426.818H547.471V432.854H553.516V426.818Z" fill="white"/>
<path opacity="0.14" d="M561.634 426.818H555.589V432.854H561.634V426.818Z" fill="white"/>
<path opacity="0.66" d="M569.752 426.818H563.706V432.854H569.752V426.818Z" fill="white"/>
<path opacity="0.92" d="M577.697 426.818H571.652V432.854H577.697V426.818Z" fill="white"/>
<path opacity="0.4" d="M585.815 426.818H579.77V432.854H585.815V426.818Z" fill="white"/>
<path opacity="0.6" d="M593.933 426.818H587.887V432.854H593.933V426.818Z" fill="white"/>
<path opacity="0.99" d="M601.878 426.818H595.833V432.854H601.878V426.818Z" fill="white"/>
<path opacity="0.68" d="M609.996 426.818H603.95V432.854H609.996V426.818Z" fill="white"/>
<path opacity="0.01" d="M618.113 426.818H612.068V432.854H618.113V426.818Z" fill="white"/>
<path opacity="0.82" d="M537.453 434.75H531.408V440.786H537.453V434.75Z" fill="white"/>
<path opacity="0.92" d="M545.398 434.75H539.353V440.786H545.398V434.75Z" fill="white"/>
<path opacity="0.29" d="M553.516 434.75H547.471V440.786H553.516V434.75Z" fill="white"/>
<path opacity="0.73" d="M561.634 434.75H555.589V440.786H561.634V434.75Z" fill="white"/>
<path opacity="0.42" d="M569.752 434.75H563.706V440.786H569.752V434.75Z" fill="white"/>
<path opacity="0.06" d="M577.697 434.75H571.652V440.786H577.697V434.75Z" fill="white"/>
<path opacity="0.7" d="M585.815 434.75H579.77V440.786H585.815V434.75Z" fill="white"/>
<path opacity="0.97" d="M593.933 434.75H587.887V440.786H593.933V434.75Z" fill="white"/>
<path opacity="0.51" d="M601.878 434.75H595.833V440.786H601.878V434.75Z" fill="white"/>
<path opacity="0.69" d="M609.996 434.75H603.95V440.786H609.996V434.75Z" fill="white"/>
<path opacity="0.49" d="M618.113 434.75H612.068V440.786H618.113V434.75Z" fill="white"/>
<path opacity="0.45" d="M537.453 442.683H531.408V448.718H537.453V442.683Z" fill="white"/>
<path opacity="0.46" d="M545.398 442.683H539.353V448.718H545.398V442.683Z" fill="white"/>
<path opacity="0.04" d="M553.516 442.683H547.471V448.718H553.516V442.683Z" fill="white"/>
<path opacity="0.56" d="M561.634 442.683H555.589V448.718H561.634V442.683Z" fill="white"/>
<path opacity="0.4" d="M569.752 442.683H563.706V448.718H569.752V442.683Z" fill="white"/>
<path opacity="0.59" d="M577.697 442.683H571.652V448.718H577.697V442.683Z" fill="white"/>
<path opacity="0.82" d="M585.815 442.683H579.77V448.718H585.815V442.683Z" fill="white"/>
<path opacity="0.99" d="M593.933 442.683H587.887V448.718H593.933V442.683Z" fill="white"/>
<path opacity="0.1" d="M601.878 442.683H595.833V448.718H601.878V442.683Z" fill="white"/>
<path opacity="0.87" d="M609.996 442.683H603.95V448.718H609.996V442.683Z" fill="white"/>
<path d="M618.113 442.683H612.068V448.718H618.113V442.683Z" fill="white"/>
<path d="M435.375 268.859H378.378V447.167H435.375V268.859Z" fill="#333333"/>
<path d="M404.286 259.892H378.378V269.894H404.286V259.892Z" fill="#333333"/>
<path d="M393.404 254.029H378.378V259.892H393.404V254.029Z" fill="#333333"/>
<path opacity="0.25" d="M411.367 281.448H402.04V290.76H411.367V281.448Z" fill="white"/>
<path opacity="0.15" d="M411.367 304.383H402.04V313.695H411.367V304.383Z" fill="white"/>
<path opacity="0.19" d="M411.367 350.08H402.04V359.392H411.367V350.08Z" fill="white"/>
<path opacity="0.17" d="M411.367 372.843H402.04V382.155H411.367V372.843Z" fill="white"/>
<path opacity="0.22" d="M411.367 395.606H402.04V404.918H411.367V395.606Z" fill="white"/>
<path d="M411.367 418.541H402.04V427.853H411.367V418.541Z" fill="white"/>
<path d="M393.059 368.187H339.688V383.879H393.059V368.187Z" fill="#333333"/>
<path d="M419.658 368.187H393.059V383.879H419.658V368.187Z" fill="#4D4D4D"/>
<path d="M339.688 368.187L356.27 360.255L393.059 368.187H339.688Z" fill="#333333"/>
<path d="M356.27 360.255L393.059 368.187H419.658L356.27 360.255Z" fill="#4D4D4D"/>
<path d="M405.495 379.223H327.425V450.615H405.495V379.223Z" fill="#333333"/>
<path d="M431.403 379.223H405.495V450.615H431.403V379.223Z" fill="#4D4D4D"/>
<path opacity="0.81" d="M425.358 384.224H411.367V389.398H425.358V384.224Z" fill="white"/>
<path opacity="0.76" d="M425.358 393.709H411.367V398.882H425.358V393.709Z" fill="white"/>
<path opacity="0.32" d="M425.358 403.193H411.367V408.367H425.358V403.193Z" fill="white"/>
<path opacity="0.49" d="M425.358 412.85H411.367V418.023H425.358V412.85Z" fill="white"/>
<path opacity="0.99" d="M425.358 431.819H411.367V436.992H425.358V431.819Z" fill="white"/>
<path opacity="0.1" d="M353.852 384.224H339.861V389.398H353.852V384.224Z" fill="white"/>
<path opacity="0.04" d="M373.369 384.224H359.378V389.398H373.369V384.224Z" fill="white"/>
<path opacity="0.07" d="M393.059 384.224H379.069V389.398H393.059V384.224Z" fill="white"/>
<path opacity="0.06" d="M353.852 393.709H339.861V398.882H353.852V393.709Z" fill="white"/>
<path opacity="0.44" d="M373.369 393.709H359.378V398.882H373.369V393.709Z" fill="white"/>
<path opacity="0.24" d="M393.059 393.709H379.069V398.882H393.059V393.709Z" fill="white"/>
<path opacity="0.55" d="M353.852 403.193H339.861V408.367H353.852V403.193Z" fill="white"/>
<path opacity="0.02" d="M373.369 403.193H359.378V408.367H373.369V403.193Z" fill="white"/>
<path opacity="0.14" d="M393.059 403.193H379.069V408.367H393.059V403.193Z" fill="white"/>
<path opacity="0.43" d="M353.852 412.85H339.861V418.023H353.852V412.85Z" fill="white"/>
<path opacity="0.41" d="M373.369 412.85H359.378V418.023H373.369V412.85Z" fill="white"/>
<path opacity="0.46" d="M393.059 412.85H379.069V418.023H393.059V412.85Z" fill="white"/>
<path opacity="0.45" d="M353.852 422.335H339.861V427.508H353.852V422.335Z" fill="white"/>
<path opacity="0.33" d="M373.369 422.335H359.378V427.508H373.369V422.335Z" fill="white"/>
<path opacity="0.05" d="M393.059 422.335H379.069V427.508H393.059V422.335Z" fill="white"/>
<path opacity="0.27" d="M353.852 431.819H339.861V436.993H353.852V431.819Z" fill="white"/>
<path opacity="0.15" d="M373.369 431.819H359.378V436.993H373.369V431.819Z" fill="white"/>
<path opacity="0.7" d="M393.059 431.819H379.069V436.993H393.059V431.819Z" fill="white"/>
<path d="M25.6829 307.832H-22.6788V456.651H25.6829V307.832Z" fill="#333333"/>
<path d="M80.7806 307.832H25.8556V456.651H80.7806V307.832Z" fill="#4D4D4D"/>
<path d="M25.6829 320.42H-22.6788V323.007H25.6829V320.42Z" fill="#4D4D4D"/>
<path d="M80.7806 320.42H25.8556V323.007H80.7806V320.42Z" fill="#333333"/>
<path opacity="0.32" d="M0.638458 325.939H-4.54321V331.112H0.638458V325.939Z" fill="white"/>
<path opacity="0.25" d="M7.71997 325.939H2.53833V331.112H7.71997V325.939Z" fill="white"/>
<path opacity="0.12" d="M21.8831 325.939H16.7014V331.112H21.8831V325.939Z" fill="white"/>
<path opacity="0.22" d="M0.638458 333.009H-4.54321V338.182H0.638458V333.009Z" fill="white"/>
<path opacity="0.47" d="M7.71997 333.009H2.53833V338.182H7.71997V333.009Z" fill="white"/>
<path opacity="0.22" d="M14.8015 333.009H9.61993V338.182H14.8015V333.009Z" fill="white"/>
<path opacity="0.32" d="M21.8831 333.009H16.7014V338.182H21.8831V333.009Z" fill="white"/>
<path opacity="0.18" d="M0.638458 340.079H-4.54321V345.252H0.638458V340.079Z" fill="white"/>
<path opacity="0.28" d="M7.71997 340.079H2.53833V345.252H7.71997V340.079Z" fill="white"/>
<path opacity="0.2" d="M21.8831 340.079H16.7014V345.252H21.8831V340.079Z" fill="white"/>
<path opacity="0.33" d="M0.638458 347.149H-4.54321V352.323H0.638458V347.149Z" fill="white"/>
<path opacity="0.05" d="M7.71997 347.149H2.53833V352.323H7.71997V347.149Z" fill="white"/>
<path opacity="0.08" d="M14.8015 347.149H9.61993V352.323H14.8015V347.149Z" fill="white"/>
<path opacity="0.08" d="M7.71997 354.219H2.53833V359.393H7.71997V354.219Z" fill="white"/>
<path opacity="0.02" d="M14.8015 354.219H9.61993V359.393H14.8015V354.219Z" fill="white"/>
<path opacity="0.05" d="M0.638458 361.29H-4.54321V366.463H0.638458V361.29Z" fill="white"/>
<path opacity="0.2" d="M7.71997 361.29H2.53833V366.463H7.71997V361.29Z" fill="white"/>
<path opacity="0.23" d="M14.8015 361.29H9.61993V366.463H14.8015V361.29Z" fill="white"/>
<path opacity="0.14" d="M0.638458 368.36H-4.54321V373.533H0.638458V368.36Z" fill="white"/>
<path opacity="0.24" d="M14.8015 368.36H9.61993V373.533H14.8015V368.36Z" fill="white"/>
<path opacity="0.23" d="M0.638458 375.43H-4.54321V380.603H0.638458V375.43Z" fill="white"/>
<path opacity="0.02" d="M7.71997 375.43H2.53833V380.603H7.71997V375.43Z" fill="white"/>
<path opacity="0.04" d="M14.8015 375.43H9.61993V380.603H14.8015V375.43Z" fill="white"/>
<path opacity="0.3" d="M21.8831 375.43H16.7014V380.603H21.8831V375.43Z" fill="white"/>
<path opacity="0.4" d="M21.8831 382.328H16.7014V387.501H21.8831V382.328Z" fill="white"/>
<path opacity="0.12" d="M0.638458 389.398H-4.54321V394.572H0.638458V389.398Z" fill="white"/>
<path opacity="0.19" d="M14.8015 389.398H9.61993V394.572H14.8015V389.398Z" fill="white"/>
<path opacity="0.43" d="M21.8831 389.398H16.7014V394.572H21.8831V389.398Z" fill="white"/>
<path opacity="0.42" d="M7.71997 396.468H2.53833V401.642H7.71997V396.468Z" fill="white"/>
<path opacity="0.31" d="M21.8831 396.468H16.7014V401.642H21.8831V396.468Z" fill="white"/>
<path opacity="0.31" d="M7.71997 403.539H2.53833V408.712H7.71997V403.539Z" fill="white"/>
<path opacity="0.33" d="M21.8831 403.539H16.7014V408.712H21.8831V403.539Z" fill="white"/>
<path opacity="0.17" d="M7.71997 410.609H2.53833V415.782H7.71997V410.609Z" fill="white"/>
<path opacity="0.01" d="M14.8015 410.609H9.61993V415.782H14.8015V410.609Z" fill="white"/>
<path opacity="0.48" d="M21.8831 410.609H16.7014V415.782H21.8831V410.609Z" fill="white"/>
<path opacity="0.28" d="M0.638458 417.679H-4.54321V422.852H0.638458V417.679Z" fill="white"/>
<path opacity="0.02" d="M7.71997 417.679H2.53833V422.852H7.71997V417.679Z" fill="white"/>
<path opacity="0.17" d="M14.8015 417.679H9.61993V422.852H14.8015V417.679Z" fill="white"/>
<path opacity="0.42" d="M21.8831 417.679H16.7014V422.852H21.8831V417.679Z" fill="white"/>
<path opacity="0.11" d="M0.638458 424.749H-4.54321V429.923H0.638458V424.749Z" fill="white"/>
<path opacity="0.02" d="M7.71997 424.749H2.53833V429.923H7.71997V424.749Z" fill="white"/>
<path opacity="0.3" d="M21.8831 424.749H16.7014V429.923H21.8831V424.749Z" fill="white"/>
<path opacity="0.19" d="M0.638458 431.82H-4.54321V436.993H0.638458V431.82Z" fill="white"/>
<path opacity="0.05" d="M7.71997 431.82H2.53833V436.993H7.71997V431.82Z" fill="white"/>
<path opacity="0.2" d="M21.8831 431.82H16.7014V436.993H21.8831V431.82Z" fill="white"/>
<path opacity="0.27" d="M7.71997 438.89H2.53833V444.063H7.71997V438.89Z" fill="white"/>
<path opacity="0.13" d="M14.8015 438.89H9.61993V444.063H14.8015V438.89Z" fill="white"/>
<path opacity="0.46" d="M0.638458 445.96H-4.54321V451.133H0.638458V445.96Z" fill="white"/>
<path opacity="0.12" d="M7.71997 445.96H2.53833V451.133H7.71997V445.96Z" fill="white"/>
<path opacity="0.04" d="M14.8015 445.96H9.61993V451.133H14.8015V445.96Z" fill="white"/>
<path opacity="0.3" d="M21.8831 445.96H16.7014V451.133H21.8831V445.96Z" fill="white"/>
<path opacity="0.08" d="M14.8015 325.939H9.61993V331.112H14.8015V325.939Z" fill="white"/>
<path opacity="0.08" d="M14.8015 340.079H9.61993V345.252H14.8015V340.079Z" fill="white"/>
<path opacity="0.01" d="M21.8831 347.149H16.7014V352.323H21.8831V347.149Z" fill="white"/>
<path opacity="0.15" d="M0.638458 354.219H-4.54321V359.393H0.638458V354.219Z" fill="white"/>
<path opacity="0.12" d="M21.8831 354.219H16.7014V359.393H21.8831V354.219Z" fill="white"/>
<path opacity="0.13" d="M7.71997 368.36H2.53833V373.533H7.71997V368.36Z" fill="white"/>
<path opacity="0.07" d="M21.8831 368.36H16.7014V373.533H21.8831V368.36Z" fill="white"/>
<path opacity="0.02" d="M0.638458 382.328H-4.54321V387.501H0.638458V382.328Z" fill="white"/>
<path opacity="0.02" d="M7.71997 382.328H2.53833V387.501H7.71997V382.328Z" fill="white"/>
<path opacity="0.14" d="M14.8015 382.328H9.61993V387.501H14.8015V382.328Z" fill="white"/>
<path opacity="0.09" d="M0.638458 396.468H-4.54321V401.642H0.638458V396.468Z" fill="white"/>
<path opacity="0.02" d="M14.8015 396.468H9.61993V401.642H14.8015V396.468Z" fill="white"/>
<path opacity="0.19" d="M0.638458 403.539H-4.54321V408.712H0.638458V403.539Z" fill="white"/>
<path opacity="0.06" d="M14.8015 403.539H9.61993V408.712H14.8015V403.539Z" fill="white"/>
<path opacity="0.16" d="M0.638458 410.609H-4.54321V415.782H0.638458V410.609Z" fill="white"/>
<path opacity="0.04" d="M14.8015 424.749H9.61993V429.923H14.8015V424.749Z" fill="white"/>
<path opacity="0.04" d="M14.8015 431.82H9.61993V436.993H14.8015V431.82Z" fill="white"/>
<path opacity="0.18" d="M21.8831 438.89H16.7014V444.063H21.8831V438.89Z" fill="white"/>
<g opacity="0.7">
<path opacity="0.7" d="M36.2188 323.007H30.8645V450.098H36.2188V323.007Z" fill="#E6E6E6"/>
<path opacity="0.7" d="M45.373 323.007H40.0187V450.098H45.373V323.007Z" fill="#E6E6E6"/>
<path opacity="0.7" d="M54.6999 323.007H49.3456V450.098H54.6999V323.007Z" fill="#E6E6E6"/>
<path opacity="0.7" d="M64.0268 323.007H58.6725V450.098H64.0268V323.007Z" fill="#E6E6E6"/>
<path opacity="0.7" d="M73.3537 323.007H67.9994V450.098H73.3537V323.007Z" fill="#E6E6E6"/>
</g>
<path d="M108.416 450.099H0.983887L108.416 356.634V450.099Z" fill="#333333"/>
<path d="M99.2618 433.544H62.2997V454.237H99.2618V433.544Z" fill="#4D4D4D"/>
<path d="M96.4983 428.716H65.0632V438.373H96.4983V428.716Z" fill="#4D4D4D"/>
<path d="M92.8712 431.647H68.5176L76.9809 417.507H84.4078L92.8712 431.647Z" fill="#4D4D4D"/>
<path d="M89.4168 437.683H72.1448V450.271H89.4168V437.683Z" fill="white"/>
<path d="M91.4893 442.684H70.072V445.27H91.4893V442.684Z" fill="#4D4D4D"/>
<path d="M264.21 467.515C264.728 480.966 254.365 492.52 240.72 493.037C227.248 493.554 215.675 483.035 215.157 469.585C214.639 456.134 225.002 444.58 238.647 444.063C252.119 443.546 263.519 454.065 264.21 467.515Z" fill="#333333"/>
<path d="M260.064 460.79C260.41 468.55 254.365 475.103 246.592 475.448C238.82 475.793 232.257 469.757 231.911 461.997C231.566 454.237 237.611 447.684 245.383 447.339C253.156 446.994 259.719 453.03 260.064 460.79Z" fill="#4D4D4D"/>
<path d="M17.5651 442.166C17.5651 445.443 14.8015 448.202 11.5198 448.202C8.23814 448.202 5.47461 445.443 5.47461 442.166C5.47461 438.89 8.23814 436.131 11.5198 436.131C14.8015 436.131 17.5651 438.717 17.5651 442.166Z" fill="#333333"/>
<path d="M19.6377 448.202C19.6377 452.685 16.0106 456.307 11.5198 456.307C7.02912 456.307 3.40198 452.685 3.40198 448.202C3.40198 443.718 7.02912 440.097 11.5198 440.097C16.0106 440.097 19.6377 443.718 19.6377 448.202Z" fill="#333333"/>
<path d="M15.4924 436.993C15.4924 439.235 13.7652 441.132 11.5199 441.132C9.27451 441.132 7.5473 439.235 7.5473 436.993C7.5473 434.751 9.27451 432.854 11.5199 432.854C13.7652 432.854 15.4924 434.751 15.4924 436.993Z" fill="#333333"/>
<path d="M16.7014 442.166C16.7014 444.063 15.147 445.615 13.2471 445.615C11.3471 445.615 9.79266 444.063 9.79266 442.166C9.79266 440.269 11.3471 438.717 13.2471 438.717C15.147 438.717 16.7014 440.269 16.7014 442.166Z" fill="#4D4D4D"/>
<path d="M14.9742 437.51C14.9742 438.89 13.7652 440.097 12.3835 440.097C11.0017 440.097 9.79266 438.89 9.79266 437.51C9.79266 436.131 11.0017 434.923 12.3835 434.923C13.7652 434.751 14.9742 435.958 14.9742 437.51Z" fill="#4D4D4D"/>
<path d="M132.77 454.754C132.77 459.066 129.142 462.687 124.824 462.687C120.506 462.687 116.879 459.066 116.879 454.754C116.879 450.443 120.334 446.822 124.824 446.822C129.142 446.822 132.77 450.443 132.77 454.754Z" fill="#333333"/>
<path d="M130.006 448.029C130.006 450.961 127.761 453.375 124.824 453.375C121.888 453.375 119.643 450.961 119.643 448.029C119.643 445.098 121.888 442.683 124.824 442.683C127.588 442.683 130.006 445.098 130.006 448.029Z" fill="#333333"/>
<path d="M129.315 448.546C129.315 450.443 127.761 451.995 125.861 451.995C123.961 451.995 122.406 450.443 122.406 448.546C122.406 446.649 123.961 445.097 125.861 445.097C127.761 445.097 129.315 446.649 129.315 448.546Z" fill="#4D4D4D"/>
<path d="M122.061 460.618C121.197 468.895 113.77 474.758 105.653 473.896C97.3619 473.034 91.4894 465.619 92.353 457.514C93.2166 449.236 100.644 443.373 108.761 444.236C116.879 445.098 122.925 452.34 122.061 460.618Z" fill="#333333"/>
<path d="M118.261 447.34C117.743 452.858 112.907 456.997 107.38 456.479C102.025 455.962 98.0527 450.961 98.5709 445.443C99.0891 439.925 103.925 435.786 109.452 436.303C114.979 436.821 118.779 441.821 118.261 447.34Z" fill="#333333"/>
<path d="M116.879 448.374C116.534 451.996 113.252 454.582 109.798 454.237C106.171 453.892 103.58 450.616 103.925 447.167C104.271 443.546 107.552 440.959 111.007 441.304C114.634 441.649 117.225 444.925 116.879 448.374Z" fill="#4D4D4D"/>
<path d="M200.303 453.375C200.303 460.963 194.258 466.998 186.658 466.998C179.058 466.998 173.013 460.963 173.013 453.375C173.013 445.787 179.058 439.752 186.658 439.752C194.085 439.752 200.303 445.787 200.303 453.375Z" fill="#333333"/>
<path d="M204.967 466.998C204.967 477.172 196.676 485.277 186.658 485.277C176.468 485.277 168.35 477 168.35 466.998C168.35 456.824 176.64 448.719 186.658 448.719C196.676 448.719 204.967 456.996 204.967 466.998Z" fill="#333333"/>
<path d="M195.467 441.649C195.467 446.822 191.494 450.961 186.486 450.961C181.477 450.961 177.504 446.822 177.504 441.649C177.504 436.475 181.477 432.337 186.486 432.337C191.494 432.509 195.467 436.648 195.467 441.649Z" fill="#333333"/>
<path d="M198.231 453.375C198.231 457.686 194.776 461.307 190.285 461.307C185.967 461.307 182.34 457.859 182.34 453.375C182.34 449.064 185.795 445.443 190.285 445.443C194.603 445.615 198.231 449.064 198.231 453.375Z" fill="#4D4D4D"/>
<path d="M194.258 442.856C194.258 446.132 191.667 448.891 188.213 448.891C184.931 448.891 182.168 446.305 182.168 442.856C182.168 439.579 184.758 436.993 188.213 436.993C191.667 436.82 194.258 439.579 194.258 442.856Z" fill="#4D4D4D"/>
<path d="M170.077 464.756C170.077 474.413 162.132 482.345 152.46 482.345C142.787 482.345 134.842 474.413 134.842 464.756C134.842 455.099 142.787 447.167 152.46 447.167C162.132 447.167 170.077 454.927 170.077 464.756Z" fill="#333333"/>
<path d="M164.032 449.581C164.032 456.134 158.85 461.48 152.46 461.48C146.069 461.48 140.887 456.134 140.887 449.581C140.887 443.028 146.069 437.682 152.46 437.682C158.85 437.682 164.032 443.028 164.032 449.581Z" fill="#333333"/>
<path d="M162.477 451.133C162.477 455.444 159.023 458.721 154.705 458.721C150.387 458.721 146.932 455.272 146.932 451.133C146.932 446.822 150.387 443.373 154.705 443.373C159.023 443.373 162.477 446.822 162.477 451.133Z" fill="#4D4D4D"/>
<path d="M212.739 451.65C212.739 453.72 211.185 455.272 209.285 455.272C207.385 455.272 205.83 453.72 205.83 451.65C205.83 449.581 207.385 448.029 209.285 448.029C211.185 448.029 212.739 449.581 212.739 451.65Z" fill="#333333"/>
<path d="M287.009 447.34C287.009 454.065 281.654 459.411 274.918 459.411C268.182 459.411 262.828 454.065 262.828 447.34C262.828 440.614 268.182 435.268 274.918 435.268C281.654 435.268 287.009 440.614 287.009 447.34Z" fill="#333333"/>
<path d="M291.154 459.411C291.154 468.378 283.9 475.621 274.918 475.621C265.937 475.621 258.683 468.378 258.683 459.411C258.683 450.444 265.937 443.201 274.918 443.201C283.9 443.201 291.154 450.444 291.154 459.411Z" fill="#333333"/>
<path d="M282.864 436.993C282.864 441.477 279.236 445.27 274.918 445.27C270.6 445.27 266.973 441.649 266.973 436.993C266.973 432.509 270.6 428.716 274.918 428.716C279.236 428.716 282.864 432.509 282.864 436.993Z" fill="#333333"/>
<path d="M285.109 447.34C285.109 451.133 282 454.237 278.2 454.237C274.4 454.237 271.291 451.133 271.291 447.34C271.291 443.546 274.4 440.442 278.2 440.442C282 440.442 285.109 443.546 285.109 447.34Z" fill="#4D4D4D"/>
<path d="M281.827 438.028C281.827 440.959 279.409 443.373 276.473 443.373C273.537 443.373 271.119 440.959 271.119 438.028C271.119 435.096 273.537 432.682 276.473 432.682C279.409 432.682 281.827 435.096 281.827 438.028Z" fill="#4D4D4D"/>
<path d="M332.089 462.515C332.089 471.482 324.835 478.724 315.853 478.724C306.872 478.724 299.617 471.482 299.617 462.515C299.617 453.548 306.872 446.305 315.853 446.305C324.835 446.477 332.089 453.72 332.089 462.515Z" fill="#333333"/>
<path d="M326.389 448.719C326.389 454.755 321.553 459.756 315.853 459.756C309.98 459.756 305.144 454.927 305.144 448.719C305.144 442.684 309.98 437.855 315.853 437.855C321.725 437.855 326.389 442.684 326.389 448.719Z" fill="#333333"/>
<path d="M325.007 450.099C325.007 454.065 321.898 457.169 317.926 457.169C313.953 457.169 310.844 454.065 310.844 450.099C310.844 446.133 313.953 443.029 317.926 443.029C321.898 443.029 325.007 446.133 325.007 450.099Z" fill="#4D4D4D"/>
<path d="M596.351 469.068C596.351 483.898 584.433 495.797 569.579 495.797C554.725 495.797 542.807 483.898 542.807 469.068C542.807 454.237 554.725 442.339 569.579 442.339C584.433 442.339 596.351 454.41 596.351 469.068Z" fill="#333333"/>
<path d="M592.378 461.653C592.378 470.102 585.469 477 577.006 477C568.543 477 561.634 470.102 561.634 461.653C561.634 453.203 568.543 446.305 577.006 446.305C585.469 446.305 592.378 453.203 592.378 461.653Z" fill="#4D4D4D"/>
<path d="M630.722 457.514C630.722 469.93 620.532 480.104 608.096 480.104C595.66 480.104 585.469 469.93 585.469 457.514C585.469 445.098 595.66 434.924 608.096 434.924C620.704 434.924 630.722 444.925 630.722 457.514Z" fill="#333333"/>
<path d="M627.268 451.133C627.268 458.376 621.395 464.067 614.314 464.067C607.059 464.067 601.36 458.204 601.36 451.133C601.36 444.063 607.232 438.2 614.314 438.2C621.395 438.2 627.268 444.063 627.268 451.133Z" fill="#4D4D4D"/>
<path d="M573.034 461.135C573.034 473.551 562.843 483.725 550.407 483.725C537.971 483.725 527.781 473.551 527.781 461.135C527.781 448.719 537.971 438.545 550.407 438.545C563.016 438.545 573.034 448.546 573.034 461.135Z" fill="#333333"/>
<path d="M569.579 454.755C569.579 461.997 563.707 467.688 556.625 467.688C549.544 467.688 543.671 461.825 543.671 454.755C543.671 447.512 549.544 441.821 556.625 441.821C563.707 441.821 569.579 447.512 569.579 454.755Z" fill="#4D4D4D"/>
<path d="M503.255 466.309C503.255 478.725 493.064 488.899 480.628 488.899C468.192 488.899 458.002 478.725 458.002 466.309C458.002 453.893 468.192 443.719 480.628 443.719C493.237 443.719 503.255 453.893 503.255 466.309Z" fill="#333333"/>
<path d="M499.8 459.928C499.8 467.171 493.928 472.862 486.846 472.862C479.592 472.862 473.892 466.999 473.892 459.928C473.892 452.686 479.765 446.995 486.846 446.995C493.928 446.995 499.8 452.858 499.8 459.928Z" fill="#4D4D4D"/>
<path d="M475.965 462.515C475.965 474.931 465.774 485.105 453.338 485.105C440.902 485.105 430.712 474.931 430.712 462.515C430.712 450.099 440.902 439.925 453.338 439.925C465.774 439.925 475.965 449.926 475.965 462.515Z" fill="#333333"/>
<path d="M472.51 456.134C472.51 463.377 466.638 469.068 459.556 469.068C452.302 469.068 446.602 463.205 446.602 456.134C446.602 448.892 452.475 443.201 459.556 443.201C466.638 443.201 472.51 448.892 472.51 456.134Z" fill="#4D4D4D"/>
<path d="M493.582 458.893C493.582 466.136 487.71 471.826 480.628 471.826C473.374 471.826 467.674 465.963 467.674 458.893C467.674 451.65 473.547 445.96 480.628 445.96C487.882 445.96 493.582 451.823 493.582 458.893Z" fill="#4D4D4D"/>
<path d="M397.032 459.928C397.032 468.033 390.468 474.758 382.178 474.758C374.06 474.758 367.324 468.205 367.324 459.928C367.324 451.823 373.887 445.097 382.178 445.097C390.468 445.27 397.032 451.823 397.032 459.928Z" fill="#333333"/>
<path d="M394.786 455.789C394.786 460.445 390.986 464.239 386.323 464.239C381.66 464.239 377.86 460.445 377.86 455.789C377.86 451.133 381.66 447.339 386.323 447.339C390.986 447.339 394.786 451.133 394.786 455.789Z" fill="#4D4D4D"/>
<path d="M8.92905 448.202C8.92905 455.099 3.40198 460.618 -3.50683 460.618C-10.4156 460.618 -15.9427 455.099 -15.9427 448.202C-15.9427 441.304 -10.4156 435.786 -3.50683 435.786C3.22926 435.613 8.92905 441.304 8.92905 448.202Z" fill="#333333"/>
<path d="M13.0743 460.618C13.0743 469.93 5.64736 477.345 -3.67952 477.345C-13.0064 477.345 -20.4333 469.93 -20.4333 460.618C-20.4333 451.306 -13.0064 443.891 -3.67952 443.891C5.64736 443.891 13.0743 451.306 13.0743 460.618Z" fill="#333333"/>
<path d="M4.61105 437.51C4.61105 442.166 0.983925 445.96 -3.67952 445.96C-8.17024 445.96 -11.9701 442.166 -11.9701 437.51C-11.9701 432.854 -8.34296 429.06 -3.67952 429.06C0.983925 429.06 4.61105 432.854 4.61105 437.51Z" fill="#333333"/>
<path d="M7.02902 448.201C7.02902 452.168 3.74734 455.444 -0.225235 455.444C-4.19781 455.444 -7.47949 452.168 -7.47949 448.201C-7.47949 444.235 -4.19781 440.959 -0.225235 440.959C3.74734 440.959 7.02902 444.235 7.02902 448.201Z" fill="#4D4D4D"/>
<path d="M3.57465 438.545C3.57465 441.476 1.15656 444.063 -1.95242 444.063C-4.88868 444.063 -7.47949 441.649 -7.47949 438.545C-7.47949 435.613 -5.0614 433.027 -1.95242 433.027C0.983835 433.027 3.57465 435.441 3.57465 438.545Z" fill="#4D4D4D"/>
<path d="M67.8267 453.03C67.8267 458.549 63.336 463.032 57.8089 463.032C52.2818 463.032 47.7911 458.549 47.7911 453.03C47.7911 447.512 52.2818 443.029 57.8089 443.029C63.336 443.029 67.8267 447.512 67.8267 453.03Z" fill="#333333"/>
<path d="M64.3723 444.408C64.3723 448.202 61.436 451.306 57.8089 451.306C54.1817 451.306 51.2455 448.202 51.2455 444.408C51.2455 440.614 54.1817 437.51 57.8089 437.51C61.436 437.683 64.3723 440.614 64.3723 444.408Z" fill="#333333"/>
<path d="M66.2722 453.03C66.2722 456.307 63.6814 458.893 60.3997 458.893C57.118 458.893 54.5272 456.307 54.5272 453.03C54.5272 449.926 57.118 447.34 60.3997 447.34C63.6814 447.167 66.2722 449.754 66.2722 453.03Z" fill="#4D4D4D"/>
<path d="M63.5087 445.27C63.5087 447.685 61.6088 449.581 59.1907 449.581C56.7726 449.581 54.8727 447.685 54.8727 445.27C54.8727 442.856 56.7726 440.959 59.1907 440.959C61.6088 440.787 63.5087 442.856 63.5087 445.27Z" fill="#4D4D4D"/>
</svg>
