<svg width="334" height="94" viewBox="0 0 334 94" fill="none" xmlns="http://www.w3.org/2000/svg">
<g filter="url(#filter0_d_1_11430)">
<rect x="15" y="15" width="293.753" height="54" fill="#E3B873"/>
</g>
<path d="M84.3523 48.3258C83.5703 48.3258 82.9016 48.2181 82.3463 48.0028C81.8023 47.7875 81.3886 47.5098 81.1053 47.1698C80.8333 46.8298 80.6973 46.4785 80.6973 46.1158C80.6973 45.7305 80.8106 45.4245 81.0373 45.1978C81.2753 44.9598 81.587 44.8408 81.9723 44.8408C82.063 44.8408 82.1536 44.8521 82.2443 44.8748C82.335 44.8861 82.3973 44.8918 82.4313 44.8918L82.6523 44.9258V47.6458C82.6636 47.6458 82.7826 47.6911 83.0093 47.7818C83.304 47.8611 83.6383 47.9008 84.0123 47.9008C84.6923 47.9008 85.2306 47.6231 85.6273 47.0678C86.024 46.5011 86.2223 45.6171 86.2223 44.4158C86.2223 43.2258 86.0183 42.3645 85.6103 41.8318C85.2023 41.2878 84.613 41.0158 83.8423 41.0158C83.5476 41.0158 83.27 41.0668 83.0093 41.1688C82.7486 41.2708 82.471 41.4068 82.1763 41.5768C81.9383 41.7241 81.7003 41.9055 81.4623 42.1208L81.1223 41.8658L81.8023 36.1708H86.8173C86.8966 35.5588 87.0893 35.0488 87.3953 34.6408C87.52 34.4481 87.6673 34.2781 87.8373 34.1308H88.3473V37.4458H82.1763L81.7173 41.3558C81.876 41.2425 82.1083 41.1178 82.4143 40.9818C83.049 40.7211 83.6383 40.5908 84.1823 40.5908C85.837 40.5908 87.0723 40.9308 87.8883 41.6108C88.7043 42.2795 89.1123 43.2145 89.1123 44.4158C89.1123 45.6398 88.71 46.5975 87.9053 47.2888C87.1006 47.9801 85.9163 48.3258 84.3523 48.3258ZM95.2376 48.3258C93.8096 48.3258 92.6876 47.8158 91.8716 46.7958C91.0556 45.7758 90.6476 44.2175 90.6476 42.1208C90.6476 40.0808 91.0896 38.5395 91.9736 37.4968C92.8689 36.4428 94.0986 35.9158 95.6626 35.9158C96.3313 35.9158 96.9149 36.0291 97.4136 36.2558C97.9236 36.4711 98.3089 36.7488 98.5696 37.0888C98.8416 37.4288 98.9776 37.7745 98.9776 38.1258C98.9776 38.5111 98.8586 38.8228 98.6206 39.0608C98.3939 39.2875 98.0879 39.4008 97.7026 39.4008C97.5439 39.4008 97.3853 39.3895 97.2266 39.3668L97.0226 39.3158V36.5958L96.6996 36.4768C96.4503 36.3861 96.2179 36.3408 96.0026 36.3408C95.4473 36.3408 94.9883 36.4881 94.6256 36.7828C94.2743 37.0775 94.0023 37.6215 93.8096 38.4148C93.6283 39.2081 93.5376 40.3301 93.5376 41.7808C93.6623 41.5881 93.8153 41.4181 93.9966 41.2708C94.4273 40.9308 94.9259 40.7608 95.4926 40.7608C96.3199 40.7608 97.0396 40.9195 97.6516 41.2368C98.2749 41.5428 98.7509 41.9735 99.0796 42.5288C99.4083 43.0841 99.5726 43.7131 99.5726 44.4158C99.5726 45.6285 99.1929 46.5861 98.4336 47.2888C97.6856 47.9801 96.6203 48.3258 95.2376 48.3258ZM95.2376 47.9858C95.4643 47.9858 95.6853 47.8725 95.9006 47.6458C96.1273 47.4191 96.3143 47.0508 96.4616 46.5408C96.6089 46.0308 96.6826 45.3791 96.6826 44.5858C96.6826 43.7925 96.6033 43.1408 96.4446 42.6308C96.2973 42.1208 96.1046 41.7525 95.8666 41.5258C95.6399 41.2991 95.4019 41.1858 95.1526 41.1858C94.6879 41.1858 94.3139 41.4125 94.0306 41.8658C93.7586 42.3191 93.6226 43.0275 93.6226 43.9908C93.6226 45.4301 93.7756 46.4558 94.0816 47.0678C94.3989 47.6798 94.7843 47.9858 95.2376 47.9858ZM107.484 38.2958V47.3058L108.844 47.8158V48.0708H105.614V47.8158L106.974 47.3058V36.6808L105.784 36.4258V36.1708H108.079C108.669 36.1708 109.133 36.2955 109.473 36.5448C109.825 36.7828 110.125 37.1398 110.374 37.6158L114.08 44.7048L116.919 37.6158C117.112 37.1171 117.373 36.7545 117.701 36.5278C118.03 36.2898 118.534 36.1708 119.214 36.1708H120.999V36.4258L119.979 36.6808V47.5608L120.999 47.8158V48.0708H116.154V47.8158L117.174 47.5608V38.2958L113.179 48.2408H112.669L107.484 38.2958ZM122.365 47.3058C122.365 46.6371 122.496 46.0308 122.756 45.4868C123.028 44.9315 123.357 44.4498 123.742 44.0418C124.128 43.6338 124.632 43.1521 125.255 42.5968C125.833 42.0868 126.287 41.6618 126.615 41.3218C126.944 40.9705 127.222 40.5795 127.448 40.1488C127.675 39.7068 127.788 39.2308 127.788 38.7208C127.788 37.9728 127.607 37.3891 127.244 36.9698C126.882 36.5505 126.411 36.3408 125.833 36.3408C125.505 36.3408 125.17 36.3861 124.83 36.4768L124.473 36.5958V39.3158L124.252 39.3668C124.071 39.3895 123.918 39.4008 123.793 39.4008C123.408 39.4008 123.096 39.2875 122.858 39.0608C122.632 38.8228 122.518 38.5111 122.518 38.1258C122.518 37.7631 122.654 37.4118 122.926 37.0718C123.21 36.7318 123.623 36.4541 124.167 36.2388C124.723 36.0235 125.391 35.9158 126.173 35.9158C127.703 35.9158 128.837 36.2218 129.573 36.8338C130.31 37.4458 130.678 38.3015 130.678 39.4008C130.678 40.0921 130.497 40.6871 130.134 41.1858C129.783 41.6845 129.347 42.0981 128.825 42.4268C128.315 42.7555 127.63 43.1295 126.768 43.5488C126.043 43.9001 125.454 44.2118 125 44.4838C124.558 44.7445 124.145 45.0618 123.759 45.4358C123.385 45.8098 123.119 46.2348 122.96 46.7108H129.25C129.33 46.0988 129.522 45.5888 129.828 45.1808C129.953 44.9881 130.1 44.8181 130.27 44.6708H130.78V48.0708H122.365V47.3058Z" fill="white"/>
<path fill-rule="evenodd" clip-rule="evenodd" d="M35.2502 26.3819C35.2502 26.171 35.4284 26 35.6483 26H64.3116C64.5315 26 64.7097 26.171 64.7097 26.3819V54.0042C64.7097 54.2151 64.5315 54.3861 64.3116 54.3861C64.0918 54.3861 63.9135 54.2151 63.9135 54.0042V26.7638H35.6483C35.4284 26.7638 35.2502 26.5928 35.2502 26.3819Z" fill="white" stroke="white" stroke-width="0.5" stroke-linecap="round" stroke-linejoin="round"/>
<path d="M35.668 54.562L35.793 54.562L35.793 54.437L35.793 30.6781L37.4189 32.304C37.6219 32.507 37.9511 32.507 38.1542 32.304C38.3573 32.1009 38.3573 31.7717 38.1542 31.5686L35.6407 29.0551C35.4376 28.8521 35.1084 28.8521 34.9053 29.0551L32.3918 31.5686C32.1888 31.7717 32.1888 32.1009 32.3918 32.304C32.5949 32.507 32.9241 32.507 33.1272 32.304L34.7531 30.6781L34.7531 54.437L34.7531 54.562L34.8781 54.562L35.668 54.562Z" fill="white" stroke="white" stroke-width="0.25"/>
<path d="M34.7521 54.8321V54.9571H34.8771L58.7604 54.9571L57.1263 56.5827C56.9221 56.7858 56.9221 57.1154 57.1263 57.3185C57.3301 57.5213 57.6602 57.5213 57.8641 57.3185L60.3907 54.805C60.5949 54.6019 60.5949 54.2723 60.3907 54.0692L57.8641 51.5557C57.6602 51.3529 57.3301 51.3529 57.1263 51.5557C56.9221 51.7588 56.9221 52.0884 57.1263 52.2915L58.7604 53.9171L34.8771 53.9171H34.7521V54.0421V54.8321Z" fill="white" stroke="white" stroke-width="0.25"/>
<path fill-rule="evenodd" clip-rule="evenodd" d="M46.1625 26.1157C46.3167 26.2699 46.3167 26.52 46.1625 26.6742L41.423 31.4138C41.2687 31.568 41.0186 31.568 40.8644 31.4138C40.7102 31.2595 40.7102 31.0095 40.8644 30.8552L45.6039 26.1157C45.7582 25.9614 46.0083 25.9614 46.1625 26.1157Z" fill="white" stroke="white" stroke-width="0.5" stroke-linecap="round" stroke-linejoin="round"/>
<path fill-rule="evenodd" clip-rule="evenodd" d="M64.4624 44.9423C64.6167 45.0965 64.6167 45.3466 64.4624 45.5008L60.1178 49.8454C59.9636 49.9997 59.7135 49.9997 59.5593 49.8454C59.405 49.6912 59.405 49.4411 59.5593 49.2869L63.9039 44.9423C64.0581 44.788 64.3082 44.788 64.4624 44.9423Z" fill="white" stroke="white" stroke-width="0.5" stroke-linecap="round" stroke-linejoin="round"/>
<path fill-rule="evenodd" clip-rule="evenodd" d="M52.0851 26.1139C52.2403 26.2672 52.2419 26.5172 52.0886 26.6725L41.8196 37.0731C41.6664 37.2283 41.4163 37.2299 41.2611 37.0767C41.1059 36.9234 41.1043 36.6733 41.2575 36.5181L51.5265 26.1175C51.6798 25.9622 51.9298 25.9607 52.0851 26.1139Z" fill="white" stroke="white" stroke-width="0.5" stroke-linecap="round" stroke-linejoin="round"/>
<path fill-rule="evenodd" clip-rule="evenodd" d="M64.594 38.3589C64.7482 38.5131 64.7482 38.7632 64.594 38.9175L54.5883 48.9232C54.434 49.0774 54.184 49.0774 54.0297 48.9232C53.8755 48.7689 53.8755 48.5188 54.0297 48.3646L64.0354 38.3589C64.1896 38.2047 64.4397 38.2047 64.594 38.3589Z" fill="white" stroke="white" stroke-width="0.5" stroke-linecap="round" stroke-linejoin="round"/>
<path fill-rule="evenodd" clip-rule="evenodd" d="M58.4085 26.2492C58.5615 26.4046 58.5595 26.6547 58.404 26.8077L41.9473 43.0011C41.7918 43.1541 41.5418 43.1521 41.3888 42.9966C41.2358 42.8411 41.2378 42.5911 41.3933 42.4381L57.85 26.2447C58.0055 26.0917 58.2555 26.0937 58.4085 26.2492Z" fill="white" stroke="white" stroke-width="0.5" stroke-linecap="round" stroke-linejoin="round"/>
<path fill-rule="evenodd" clip-rule="evenodd" d="M64.5941 32.1715C64.7483 32.3257 64.7483 32.5758 64.5941 32.73L48.0057 49.3184C47.8515 49.4726 47.6014 49.4726 47.4472 49.3184C47.2929 49.1642 47.2929 48.9141 47.4472 48.7598L64.0355 32.1715C64.1898 32.0172 64.4399 32.0172 64.5941 32.1715Z" fill="white" stroke="white" stroke-width="0.5" stroke-linecap="round" stroke-linejoin="round"/>
<path fill-rule="evenodd" clip-rule="evenodd" d="M64.3308 26.2469C64.485 26.4011 64.485 26.6512 64.3308 26.8055L41.6863 49.4499C41.5321 49.6042 41.282 49.6042 41.1278 49.4499C40.9735 49.2957 40.9735 49.0456 41.1278 48.8914L63.7722 26.2469C63.9265 26.0927 64.1765 26.0927 64.3308 26.2469Z" fill="white" stroke="white" stroke-width="0.5" stroke-linecap="round" stroke-linejoin="round"/>
<path d="M220.166 48.3946C218.738 48.3946 217.655 48.1113 216.919 47.5446C216.193 46.978 215.831 46.2413 215.831 45.3346C215.831 44.7113 216.103 44.1106 216.647 43.5326C217.191 42.9433 217.854 42.524 218.636 42.2746C217.888 41.8553 217.315 41.3963 216.919 40.8976C216.533 40.3876 216.341 39.77 216.341 39.0446C216.341 38.138 216.703 37.4013 217.429 36.8346C218.165 36.268 219.248 35.9846 220.676 35.9846C221.39 35.9846 222.013 36.115 222.546 36.3756C223.09 36.6363 223.509 36.9763 223.804 37.3956C224.098 37.815 224.246 38.2513 224.246 38.7046C224.246 39.2373 224.013 39.753 223.549 40.2516C223.095 40.7503 222.563 41.0846 221.951 41.2546C222.982 41.708 223.764 42.2463 224.297 42.8696C224.829 43.493 225.096 44.258 225.096 45.1646C225.096 45.754 224.914 46.2923 224.552 46.7796C224.189 47.267 223.639 47.658 222.903 47.9526C222.166 48.2473 221.254 48.3946 220.166 48.3946ZM221.441 40.9146C221.871 40.722 222.217 40.4443 222.478 40.0816C222.75 39.719 222.886 39.26 222.886 38.7046C222.886 38.2966 222.784 37.917 222.58 37.5656C222.387 37.2143 222.132 36.9366 221.815 36.7326C221.509 36.5173 221.186 36.4096 220.846 36.4096C220.358 36.4096 219.95 36.6023 219.622 36.9876C219.304 37.3616 219.146 37.8773 219.146 38.5346C219.146 39.4413 219.911 40.2346 221.441 40.9146ZM219.996 47.9696C220.721 47.9696 221.282 47.7713 221.679 47.3746C222.087 46.9666 222.291 46.4 222.291 45.6746C222.291 45.1306 222.019 44.581 221.475 44.0256C220.931 43.4703 220.211 43 219.316 42.6146C218.681 42.8413 218.182 43.1813 217.82 43.6346C217.457 44.0766 217.276 44.6433 217.276 45.3346C217.276 45.8106 217.395 46.2526 217.633 46.6606C217.882 47.0573 218.211 47.3746 218.619 47.6126C219.038 47.8506 219.497 47.9696 219.996 47.9696ZM230.717 48.3946C229.289 48.3946 228.167 47.8846 227.351 46.8646C226.535 45.8446 226.127 44.2863 226.127 42.1896C226.127 40.1496 226.569 38.6083 227.453 37.5656C228.349 36.5116 229.578 35.9846 231.142 35.9846C231.811 35.9846 232.395 36.098 232.893 36.3246C233.403 36.54 233.789 36.8176 234.049 37.1576C234.321 37.4976 234.457 37.8433 234.457 38.1946C234.457 38.58 234.338 38.8916 234.1 39.1296C233.874 39.3563 233.568 39.4696 233.182 39.4696C233.024 39.4696 232.865 39.4583 232.706 39.4356L232.502 39.3846V36.6646L232.179 36.5456C231.93 36.455 231.698 36.4096 231.482 36.4096C230.927 36.4096 230.468 36.557 230.105 36.8516C229.754 37.1463 229.482 37.6903 229.289 38.4836C229.108 39.277 229.017 40.399 229.017 41.8496C229.142 41.657 229.295 41.487 229.476 41.3396C229.907 40.9996 230.406 40.8296 230.972 40.8296C231.8 40.8296 232.519 40.9883 233.131 41.3056C233.755 41.6116 234.231 42.0423 234.559 42.5976C234.888 43.153 235.052 43.782 235.052 44.4846C235.052 45.6973 234.673 46.655 233.913 47.3576C233.165 48.049 232.1 48.3946 230.717 48.3946ZM230.717 48.0546C230.944 48.0546 231.165 47.9413 231.38 47.7146C231.607 47.488 231.794 47.1196 231.941 46.6096C232.089 46.0996 232.162 45.448 232.162 44.6546C232.162 43.8613 232.083 43.2096 231.924 42.6996C231.777 42.1896 231.584 41.8213 231.346 41.5946C231.12 41.368 230.882 41.2546 230.632 41.2546C230.168 41.2546 229.794 41.4813 229.51 41.9346C229.238 42.388 229.102 43.0963 229.102 44.0596C229.102 45.499 229.255 46.5246 229.561 47.1366C229.879 47.7486 230.264 48.0546 230.717 48.0546ZM241.434 47.8846L242.454 47.6296V36.7496L241.434 36.4946V36.2396H245.769C247.798 36.2396 249.35 36.761 250.427 37.8036C251.515 38.8463 252.059 40.3083 252.059 42.1896C252.059 44.071 251.515 45.533 250.427 46.5756C249.35 47.6183 247.798 48.1396 245.769 48.1396H241.434V47.8846ZM245.769 47.7146C246.823 47.7146 247.639 47.2896 248.217 46.4396C248.795 45.5783 249.084 44.1616 249.084 42.1896C249.084 40.2176 248.795 38.8066 248.217 37.9566C247.639 37.0953 246.823 36.6646 245.769 36.6646H245.259V47.7146H245.769ZM251.882 47.8846L253.242 47.3746L257.917 36.0696H258.427L263.272 47.6296L264.122 47.8846V48.1396H262.082C261.492 48.1396 261.011 48.0093 260.637 47.7486C260.263 47.4766 259.985 47.1253 259.804 46.6946L258.937 44.6546H254.874L253.752 47.3746L255.027 47.8846V48.1396H251.882V47.8846ZM255.044 44.2296H258.767L256.897 39.7586L255.044 44.2296ZM265.896 47.8846L266.916 47.6296V43.7196L263.431 36.7496L262.581 36.4946V36.2396H264.706C265.296 36.2396 265.766 36.3643 266.117 36.6136C266.48 36.863 266.775 37.22 267.001 37.6846L269.517 42.6996L272.101 37.0046L270.826 36.4946V36.2396H274.056V36.4946L272.696 37.0046L269.721 43.5496V47.6296L270.741 47.8846V48.1396H265.896V47.8846ZM278.387 48.3946C277.583 48.3946 276.829 48.2133 276.126 47.8506C275.809 47.692 275.543 47.505 275.327 47.2896C275.169 47.5503 274.97 47.7826 274.732 47.9866C274.528 48.134 274.415 48.2133 274.392 48.2246H273.967V44.9946H274.647C274.817 45.55 275.055 46.0486 275.361 46.4906C276.053 47.4766 276.948 47.9696 278.047 47.9696C278.693 47.9696 279.209 47.777 279.594 47.3916C279.98 47.0063 280.172 46.4906 280.172 45.8446C280.172 45.4706 280.059 45.1363 279.832 44.8416C279.617 44.547 279.345 44.2863 279.016 44.0596C278.688 43.833 278.229 43.5496 277.639 43.2096C276.891 42.7903 276.285 42.4106 275.82 42.0706C275.356 41.7306 274.959 41.3056 274.63 40.7956C274.302 40.2743 274.137 39.6623 274.137 38.9596C274.137 38.4043 274.29 37.9056 274.596 37.4636C274.914 37.0103 275.384 36.6533 276.007 36.3926C276.631 36.1206 277.396 35.9846 278.302 35.9846C278.96 35.9846 279.617 36.1716 280.274 36.5456C280.524 36.6816 280.773 36.863 281.022 37.0896C281.215 36.795 281.413 36.5626 281.617 36.3926C281.821 36.2453 281.935 36.166 281.957 36.1546H282.382V39.3846H281.702C281.555 38.8406 281.334 38.3476 281.039 37.9056C280.767 37.475 280.427 37.118 280.019 36.8346C279.623 36.5513 279.164 36.4096 278.642 36.4096C278.2 36.4096 277.821 36.5853 277.503 36.9366C277.186 37.288 277.027 37.7356 277.027 38.2796C277.027 38.699 277.146 39.0786 277.384 39.4186C277.634 39.7473 277.934 40.0363 278.285 40.2856C278.648 40.535 279.135 40.8353 279.747 41.1866C280.461 41.5946 281.039 41.9573 281.481 42.2746C281.923 42.592 282.297 42.9886 282.603 43.4646C282.909 43.9293 283.062 44.4676 283.062 45.0796C283.062 45.6916 282.887 46.2526 282.535 46.7626C282.184 47.2613 281.657 47.658 280.954 47.9526C280.252 48.2473 279.396 48.3946 278.387 48.3946Z" fill="white"/>
<path d="M150.09 69.035L150.09 15" stroke="white" stroke-width="0.75"/>
<path d="M191.6 28.1997C191.337 26.9464 190.196 26 188.831 26C188.519 26 188.266 26.2458 188.266 26.5499C188.266 26.854 188.519 27.0998 188.831 27.0998C189.766 27.0998 190.527 27.84 190.527 28.7496C190.527 29.6591 189.766 30.3993 188.831 30.3993C188.519 30.3993 188.266 30.6451 188.266 30.9492C188.266 31.2533 188.519 31.4992 188.831 31.4992C190.196 31.4992 191.337 30.5528 191.6 29.2995H199.005V34.2487H168.484V29.2995H176.397H178.093C178.405 29.2995 178.658 29.0537 178.658 28.7496C178.658 28.4455 178.405 28.1997 178.093 28.1997H177.066C177.3 27.5607 177.922 27.0998 178.658 27.0998C179.593 27.0998 180.353 27.84 180.353 28.7496C180.353 29.6591 179.593 30.3993 178.658 30.3993C178.346 30.3993 178.093 30.6451 178.093 30.9492C178.093 31.2533 178.346 31.4992 178.658 31.4992C180.216 31.4992 181.484 30.2657 181.484 28.7496C181.484 27.2335 180.216 26 178.658 26C177.294 26 176.152 26.9464 175.889 28.1997H167.354V35.3486V57.3452H200.135V35.3486V28.1997H191.6ZM199.005 56.2454H168.484V35.3486H199.005V56.2454Z" fill="white"/>
<path d="M182.049 27.0998C182.984 27.0998 183.745 27.84 183.745 28.7496C183.745 29.6591 182.984 30.3993 182.049 30.3993C181.737 30.3993 181.484 30.6451 181.484 30.9492C181.484 31.2533 181.737 31.4992 182.049 31.4992C183.607 31.4992 184.875 30.2657 184.875 28.7496C184.875 27.2335 183.607 26 182.049 26C181.737 26 181.484 26.2458 181.484 26.5499C181.484 26.854 181.737 27.0998 182.049 27.0998Z" fill="white"/>
<path d="M185.44 27.0998C186.375 27.0998 187.136 27.84 187.136 28.7496C187.136 29.6591 186.375 30.3993 185.44 30.3993C185.128 30.3993 184.875 30.6451 184.875 30.9492C184.875 31.2533 185.128 31.4992 185.44 31.4992C186.998 31.4992 188.266 30.2657 188.266 28.7496C188.266 27.2335 186.998 26 185.44 26C185.128 26 184.875 26.2458 184.875 26.5499C184.875 26.854 185.128 27.0998 185.44 27.0998Z" fill="white"/>
<path d="M172.441 39.7475H184.875C185.187 39.7475 185.44 39.5017 185.44 39.1976C185.44 38.8935 185.187 38.6476 184.875 38.6476H172.441C172.129 38.6476 171.876 38.8935 171.876 39.1976C171.876 39.5017 172.129 39.7475 172.441 39.7475Z" fill="white"/>
<path d="M195.048 47.4467H186.571C186.259 47.4467 186.005 47.6925 186.005 47.9966C186.005 48.3007 186.259 48.5465 186.571 48.5465H195.048C195.36 48.5465 195.614 48.3007 195.614 47.9966C195.614 47.6925 195.36 47.4467 195.048 47.4467Z" fill="white"/>
<path d="M172.441 44.1477H178.093C178.405 44.1477 178.658 43.9019 178.658 43.5978C178.658 43.2937 178.405 43.0479 178.093 43.0479H172.441C172.129 43.0479 171.876 43.2937 171.876 43.5978C171.876 43.9019 172.129 44.1477 172.441 44.1477Z" fill="white"/>
<path d="M195.048 51.8464H189.397C189.085 51.8464 188.831 52.0922 188.831 52.3963C188.831 52.7004 189.085 52.9462 189.397 52.9462H195.048C195.36 52.9462 195.614 52.7004 195.614 52.3963C195.614 52.0922 195.36 51.8464 195.048 51.8464Z" fill="white"/>
<path d="M183.179 43.5978C183.179 43.9019 183.433 44.1477 183.745 44.1477H192.223C192.534 44.1477 192.788 43.9019 192.788 43.5978C192.788 43.2937 192.534 43.0479 192.223 43.0479H183.745C183.433 43.0479 183.179 43.2937 183.179 43.5978Z" fill="white"/>
<path d="M181.32 43.988C181.422 43.8835 181.484 43.7405 181.484 43.5975C181.484 43.454 181.422 43.311 181.32 43.2071C181.111 43.0036 180.727 43.0036 180.517 43.2071C180.416 43.311 180.353 43.454 180.353 43.5975C180.353 43.7405 180.416 43.8835 180.517 43.988C180.625 44.0919 180.772 44.1475 180.919 44.1475C181.066 44.1475 181.213 44.0919 181.32 43.988Z" fill="white"/>
<path d="M174.702 47.9966C174.702 48.3007 174.955 48.5465 175.267 48.5465H183.745C184.057 48.5465 184.31 48.3007 184.31 47.9966C184.31 47.6925 184.057 47.4467 183.745 47.4467H175.267C174.955 47.4467 174.702 47.6925 174.702 47.9966Z" fill="white"/>
<path d="M172.441 48.5465C172.588 48.5465 172.735 48.486 172.842 48.387C172.944 48.2825 173.006 48.1396 173.006 47.9966C173.006 47.8531 172.944 47.7101 172.842 47.6116C172.633 47.4027 172.249 47.4027 172.04 47.6061C171.938 47.7101 171.876 47.8531 171.876 47.9966C171.876 48.1396 171.938 48.2825 172.04 48.387C172.147 48.486 172.288 48.5465 172.441 48.5465Z" fill="white"/>
<path d="M195.048 44.1475C195.195 44.1475 195.342 44.0919 195.45 43.988C195.557 43.8835 195.614 43.7405 195.614 43.5975C195.614 43.454 195.557 43.311 195.45 43.2071C195.235 43.0036 194.856 43.0036 194.647 43.2071C194.545 43.311 194.483 43.454 194.483 43.5975C194.483 43.7405 194.545 43.8835 194.647 43.988C194.755 44.0919 194.902 44.1475 195.048 44.1475Z" fill="white"/>
<path d="M186.571 51.8464H172.441C172.129 51.8464 171.876 52.0922 171.876 52.3963C171.876 52.7004 172.129 52.9462 172.441 52.9462H186.571C186.883 52.9462 187.136 52.7004 187.136 52.3963C187.136 52.0922 186.883 51.8464 186.571 51.8464Z" fill="white"/>
<defs>
<filter id="filter0_d_1_11430" x="0" y="0" width="333.753" height="94" filterUnits="userSpaceOnUse" color-interpolation-filters="sRGB">
<feFlood flood-opacity="0" result="BackgroundImageFix"/>
<feColorMatrix in="SourceAlpha" type="matrix" values="0 0 0 0 0 0 0 0 0 0 0 0 0 0 0 0 0 0 127 0" result="hardAlpha"/>
<feOffset dx="5" dy="5"/>
<feGaussianBlur stdDeviation="10"/>
<feColorMatrix type="matrix" values="0 0 0 0 0.890196 0 0 0 0 0.721569 0 0 0 0 0.45098 0 0 0 0.5 0"/>
<feBlend mode="normal" in2="BackgroundImageFix" result="effect1_dropShadow_1_11430"/>
<feBlend mode="normal" in="SourceGraphic" in2="effect1_dropShadow_1_11430" result="shape"/>
</filter>
</defs>
</svg>
