<svg width="114" height="28" viewBox="0 0 114 28" fill="none" xmlns="http://www.w3.org/2000/svg">
<g id="Group 2.9">
<g id="Group 11.4">
<rect id="Rectangle 6.7" x="0.000610352" y="12.9998" width="32" height="1.54334" rx="0.771672" fill="#E3B873"/>
<rect id="Rectangle 6.8" x="82.0006" y="12.9998" width="32" height="1.54334" rx="0.771672" fill="#E3B873"/>
<path id="Vector" d="M67.4056 21.1434C66.8241 20.7342 66.1529 20.5144 65.475 20.4785C62.92 18.8054 61.2463 17.5495 60.2692 16.5724L57.2675 13.5707L59.089 11.5318C59.4342 11.7267 59.805 11.8551 60.1759 11.908C60.4557 11.9546 60.6423 11.9546 60.8289 11.9546C61.2021 11.9546 61.2953 11.9546 61.6685 12.2811C61.4819 12.4211 61.3886 12.6543 61.3886 12.8875C61.3886 13.1207 61.4819 13.4006 61.6685 13.5871L63.301 15.2197C63.5342 15.4995 63.9073 15.6394 64.2805 15.6394C64.6537 15.6394 65.0268 15.4995 65.26 15.173L68.5717 11.8613C68.8516 11.6281 68.9915 11.255 68.9915 10.8818C68.9915 10.5087 68.8516 10.1822 68.5717 9.90232L66.9392 8.26979C66.7526 8.08324 66.5194 7.98993 66.2861 7.98993C66.0529 7.98993 65.8197 8.12986 65.6331 8.26979C65.26 7.94331 65.26 7.85 65.26 7.47684C65.26 7.29028 65.26 7.05705 65.1667 6.77719C65.0734 6.12416 64.7469 5.4712 64.2338 4.9581L62.5546 3.27894C61.5751 2.29944 61.1087 1.83302 59.8493 1.2733C57.144 0.013935 54.3921 0.24717 50.3807 2.06626C50.1475 2.15956 50.0542 2.34612 50.1009 2.57935C50.1475 2.81258 50.3341 2.95251 50.5673 2.95251H51.1736C53.2259 2.95251 54.2987 2.95251 56.1645 4.81823C56.9814 5.63518 57.005 6.88782 56.273 7.80944C56.1744 7.82431 56.0993 7.86859 56.0245 7.94331L53.9526 10.2559L52.3864 8.68963C50.6649 6.96817 49.4541 5.33946 48.5222 3.5259C48.4733 2.60821 48.105 1.74961 47.4422 1.0868C46.6493 0.293904 45.5299 -0.0792603 44.4104 0.0140445C44.2705 0.0606695 44.1306 0.153974 44.0839 0.247279C43.9906 0.387209 43.9906 0.573763 44.0839 0.713693L45.3899 3.04587C45.1101 3.65222 44.4571 4.02538 43.8041 3.97876L42.4514 1.73983C42.4048 1.5999 42.2182 1.50659 42.0783 1.50659C41.9383 1.45997 41.7984 1.55322 41.7051 1.69315C40.5856 3.3723 41.0054 5.61118 42.6846 6.77724C43.2631 7.19047 43.9149 7.42026 44.575 7.46738C44.5823 7.4705 44.5893 7.47432 44.5969 7.47689C46.416 8.40977 48.0485 9.62246 49.7743 11.3483L51.4802 13.0154L41.5652 24.082C41.192 24.4551 41.0055 24.9682 41.0055 25.4813C41.0055 25.9944 41.192 26.4608 41.5652 26.8339L42.2182 27.487C42.5914 27.8134 43.0578 28 43.5242 28C43.9906 28 44.5037 27.8135 44.8769 27.4403L54.7806 16.3546L57.6571 19.2311C58.6357 20.2097 59.8937 21.9332 61.5705 24.4481C61.6306 25.3458 61.998 26.1839 62.648 26.8339C63.3476 27.5336 64.2805 27.9067 65.26 27.9067C65.3999 27.9067 65.5399 27.9067 65.6332 27.9067C65.7731 27.9067 65.913 27.8134 66.0063 27.6735C66.0996 27.5336 66.0996 27.347 66.0063 27.2071L64.6537 24.9216C64.9802 24.3153 65.5866 23.9421 66.2862 23.9887L67.5922 26.2276C67.6388 26.3675 67.8254 26.4608 67.9654 26.4608C68.1519 26.4142 68.2918 26.3675 68.3851 26.2276C69.5045 24.5484 69.0381 22.3095 67.4056 21.1434ZM56.7709 4.07201C55.2783 2.62608 54.1589 2.15962 52.8995 2.01969C55.5582 1.18011 57.5172 1.22673 59.4762 2.11299C60.5957 2.57941 60.9688 2.95257 61.9483 3.93208L63.6275 5.61123C64.0006 5.9844 64.2338 6.45081 64.2805 6.91723C64.3271 7.15046 64.3271 7.33702 64.3271 7.47695C64.3271 7.99004 64.3738 8.36315 64.9335 8.92287C65.12 9.10942 65.3999 9.20273 65.6331 9.20273C65.913 9.20273 66.1462 9.10942 66.2861 8.92287L67.9187 10.5554C68.012 10.6487 68.0586 10.742 68.0586 10.8819C68.0586 11.0218 68.012 11.1151 67.9187 11.2084L64.607 14.5201C64.4204 14.7066 64.1406 14.7066 63.954 14.5201L62.3214 12.8875C62.508 12.7476 62.6013 12.5144 62.5547 12.2345C62.5547 12.0013 62.4614 11.7214 62.2748 11.5349C61.7151 10.9751 61.3419 10.9285 60.8289 10.9285C60.689 10.9285 60.5024 10.9285 60.2692 10.8819C59.7561 10.8353 59.3363 10.602 58.9632 10.2289L56.9575 8.22322C57.9836 6.96391 57.8904 5.19145 56.7709 4.07201ZM42.1249 2.95257L43.1044 4.63173C43.1977 4.77166 43.3377 4.86496 43.4776 4.86496H43.7108C44.7837 4.91159 45.7632 4.35187 46.2296 3.41904L46.3229 3.1858C46.4162 3.04587 46.4162 2.90594 46.3229 2.76601L45.2967 0.993553C45.8564 1.08686 46.3695 1.36672 46.7893 1.78651C47.2702 2.30747 47.5781 2.96634 47.5963 3.67408C47.5873 3.70999 47.5822 3.74864 47.5822 3.7922C47.5822 4.00822 47.5561 4.21893 47.5079 4.42205C47.3319 5.09743 46.91 5.68628 46.3228 6.07776C45.3899 6.6841 44.1306 6.6841 43.1977 6.03113C42.2182 5.33137 41.7984 4.07201 42.1249 2.95257ZM50.4274 10.6953C49.0281 9.24941 47.6288 8.12997 46.1362 7.24371C46.3694 7.15041 46.6493 7.01048 46.8825 6.87055C47.5821 6.40413 48.0485 5.79773 48.3284 5.05146C49.2146 6.54406 50.3341 7.94336 51.7333 9.34266L53.3354 10.9447L52.0791 12.347L50.4274 10.6953ZM44.2239 26.7406C43.8507 27.1138 43.2444 27.1604 42.8712 26.7873L42.2182 26.1809C42.0316 25.9944 41.9383 25.7611 41.9383 25.5279C41.9383 25.248 42.0316 25.0148 42.2648 24.7816L42.529 24.4861L43.1977 25.1548C43.291 25.2481 43.3842 25.2947 43.5242 25.2947C43.6641 25.2947 43.7574 25.2481 43.8507 25.1548C44.0372 24.9682 44.0372 24.6884 43.8507 24.5018L43.1453 23.7964L43.7617 23.1068L44.5037 23.8487C44.597 23.942 44.6902 23.9887 44.8302 23.9887C44.9701 23.9887 45.0634 23.942 45.1567 23.8487C45.3432 23.6622 45.3432 23.3823 45.1567 23.1957L44.3782 22.4172L56.3757 8.99415L58.3348 10.9532L56.4099 13.1067C56.3549 13.13 56.3063 13.1656 56.2578 13.2141L54.3921 15.313C54.3388 15.3663 54.3013 15.4273 54.2785 15.4914L44.2239 26.7406ZM55.4188 15.6401L56.6953 14.2113L59.7094 17.2254C60.549 18.1116 61.9949 19.231 64.0938 20.6303C63.814 20.7236 63.5341 20.8636 63.2543 21.0501C62.6756 21.4118 62.2657 21.914 61.9801 22.4691C61.9759 22.477 61.972 22.4851 61.9679 22.4931C61.951 22.5265 61.9344 22.5601 61.9184 22.5938C61.8954 22.6417 61.8735 22.69 61.8526 22.7389C61.8382 22.772 61.824 22.805 61.8105 22.8383C61.8086 22.8431 61.8067 22.848 61.8048 22.8528C61.7901 22.8893 61.7755 22.9258 61.7617 22.9625C61.4968 22.5739 61.2419 22.2072 60.9967 21.8618L61.6218 21.2367C61.8083 21.0502 61.8083 20.7703 61.6218 20.5837C61.4352 20.3972 61.1554 20.3972 60.9688 20.5837L60.4488 21.1037C60.255 20.8407 60.0677 20.5926 59.8872 20.3593L60.3158 19.9307C60.5023 19.7441 60.5023 19.4643 60.3158 19.2777C60.1292 19.0911 59.8494 19.0911 59.6628 19.2777L59.3067 19.6337C58.9639 19.2206 58.6477 18.8689 58.3568 18.578L55.4188 15.6401ZM67.9186 24.9682L66.9391 23.289C66.8458 23.1491 66.7059 23.0558 66.566 23.0558H66.3327C65.2599 22.9625 64.2804 23.5689 63.814 24.5017L63.7207 24.7349C63.6274 24.8749 63.6274 25.0148 63.7207 25.1547L64.7468 26.9272C64.1871 26.8339 63.674 26.554 63.2542 26.1342C62.7824 25.6231 62.4775 24.9793 62.4488 24.2869C62.4568 24.2528 62.4613 24.2162 62.4613 24.1752C62.4613 23.5843 62.6488 23.0311 62.9758 22.5625C63.1766 22.283 63.4279 22.0383 63.7206 21.8431C64.187 21.5166 64.7001 21.3767 65.2599 21.3767C65.8196 21.3767 66.3793 21.5632 66.8457 21.8898C67.8254 22.5894 68.2452 23.8487 67.9186 24.9682Z" fill="#E3B873"/>
</g>
</g>
</svg>
